<?xml version="1.0" encoding="UTF-8" standalone="no"?>
<!-- Created with Inkscape (http://www.inkscape.org/) -->

<svg
   xmlns:dc="http://purl.org/dc/elements/1.1/"
   xmlns:cc="http://creativecommons.org/ns#"
   xmlns:rdf="http://www.w3.org/1999/02/22-rdf-syntax-ns#"
   xmlns:svg="http://www.w3.org/2000/svg"
   xmlns="http://www.w3.org/2000/svg"
   xmlns:sodipodi="http://sodipodi.sourceforge.net/DTD/sodipodi-0.dtd"
   xmlns:inkscape="http://www.inkscape.org/namespaces/inkscape"
   width="210mm"
   height="297mm"
   viewBox="0 0 210 297"
   version="1.1"
   id="svg8"
   inkscape:version="0.92.1 r15371"
   sodipodi:docname="BalEeuwigNaarRechts.svg">
  <defs
     id="defs2" />
  <sodipodi:namedview
     id="base"
     pagecolor="#ffffff"
     bordercolor="#666666"
     borderopacity="1.0"
     inkscape:pageopacity="0.0"
     inkscape:pageshadow="2"
     inkscape:zoom="0.98994949"
     inkscape:cx="234.49037"
     inkscape:cy="449.31679"
     inkscape:document-units="mm"
     inkscape:current-layer="layer1"
     showgrid="false"
     inkscape:window-width="1920"
     inkscape:window-height="1029"
     inkscape:window-x="0"
     inkscape:window-y="0"
     inkscape:window-maximized="1" />
  <metadata
     id="metadata5">
    <rdf:RDF>
      <cc:Work
         rdf:about="">
        <dc:format>image/svg+xml</dc:format>
        <dc:type
           rdf:resource="http://purl.org/dc/dcmitype/StillImage" />
        <dc:title></dc:title>
      </cc:Work>
    </rdf:RDF>
  </metadata>
  <g
     inkscape:label="Layer 1"
     inkscape:groupmode="layer"
     id="layer1">
    <text
       xml:space="preserve"
       style="font-style:normal;font-weight:normal;font-size:10.58333302px;line-height:1.25;font-family:courier;letter-spacing:0px;word-spacing:0px;fill:#000000;fill-opacity:1;stroke:none;stroke-width:0.26458332;-inkscape-font-specification:courier;font-stretch:normal;font-variant:normal;"
       x="64.411957"
       y="151.87263"
       id="text12"><tspan
         sodipodi:role="line"
         id="tspan10"
         x="64.411957"
         y="151.87263"
         style="stroke-width:0.26458332;-inkscape-font-specification:courier;font-family:courier;font-weight:normal;font-style:normal;font-stretch:normal;font-variant:normal;">if (x &gt; 200)</tspan><tspan
         sodipodi:role="line"
         x="64.411957"
         y="165.10181"
         style="stroke-width:0.26458332;-inkscape-font-specification:courier;font-family:courier;font-weight:normal;font-style:normal;font-stretch:normal;font-variant:normal;"
         id="tspan14">{</tspan><tspan
         sodipodi:role="line"
         x="64.411957"
         y="178.33096"
         style="stroke-width:0.26458332;-inkscape-font-specification:courier;font-family:courier;font-weight:normal;font-style:normal;font-stretch:normal;font-variant:normal;"
         id="tspan16">  x = 100;</tspan><tspan
         sodipodi:role="line"
         x="64.411957"
         y="191.56013"
         style="stroke-width:0.26458332;-inkscape-font-specification:courier;font-family:courier;font-weight:normal;font-style:normal;font-stretch:normal;font-variant:normal;"
         id="tspan18">}</tspan><tspan
         sodipodi:role="line"
         x="64.411957"
         y="204.78931"
         style="stroke-width:0.26458332;-inkscape-font-specification:courier;font-family:courier;font-weight:normal;font-style:normal;font-stretch:normal;font-variant:normal;"
         id="tspan20" /></text>
    <text
       xml:space="preserve"
       style="font-style:normal;font-weight:normal;font-size:10.58333302px;line-height:1.25;font-family:sans-serif;letter-spacing:0px;word-spacing:0px;fill:#000000;fill-opacity:1;stroke:none;stroke-width:0.26458332"
       x="26.192413"
       y="117.39487"
       id="text24"><tspan
         sodipodi:role="line"
         id="tspan22"
         x="26.192413"
         y="117.39487"
         style="stroke-width:0.26458332">als</tspan></text>
    <text
       xml:space="preserve"
       style="font-style:normal;font-weight:normal;font-size:10.58333302px;line-height:1.25;font-family:sans-serif;letter-spacing:0px;word-spacing:0px;fill:#000000;fill-opacity:1;stroke:none;stroke-width:0.26458332"
       x="114.39135"
       y="115.79126"
       id="text28"><tspan
         sodipodi:role="line"
         id="tspan26"
         x="114.39135"
         y="115.79126"
         style="stroke-width:0.26458332">vraag</tspan></text>
    <text
       xml:space="preserve"
       style="font-style:normal;font-weight:normal;font-size:10.58333302px;line-height:1.25;font-family:sans-serif;letter-spacing:0px;word-spacing:0px;fill:#000000;fill-opacity:1;stroke:none;stroke-width:0.26458332"
       x="160.09444"
       y="176.19417"
       id="text32"><tspan
         sodipodi:role="line"
         id="tspan30"
         x="160.09444"
         y="176.19417"
         style="stroke-width:0.26458332">doe</tspan><tspan
         sodipodi:role="line"
         x="160.09444"
         y="189.42334"
         style="stroke-width:0.26458332"
         id="tspan34">dan</tspan></text>
    <text
       xml:space="preserve"
       style="font-style:normal;font-weight:normal;font-size:10.58333302px;line-height:1.25;font-family:sans-serif;letter-spacing:0px;word-spacing:0px;fill:#000000;fill-opacity:1;stroke:none;stroke-width:0.26458332"
       x="86.595329"
       y="215.75006"
       id="text38"><tspan
         sodipodi:role="line"
         id="tspan36"
         x="86.595329"
         y="215.75006"
         style="stroke-width:0.26458332">twee spaties</tspan><tspan
         sodipodi:role="line"
         x="86.595329"
         y="228.97923"
         style="stroke-width:0.26458332"
         id="tspan40">voor code tussen</tspan><tspan
         sodipodi:role="line"
         x="86.595329"
         y="242.20839"
         style="stroke-width:0.26458332"
         id="tspan42">accolades</tspan></text>
    <path
       style="fill:none;stroke:#000000;stroke-width:0.26458332px;stroke-linecap:butt;stroke-linejoin:miter;stroke-opacity:1"
       d="m 41.961315,120.06757 c 0,-0.35636 -0.356359,-1.06908 0,-1.06908 0.35636,0 -0.251983,0.8171 0,1.06908 0.103124,2.39718 1.290775,0.24448 1.870888,0.53454 0.263001,0.1315 0.806077,0.93758 1.069078,1.06908 0.07968,0.0398 0.187584,-0.0398 0.267269,0 0.320722,0.16036 0.481083,0.64144 0.801809,0.80181 0.07968,0.0398 0.204274,-0.063 0.267269,0 0.140864,0.14086 0.156768,0.36878 0.267268,0.53454 0.0741,0.11114 0.97349,1.02128 1.069079,1.06907 0.07968,0.0399 0.178181,0 0.267271,0 0.178178,0.0891 0.368784,0.15677 0.534538,0.26727 0.175588,0.11706 0.657151,0.75359 0.801809,0.80181 0.169034,0.0563 0.365503,-0.0563 0.534538,0 0.119528,0.0398 0.15458,0.21093 0.267271,0.26727 0.07968,0.0399 0.187584,-0.0398 0.267269,0 0.142743,0.0714 0.661101,0.6611 0.801809,0.80181 0.445447,0.44545 0.890897,0.8909 1.336347,1.33635 0.140708,0.14071 0.659064,0.73044 0.801809,0.80181 0.07968,0.0398 0.187585,-0.0398 0.267269,0 0.112691,0.0563 0.178178,0.17818 0.267269,0.26727 0.08909,0.0891 0.210926,0.15458 0.267269,0.26726 0.03984,0.0797 -0.03984,0.18759 0,0.26728 0.556157,1.11231 -0.01844,-0.28572 0.53454,0.26726 0.140864,0.14087 0.156768,0.36879 0.267269,0.53454 0.06989,0.10484 0.178181,0.17818 0.267269,0.26727 0.08909,0.0891 0.15458,0.21093 0.267271,0.26727 0.07968,0.0398 0.187585,-0.0398 0.267269,0 0.263001,0.1315 0.806077,0.93758 1.069078,1.06908 0.07969,0.0398 0.204274,-0.063 0.267269,0 0.063,0.063 -0.063,0.20428 0,0.26727 0.063,0.063 0.187587,-0.0398 0.267269,0 0.112691,0.0564 0.15458,0.21093 0.267271,0.26727 0.07969,0.0398 0.204272,-0.063 0.267269,0 0.063,0.063 -0.063,0.20427 0,0.26727 0.063,0.063 0.187585,-0.0398 0.267269,0 0.225383,0.11269 0.309158,0.42185 0.53454,0.53454 0.07968,0.0398 0.204272,-0.063 0.267269,0 0.063,0.063 -0.063,0.20427 0,0.26727 0.063,0.063 0.187585,-0.0398 0.267269,0 0.142746,0.0714 0.661101,0.6611 0.801809,0.80181 0.08909,0.0891 0.178181,0.17818 0.267269,0.26726 0.08909,0.0891 0.15458,0.21093 0.267272,0.26728 0.07968,0.0398 0.187584,-0.0399 0.267269,0 0.112691,0.0563 0.154577,0.21092 0.267268,0.26727 0.07968,0.0398 0.187585,-0.0399 0.267269,0 0.112692,0.0563 0.178181,0.17818 0.267272,0.26726 0.08909,0.0891 0.210923,0.15458 0.267269,0.26728 0.03984,0.0797 -0.063,0.20427 0,0.26726 0.06299,0.063 0.187584,-0.0398 0.267268,0 0.112692,0.0564 0.178181,0.17818 0.267269,0.26727 0.08909,0.0891 0.210926,0.15458 0.267272,0.26727 0.03984,0.0797 -0.063,0.20428 0,0.26727 0.06299,0.063 0.204271,-0.063 0.267269,0 0.06299,0.063 -0.063,0.20427 0,0.26727 0.06299,0.063 0.204274,-0.063 0.267269,0 0.063,0.063 -0.063,0.20428 0,0.26727 0.063,0.063 0.187584,-0.0398 0.267268,0 0.112692,0.0564 0.178181,0.17818 0.267272,0.26727 0.08909,0.0891 0.210923,0.15458 0.267269,0.26727 0.03984,0.0797 -0.063,0.20427 0,0.26727 0.06299,0.063 0.204274,-0.063 0.267269,0 0.063,0.063 -0.06299,0.20427 0,0.26727 0.063,0.063 0.204274,-0.063 0.267268,0 0.063,0.063 -0.03984,0.18758 0,0.26727 0.112692,0.22538 0.421849,0.30916 0.534541,0.53454 0.03984,0.0797 -0.03984,0.18758 0,0.26727 0.05635,0.11269 0.210923,0.15458 0.267269,0.26727 0.03984,0.0797 -0.063,0.20427 0,0.26727 0.063,0.063 0.204274,-0.063 0.267268,0 0.063,0.063 -0.06299,0.20427 0,0.26727 0.063,0.063 0.204275,-0.063 0.267272,0 0.063,0.063 -0.03984,0.18758 0,0.26727 0.05635,0.11269 0.210923,0.15458 0.267269,0.26726 0.03984,0.0797 -0.063,0.20428 0,0.26728 0.06299,0.063 0.204274,-0.063 0.267269,0 0.063,0.063 -0.03984,0.18758 0,0.26726 0.05634,0.1127 0.210923,0.15458 0.267269,0.26727 0.03984,0.0797 -0.063,0.20428 0,0.26727 0.063,0.063 0.204274,-0.063 0.267271,0 0.063,0.063 -0.03984,0.18759 0,0.26727 0.05635,0.11269 0.210923,0.15458 0.267269,0.26727 0.03984,0.0797 -0.063,0.20428 0,0.26727 0.063,0.063 0.204274,-0.063 0.267269,0 0.063,0.063 0.08909,0.26727 0,0.26727 -0.08909,0 0.063,-0.20427 0,-0.26727 -0.125992,-0.12599 -0.408546,0.12599 -0.534538,0 -0.063,-0.063 0.063,-0.20427 0,-0.26727 -0.125992,-0.12599 -0.408548,0.12599 -0.53454,0 -0.063,-0.063 0.063,-0.20427 0,-0.26727 -0.125992,-0.12599 -0.375172,0.0797 -0.534538,0 -0.112691,-0.0563 -0.15458,-0.21092 -0.267272,-0.26727 -0.07968,-0.0398 -0.187584,0.0399 -0.267268,0 -0.112692,-0.0563 -0.154578,-0.21092 -0.267269,-0.26727 -0.105971,-0.053 -0.74717,0.0546 -0.801809,0 -0.06299,-0.063 0.063,-0.20427 0,-0.26727 -0.125992,-0.12599 -0.408546,0.126 -0.534538,0 -0.063,-0.063 0.063,-0.20427 0,-0.26726 -0.133636,-0.13364 -0.668176,0.13363 -0.801809,0 -0.063,-0.063 0.06299,-0.20428 0,-0.26728 -0.08276,-0.0828 -1.253588,0.0828 -1.336347,0 -0.063,-0.063 0.06299,-0.20427 0,-0.26726 -0.063,-0.063 -0.267272,0.0891 -0.267272,0 0,-0.0891 0.178181,0 0.267272,0 0.178178,0 0.356359,0 0.534537,0 0.08909,0 0.178181,0 0.267269,0 0.08909,0 0.187587,0.0398 0.267272,0 0.112689,-0.0563 0.147741,-0.22743 0.267269,-0.26727 0.169034,-0.0563 0.365503,0.0563 0.534537,0 0.119529,-0.0399 0.147744,-0.22743 0.267272,-0.26727 0.169034,-0.0564 0.365501,0.0563 0.534538,0 0.119525,-0.0399 0.15458,-0.21093 0.267268,-0.26727 0.07969,-0.0398 0.187587,0.0398 0.267272,0 0.112689,-0.0564 0.154577,-0.21093 0.267269,-0.26727 0.07968,-0.0398 0.178178,0 0.267269,0 0.08909,-0.0891 0.15458,-0.21093 0.267268,-0.26727 0.213818,-0.10691 0.587995,0.10691 0.80181,0 0.112691,-0.0564 0.15458,-0.21093 0.267269,-0.26727 0.159369,-0.0797 0.375171,0.0797 0.53454,0 0.112691,-0.0564 0.154577,-0.21093 0.267269,-0.26727 0.159369,-0.0797 0.375171,0.0797 0.53454,0 0.112689,-0.0563 0.141277,-0.26727 0.267269,-0.26727 0.08909,0 0.063,0.20427 0,0.26727 -0.063,0.063 -0.204274,-0.063 -0.267269,0 -0.063,0.063 0.03984,0.18758 0,0.26727 -0.05635,0.11269 -0.210926,0.15458 -0.267271,0.26727 -0.03984,0.0797 0.03984,0.18758 0,0.26727 -0.05634,0.11269 -0.210924,0.15458 -0.267269,0.26727 -0.03984,0.0797 0.03984,0.18758 0,0.26727 -0.112692,0.22538 -0.421849,0.30916 -0.534538,0.53454 -0.03984,0.0797 0,0.17818 0,0.26726 -0.08909,0.0891 -0.210926,0.15458 -0.267271,0.26728 -0.07968,0.15936 0.125991,0.40854 0,0.53453 -0.063,0.063 -0.204272,-0.063 -0.267269,0 -0.063,0.063 0.03984,0.18759 0,0.26727 -0.886421,0.88643 0.125992,-0.25198 -0.267269,0.53454 -0.05635,0.11269 -0.210923,0.15458 -0.267269,0.26727 -0.03984,0.0797 0.08909,0.26727 0,0.26727 -0.08909,0 0,-0.17818 0,-0.26727"
       id="path44"
       inkscape:connector-curvature="0" />
    <path
       style="fill:none;stroke:#000000;stroke-width:0.26458332px;stroke-linecap:butt;stroke-linejoin:miter;stroke-opacity:1"
       d="m 88.198943,140.64733 c 0.548756,-0.21427 -0.470427,-0.93004 -0.267269,-1.33635 0.05635,-0.11269 0.210923,-0.15458 0.267269,-0.26727 0.03984,-0.0797 -0.063,-0.20428 0,-0.26727 0.063,-0.063 0.204274,0.063 0.267269,0 0.063,-0.063 -0.063,-0.20428 0,-0.26727 0.063,-0.063 0.204274,0.063 0.267271,0 0.06299,-0.063 -0.063,-0.20427 0,-0.26727 0.06299,-0.063 0.187585,0.0398 0.267269,0 0.22538,-0.11269 0.309158,-0.42185 0.534538,-0.53454 0.07968,-0.0398 0.204274,0.063 0.267271,0 0.063,-0.063 -0.063,-0.20427 0,-0.26727 0.089,-0.089 0.445538,0.089 0.534538,0 0.063,-0.063 -0.063,-0.20427 0,-0.26727 0.0086,-0.009 0.736989,0 0.801809,0 0.80181,0 1.603616,0 2.405425,0 0.215162,0 0.901327,-0.0559 1.069078,0 0.18899,0.063 0.345551,0.20427 0.534541,0.26727 0.144647,0.0482 0.978024,0 1.069078,0 0.534537,0 1.069078,0 1.603615,0 0.979988,0 1.959978,0 2.939965,0 0.25173,0 1.18431,0.0507 1.33635,0 0.11953,-0.0398 0.15458,-0.21092 0.26727,-0.26727 0.21381,-0.10691 0.58799,0.10691 0.80181,0 0.11269,-0.0564 0.15458,-0.21092 0.26727,-0.26727 0.16798,-0.084 0.90109,0.084 1.06908,0 0.11268,-0.0563 0.15457,-0.21092 0.26726,-0.26727 0.0797,-0.0398 0.18759,0.0398 0.26727,0 0.11269,-0.0563 0.15458,-0.21092 0.26727,-0.26727 0.1419,-0.071 0.39264,0.0709 0.53454,0 0.22538,-0.11269 0.30916,-0.42185 0.53454,-0.53454 0.0797,-0.0398 0.20427,0.063 0.26727,0 0.063,-0.063 -0.063,-0.20427 0,-0.26727 0.063,-0.063 0.18759,0.0399 0.26727,0 0.11269,-0.0563 0.15458,-0.21092 0.26727,-0.26726 0.0797,-0.0399 0.20427,0.063 0.26727,0 0.063,-0.063 -0.063,-0.20428 0,-0.26728 0.063,-0.063 0.20427,0.063 0.26727,0 0.063,-0.063 -0.063,-0.20427 0,-0.26726 0.71272,0 -0.0891,0.0891 0.26727,-0.26727 0.063,-0.063 0.20427,0.063 0.26727,0 0.0393,-0.0393 -0.0314,-0.80181 0,-0.80181 0.0891,0 0,0.17818 0,0.26727 0,0.0648 -0.009,0.79321 0,0.80181 0.063,0.063 0.20427,-0.063 0.26727,0 0.063,0.063 -0.063,0.20427 0,0.26726 0.063,0.063 0.20427,-0.063 0.26727,0 0.063,0.063 -0.063,0.20428 0,0.26728 0.063,0.063 0.20427,-0.063 0.26727,0 0.063,0.063 -0.063,0.20427 0,0.26726 0.063,0.063 0.20427,-0.063 0.26727,0 0.063,0.063 -0.063,0.20428 0,0.26727 0.0894,0.0894 0.44512,-0.0894 0.53454,0 0.063,0.063 -0.0399,0.18759 0,0.26727 0.55615,1.11232 -0.0185,-0.28572 0.53453,0.26727 0.063,0.063 -0.063,0.20427 0,0.26727 0.13364,0.13364 0.66818,-0.13363 0.80181,0 0.063,0.063 -0.063,0.20428 0,0.26727 0.0546,0.0546 0.69584,-0.053 0.80181,0 0.11269,0.0564 0.15458,0.21092 0.26727,0.26727 0.0966,0.0483 1.15045,0 1.33635,0 0.18589,0 1.23969,0.0483 1.33634,0 0.1127,-0.0564 0.15458,-0.21092 0.26728,-0.26727 0.14498,-0.0725 0.99594,0.0731 1.06907,0 0.063,-0.063 -0.063,-0.20427 0,-0.26727 0.063,-0.063 0.17818,0 0.26727,0 0.0891,0 0.17818,0 0.26727,0 0.53454,0 1.06908,0 1.60362,0 0.0891,0 0.17818,0 0.26727,0 0.0891,0 0.18758,0.0398 0.26727,0 0.11269,-0.0563 0.15458,-0.21092 0.26727,-0.26727 0.0797,-0.0398 0.17818,0 0.26727,0 0.0891,0 0.17818,0 0.26727,0 0.0982,0 1.05832,0.0108 1.06907,0 0.063,-0.063 -0.063,-0.20427 0,-0.26727 0.063,-0.063 0.17819,0 0.26727,0 0.18945,0 1.53452,0.0346 1.60362,0 0.11269,-0.0563 0.15458,-0.21092 0.26727,-0.26727 0.0813,-0.0407 0.68144,0 0.80181,0 0.97999,0 1.95998,0 2.93997,0 0.13976,0 0.9988,0.0351 1.06907,0 0.11269,-0.0563 0.15458,-0.21092 0.26727,-0.26727 0.0882,-0.0441 1.32103,-0.008 1.33635,0 0.11269,0.0564 0.15458,0.21093 0.26727,0.26727 0.16798,0.084 0.90109,-0.084 1.06908,0 0.11269,0.0564 0.15458,0.21093 0.26727,0.26727 0.0797,0.0399 0.18758,-0.0398 0.26727,0 0.11269,0.0564 0.15457,0.21093 0.26727,0.26727 0.0797,0.0398 0.20427,-0.063 0.26726,0 0.063,0.063 -0.063,0.20427 0,0.26727 0.063,0.063 0.20428,-0.063 0.26728,0 0.063,0.063 -0.063,0.20428 0,0.26727 0.063,0.063 0.20427,-0.063 0.26726,0 0.063,0.063 -0.063,0.20428 0,0.26727 0.063,0.063 0.20428,-0.063 0.26727,0 0.063,0.063 -0.063,0.20427 0,0.26727 0.063,0.063 0.18759,-0.0398 0.26727,0 0.0512,0.0256 1.0435,1.01792 1.06908,1.06908 0.0398,0.0797 -0.063,0.20427 0,0.26727 0.063,0.063 0.20427,-0.063 0.26727,0 0.063,0.063 0,0.17818 0,0.26727 0,0.0891 0,0.17818 0,0.26727 0,0.0891 0,0.17818 0,0.26727 0,0.0891 0.063,0.20427 0,0.26727 -0.063,0.063 -0.18759,-0.0399 -0.26727,0 -0.11269,0.0563 -0.17818,0.17817 -0.26727,0.26727"
       id="path46"
       inkscape:connector-curvature="0" />
    <path
       style="fill:none;stroke:#000000;stroke-width:0.26458332px;stroke-linecap:butt;stroke-linejoin:miter;stroke-opacity:1"
       d="m 123.74579,122.74027 c -0.35636,0.0891 -0.74053,0.10299 -1.06908,0.26727 -0.0797,0.0398 0.063,0.20427 0,0.26727 -0.063,0.063 -0.18758,-0.0399 -0.26727,0 -0.11269,0.0563 -0.15458,0.21092 -0.26727,0.26726 -0.0797,0.0399 -0.18758,-0.0398 -0.26727,0 -0.11269,0.0564 -0.15457,0.21093 -0.26727,0.26728 -0.15937,0.0797 -0.40854,-0.126 -0.53454,0 -0.063,0.063 0.063,0.20427 0,0.26726 -0.063,0.063 -0.18758,-0.0398 -0.26727,0 -0.11269,0.0563 -0.15457,0.21093 -0.26726,0.26727 -0.0797,0.0399 -0.18759,-0.0398 -0.26727,0 -0.88643,0.88642 0.25198,-0.12599 -0.53454,0.26727 -0.11269,0.0564 -0.15458,0.21093 -0.26727,0.26727 -0.14307,0.0715 -0.39147,-0.0715 -0.53454,0 -0.11269,0.0563 -0.15458,0.21093 -0.26727,0.26727 -0.16799,0.084 -0.9011,-0.084 -1.06908,0 -0.11269,0.0563 -0.15458,0.21093 -0.26727,0.26727 -0.15937,0.0797 -0.37517,-0.0797 -0.53454,0 -0.11269,0.0563 -0.15458,0.21092 -0.26727,0.26727 -0.0797,0.0398 -0.18758,-0.0398 -0.26727,0 -0.11269,0.0564 -0.15458,0.21093 -0.26727,0.26727 -0.0797,0.0398 -0.18758,-0.0398 -0.26727,0 -0.11269,0.0563 -0.15457,0.21092 -0.26727,0.26727 -0.0797,0.0398 -0.18758,-0.0398 -0.26726,0 -0.1127,0.0563 -0.15458,0.21092 -0.26728,0.26727 -0.0797,0.0398 -0.18758,-0.0398 -0.26726,0 -0.1127,0.0564 -0.15458,0.21092 -0.26727,0.26727 -0.0797,0.0398 -0.18759,-0.0398 -0.26727,0 -0.11269,0.0563 -0.15458,0.21092 -0.26727,0.26727 -0.0797,0.0398 -0.18759,-0.0398 -0.26727,0 -0.11269,0.0563 -0.16244,0.19738 -0.26727,0.26727 -0.16576,0.1105 -0.36879,0.15676 -0.53454,0.26727 -0.10483,0.0699 -0.15458,0.21092 -0.26727,0.26727 -0.0797,0.0398 -0.18758,-0.0398 -0.26727,0 -1.11231,0.55615 0.28572,-0.0184 -0.26727,0.53454 -0.063,0.063 -0.18759,-0.0398 -0.26727,0 -0.32072,0.16036 -0.48108,0.64144 -0.80181,0.80181 -0.0797,0.0398 -0.20427,-0.063 -0.26727,0 -0.063,0.063 0.063,0.20427 0,0.26726 -0.063,0.063 -0.20427,-0.063 -0.26727,0 -0.063,0.063 0.063,0.20428 0,0.26727 -0.063,0.063 -0.20427,-0.063 -0.26727,0 -0.063,0.063 0.063,0.20428 0,0.26727 -0.063,0.063 -0.18758,-0.0398 -0.26726,0 -0.1127,0.0564 -0.17819,0.17818 -0.26728,0.26727 -0.0891,0.0891 -0.17817,0.17818 -0.26726,0.26727 -0.0891,0.0891 -0.21093,0.15458 -0.26727,0.26727 -0.0399,0.0797 0.063,0.20428 0,0.26727 -0.063,0.063 -0.20428,-0.063 -0.26727,0 -0.063,0.063 0.0891,0.26727 0,0.26727 -0.0891,0 0,-0.17818 0,-0.26727 0,-0.13976 0.0351,-0.9988 0,-1.06908 -0.0563,-0.11269 -0.21093,-0.15458 -0.26727,-0.26727 -0.084,-0.16798 0.084,-0.90109 0,-1.06907 -0.0399,-0.0797 -0.17818,0 -0.26727,0 0,-0.17818 0.0563,-0.36551 0,-0.53454 -0.0398,-0.11953 -0.21093,-0.15458 -0.26727,-0.26727 -0.0399,-0.0797 -0.0891,-0.26727 0,-0.26727 0.12599,0 0.17818,0.17818 0.26727,0.26727 0.88642,0.88642 -0.25199,-0.126 0.53454,0.26727 0.22538,0.11269 0.30916,0.42184 0.53454,0.53454 0.0797,0.0398 0.18275,-0.0282 0.26726,0 1.93595,0.64531 -0.42137,-0.0771 0.80181,0.53454 0.0797,0.0398 0.17818,0 0.26727,0 0.17818,0.0891 0.36879,0.15676 0.53454,0.26726 0.88642,0.88643 -0.25198,-0.12599 0.53454,0.26727 0.11269,0.0564 0.14774,0.22743 0.26727,0.26727 0.16904,0.0564 0.3655,-0.0563 0.53454,0 0.11953,0.0399 0.15458,0.21093 0.26727,0.26727 0.15937,0.0797 0.40855,-0.12599 0.53454,0 0.063,0.063 -0.063,0.20428 0,0.26727 0.12599,0.12599 0.53454,-0.17818 0.53454,0 0,0.4089 -0.85381,0.26727 -1.06908,0.26727 -0.62679,0 0.12599,-0.063 -0.53454,0.26727 -0.0691,0.0345 -1.41418,0 -1.60362,0 -0.0891,0 -0.17818,0 -0.26727,0 -0.0891,0 -0.20427,-0.063 -0.26727,0 -0.063,0.063 0.063,0.20427 0,0.26727 -0.0827,0.0828 -1.25358,-0.0828 -1.33634,0 -0.063,0.063 0.0262,0.18212 0,0.26727 -0.33141,1.07708 -0.71272,2.13816 -1.06908,3.20724"
       id="path48"
       inkscape:connector-curvature="0" />
    <path
       style="fill:none;stroke:#000000;stroke-width:0.26458332px;stroke-linecap:butt;stroke-linejoin:miter;stroke-opacity:1"
       d="m 145.12735,156.95077 c 0.35636,0 0.71272,0 1.06908,0 0.17818,0 0.35636,0 0.53454,0 0.0891,0 0.18758,0.0398 0.26727,0 0.11269,-0.0564 0.15458,-0.21093 0.26727,-0.26727 0.0228,-0.0114 1.04629,-0.0114 1.06908,0 0.14274,0.0714 0.6611,0.6611 0.8018,0.80181 0.0891,0.0891 0.17819,0.17817 0.26727,0.26726 0.0891,0.0891 0.21093,0.15458 0.26727,0.26727 0.0399,0.0797 -0.0398,0.18759 0,0.26727 0.88643,0.88643 -0.12599,-0.25198 0.26727,0.53454 0.0564,0.11269 0.21093,0.15458 0.26727,0.26727 0.0797,0.15937 -0.0797,0.37517 0,0.53454 0.0564,0.11269 0.21093,0.15458 0.26727,0.26727 0.0398,0.0797 -0.0398,0.18758 0,0.26727 0.0564,0.11269 0.22743,0.14774 0.26727,0.26727 0.0563,0.16904 0,0.35636 0,0.53454 0,0.0891 -0.0398,0.18758 0,0.26727 0.0563,0.11269 0.21093,0.15458 0.26727,0.26727 0.084,0.16798 -0.084,0.90109 0,1.06907 0.0563,0.1127 0.26727,0.14128 0.26727,0.26728 0,0.12599 -0.21092,0.15457 -0.26727,0.26726 -0.10691,0.21382 0.10691,0.588 0,0.80181 -0.0563,0.1127 -0.21092,0.15458 -0.26727,0.26727 -0.0715,0.14307 0.0715,0.39147 0,0.53454 -0.0563,0.11269 -0.21092,0.15458 -0.26727,0.26727 -0.0709,0.1419 0.071,0.39264 0,0.53454 -0.0563,0.11269 -0.21092,0.15458 -0.26727,0.26727 -0.084,0.16799 0.084,0.90109 0,1.06908 -0.0563,0.11269 -0.21092,0.15458 -0.26727,0.26727 -0.0398,0.0797 0,0.17818 0,0.26727 0,0.17818 0.0564,0.3655 0,0.53454 -0.0398,0.11952 -0.21092,0.15457 -0.26727,0.26727 -0.0843,0.16861 0.0843,1.16773 0,1.33634 -0.0563,0.11269 -0.21092,0.15458 -0.26727,0.26727 -0.0407,0.0813 0,0.68144 0,0.80181 0,0.1859 -0.0483,1.2397 0,1.33635 0.0564,0.11269 0.21093,0.15458 0.26727,0.26727 0.0399,0.0797 0,0.17818 0,0.26727 0.0891,0.0891 0.21093,0.15458 0.26727,0.26727 0.0398,0.0797 -0.0398,0.18758 0,0.26727 0.11269,0.22538 0.42185,0.30915 0.53454,0.53454 0.0398,0.0797 -0.063,0.20427 0,0.26727 0.063,0.063 0.18759,-0.0399 0.26727,0 0.22538,0.11269 0.30916,0.42184 0.53454,0.53454 0.0797,0.0398 0.18758,-0.0398 0.26727,0 0.11269,0.0563 0.15458,0.21092 0.26727,0.26726 0.0703,0.0351 0.92932,0 1.06908,0 0.80181,0 1.60361,0 2.40542,0 0.13976,0 0.99881,-0.0351 1.06908,0 0.11269,0.0563 0.15458,0.21093 0.26727,0.26727 0.0691,0.0346 1.41418,0 1.60362,0 0.0891,0 0.20427,0.063 0.26727,0 0.063,-0.063 -0.063,-0.20427 0,-0.26727 0.063,-0.063 0.17818,0 0.26727,0 0.0891,0 0.26727,-0.0891 0.26727,0 0,0.0891 -0.18759,-0.0398 -0.26727,0 -0.11269,0.0563 -0.15458,0.21093 -0.26727,0.26727 -0.1419,0.0709 -0.39264,-0.071 -0.53454,0 -0.11269,0.0564 -0.15458,0.21093 -0.26727,0.26727 -0.0797,0.0399 -0.18759,-0.0398 -0.26727,0 -0.11269,0.0564 -0.15458,0.21093 -0.26727,0.26727 -0.14274,0.0714 -0.3918,-0.0714 -0.53454,0 -0.22538,0.11269 -0.30916,0.42185 -0.53454,0.53454 -0.0797,0.0398 -0.18758,-0.0398 -0.26727,0 -0.32072,0.16036 -0.48108,0.64145 -0.8018,0.80181 -0.0797,0.0398 -0.18759,-0.0398 -0.26728,0 -1.11231,0.55616 0.28572,-0.0184 -0.26727,0.53454 -0.063,0.063 -0.18758,-0.0398 -0.26726,0 -0.59095,0.29547 -0.0829,0.16588 -0.26727,0.53454 -0.10209,0.20416 -0.74148,0.62082 -0.80181,0.80181 -0.0564,0.16903 0.0563,0.3655 0,0.53454 -0.0797,0.23905 -0.42185,0.30915 -0.53454,0.53454 -0.0398,0.0797 0.0398,0.18758 0,0.26726 -0.0563,0.1127 -0.21093,0.15458 -0.26727,0.26727 -0.0398,0.0797 0.0398,0.18759 0,0.26727 -0.0563,0.11269 -0.21092,0.15458 -0.26727,0.26727 -0.0398,0.0797 0.063,0.20428 0,0.26727 -0.063,0.063 -0.20427,-0.063 -0.26727,0 -0.0546,0.0546 0.053,0.69584 0,0.80181 -0.0563,0.11269 -0.21092,0.15458 -0.26727,0.26727 -0.0483,0.0967 0,1.15045 0,1.33635 0,0.0891 0.063,0.20427 0,0.26727 -0.063,0.063 -0.20427,-0.063 -0.26727,0 -0.009,0.009 0,0.73699 0,0.80181 0,0.18589 -0.0483,1.23969 0,1.33635 0.0564,0.11268 0.21092,0.15457 0.26727,0.26726 0.10691,0.21382 -0.10691,0.588 0,0.80181 0.0564,0.11269 0.21093,0.15458 0.26727,0.26727 0.0345,0.0691 0,1.41418 0,1.60362 0,0.62679 -0.063,-0.12599 0.26727,0.53454 0.0274,0.0548 0.0377,0.76411 0,0.80181 -0.063,0.063 -0.20427,-0.063 -0.26727,0 -0.0546,0.0546 0.053,0.69584 0,0.8018 -0.0563,0.1127 -0.21092,0.15458 -0.26727,0.26728 -0.0398,0.0797 0.063,0.20427 0,0.26726 -0.063,0.063 -0.20427,-0.063 -0.26727,0 -0.0643,0.0643 0.0643,1.00477 0,1.06908 -0.063,0.063 -0.20427,-0.063 -0.26727,0 -0.0546,0.0546 0.053,0.69584 0,0.80181 -0.0563,0.11269 -0.21092,0.15458 -0.26727,0.26727 -0.0398,0.0797 0.0398,0.18758 0,0.26727 -0.0563,0.11269 -0.21092,0.15458 -0.26727,0.26727 -0.0398,0.0797 0.063,0.20427 0,0.26727 -0.063,0.063 -0.17818,0 -0.26727,0 -0.71272,0 -1.42543,0 -2.13815,0 -0.0891,0 -0.17818,0 -0.26727,0 -0.0891,0 -0.20428,-0.063 -0.26727,0 -0.063,0.063 0.063,0.20427 0,0.26727 -0.0546,0.0546 -0.69584,-0.053 -0.80181,0 -0.11269,0.0563 -0.15458,0.21092 -0.26727,0.26727 -0.0797,0.0398 -0.20427,-0.063 -0.26727,0 -0.35636,0.35636 0.44545,0.26727 -0.26727,0.26727"
       id="path50"
       inkscape:connector-curvature="0" />
    <path
       style="fill:none;stroke:#000000;stroke-width:0.26458332px;stroke-linecap:butt;stroke-linejoin:miter;stroke-opacity:1"
       d="m 86.862596,203.45566 c 0,0.0891 -0.08909,0.26727 0,0.26727 0.08909,0 0.03984,-0.18757 0,-0.26727 -0.05635,-0.11269 -0.210931,-0.15458 -0.267271,-0.26727 -0.03984,-0.0797 0.03984,-0.18757 0,-0.26727 -0.05634,-0.11269 -0.210929,-0.15458 -0.267269,-0.26726 -0.07968,-0.15937 0.125992,-0.40855 0,-0.53455 -0.063,-0.063 -0.204269,0.063 -0.267269,0 -0.125992,-0.12599 0.07968,-0.37517 0,-0.53453 -0.05635,-0.11269 -0.210919,-0.15458 -0.267269,-0.26727 -0.03984,-0.0797 0.03984,-0.18757 0,-0.26727 -0.05635,-0.11269 -0.210921,-0.15458 -0.267271,-0.26727 -0.07968,-0.15937 0.125992,-0.40855 0,-0.53454 -0.063,-0.063 -0.204269,0.063 -0.267269,0 -0.125992,-0.12599 0.07968,-0.37517 0,-0.53454 -0.05635,-0.11269 -0.210919,-0.15458 -0.267269,-0.26727 -0.03984,-0.0797 0.03984,-0.18757 0,-0.26727 -0.05635,-0.11269 -0.210919,-0.15458 -0.267269,-0.26727 -0.03984,-0.0797 0.03984,-0.18757 0,-0.26727 -0.330261,-0.66053 -0.267271,0.0923 -0.267271,-0.53454 0,-0.27649 0.063,-0.3694 -0.267269,-0.53454 -0.07968,-0.0398 -0.204279,0.063 -0.267269,0 -0.063,-0.063 0.06299,-0.20427 0,-0.26727 -0.063,-0.063 -0.204269,0.063 -0.267269,0 -0.063,-0.063 0.063,-0.20427 0,-0.26727 -0.063,-0.063 -0.187592,0.0399 -0.267272,0 -0.142742,-0.0714 -0.661098,-0.6611 -0.801806,-0.8018 -0.267272,-0.26727 -0.53454,-0.53454 -0.801809,-0.80181 -0.08909,-0.0891 -0.197379,-0.16244 -0.267269,-0.26727 -0.110503,-0.16575 -0.156768,-0.36879 -0.267272,-0.53454 -0.262186,-0.39328 -0.806889,-0.6758 -1.069078,-1.06908 -0.1105,-0.16575 -0.164774,-0.36372 -0.267269,-0.53454 -0.165264,-0.27544 -0.369273,-0.52636 -0.534537,-0.80181 -0.102495,-0.17082 -0.147744,-0.37517 -0.267272,-0.53454 -0.151191,-0.20158 -0.404894,-0.31846 -0.534537,-0.53453 -0.144947,-0.24159 -0.122323,-0.56024 -0.267269,-0.80181 -0.129646,-0.21608 -0.38335,-0.33296 -0.534541,-0.53454 -0.119525,-0.15937 -0.147743,-0.37517 -0.267268,-0.53454 -0.151191,-0.20159 -0.38335,-0.33295 -0.534541,-0.53454 -0.119525,-0.15937 -0.147743,-0.37517 -0.267269,-0.53454 -0.226785,-0.30238 -0.592145,-0.48731 -0.801809,-0.80181 -0.1105,-0.16575 -0.156765,-0.36878 -0.267269,-0.53454 -0.166743,-0.25011 -0.897908,-0.89791 -1.069078,-1.06907 -0.08909,-0.0891 -0.197379,-0.16244 -0.267269,-0.26728 -0.110503,-0.16575 -0.156768,-0.36878 -0.267268,-0.53453 -0.262189,-0.39328 -0.806892,-0.6758 -1.069081,-1.06908 -0.110501,-0.16576 -0.126405,-0.39368 -0.267269,-0.53454 -0.063,-0.063 -0.213819,0.0713 -0.267269,0 -0.239054,-0.31874 -0.356359,-0.71272 -0.53454,-1.06908 1.195272,0.25237 -0.239052,1.12551 2e-6,1.60362 0.05634,0.11269 0.210924,0.15458 0.267269,0.26727 0.08399,0.16798 -0.08399,0.90109 0,1.06908 0.05635,0.11269 0.210925,0.15458 0.26727,0.26727 0.03984,0.0797 0,0.17818 0,0.26727 0,0.0891 0,0.17818 0,0.26727 0,0.53454 0,1.06907 0,1.60361 0,0.26727 0,0.53454 0,0.80181 0,0.0891 -0.08909,0.26727 0,0.26727 0.01719,0 0.736989,-0.73699 0.801809,-0.80181 0.157193,-0.15719 0.945311,-1.00719 1.069078,-1.06908 0.36866,-0.18433 0.239065,0.32368 0.534539,-0.26726 0.03984,-0.0797 -0.03984,-0.18759 0,-0.26727 0.1315,-0.26301 0.937577,-0.80608 1.069078,-1.06908 0.07968,-0.15937 -0.125992,-0.40855 0,-0.53454 0.063,-0.063 0.204273,0.063 0.267269,0 0.063,-0.063 -0.063,-0.20428 0,-0.26727 0.063,-0.063 0.204274,0.063 0.26727,0 0.063,-0.063 -0.03984,-0.18759 0,-0.26727 0.05634,-0.11269 0.210924,-0.15458 0.267269,-0.26727 0.03984,-0.0797 -0.03984,-0.18759 0,-0.26727 0.03479,-0.0696 0.476201,-0.32561 0.26727,-0.53454 -0.063,-0.063 -0.17818,0 -0.26727,0 -0.08909,0 -0.187585,-0.0398 -0.267269,0 -0.112691,0.0564 -0.154579,0.21093 -0.26727,0.26727 -0.08134,0.0407 -0.681441,0 -0.801808,0 -0.189441,0 -1.534515,0.0345 -1.603617,0 -0.112691,-0.0563 -0.154579,-0.21092 -0.26727,-0.26727 -0.07968,-0.0398 -0.17818,0 -0.267269,0 -0.08909,0 -0.17818,0 -0.26727,0 -0.327108,0 -1.065199,0.0116 -1.069078,0 -0.08452,-0.25355 -1e-6,-0.53454 -2e-6,-0.80181"
       id="path52"
       inkscape:connector-curvature="0" />
  </g>
</svg>
