<?xml version="1.0" encoding="UTF-8" standalone="no"?>
<!-- Created with Inkscape (http://www.inkscape.org/) -->

<svg
   xmlns:dc="http://purl.org/dc/elements/1.1/"
   xmlns:cc="http://creativecommons.org/ns#"
   xmlns:rdf="http://www.w3.org/1999/02/22-rdf-syntax-ns#"
   xmlns:svg="http://www.w3.org/2000/svg"
   xmlns="http://www.w3.org/2000/svg"
   xmlns:sodipodi="http://sodipodi.sourceforge.net/DTD/sodipodi-0.dtd"
   xmlns:inkscape="http://www.inkscape.org/namespaces/inkscape"
   width="297mm"
   height="210mm"
   viewBox="0 0 297 210"
   version="1.1"
   id="svg8"
   inkscape:version="0.92.1 r15371"
   sodipodi:docname="BalNaarRechtsVariable.svg">
  <defs
     id="defs2" />
  <sodipodi:namedview
     id="base"
     pagecolor="#ffffff"
     bordercolor="#666666"
     borderopacity="1.0"
     inkscape:pageopacity="0.0"
     inkscape:pageshadow="2"
     inkscape:zoom="1.4"
     inkscape:cx="478.30217"
     inkscape:cy="377.53589"
     inkscape:document-units="mm"
     inkscape:current-layer="layer1"
     showgrid="false"
     inkscape:window-width="1920"
     inkscape:window-height="1029"
     inkscape:window-x="0"
     inkscape:window-y="0"
     inkscape:window-maximized="1" />
  <metadata
     id="metadata5">
    <rdf:RDF>
      <cc:Work
         rdf:about="">
        <dc:format>image/svg+xml</dc:format>
        <dc:type
           rdf:resource="http://purl.org/dc/dcmitype/StillImage" />
        <dc:title></dc:title>
      </cc:Work>
    </rdf:RDF>
  </metadata>
  <g
     inkscape:label="Layer 1"
     inkscape:groupmode="layer"
     id="layer1"
     transform="translate(0,-87)">
    <text
       xml:space="preserve"
       style="font-style:normal;font-weight:normal;font-size:10.58333302px;line-height:1.25;font-family:sans-serif;letter-spacing:0px;word-spacing:0px;fill:#000000;fill-opacity:1;stroke:none;stroke-width:0.26458332"
       x="96.950897"
       y="197.78127"
       id="text12"><tspan
         sodipodi:role="line"
         id="tspan10"
         x="96.950897"
         y="197.78127"
         style="stroke-width:0.26458332">float x = 50;</tspan></text>
    <text
       xml:space="preserve"
       style="font-style:normal;font-weight:normal;font-size:10.58333302px;line-height:1.25;font-family:sans-serif;letter-spacing:0px;word-spacing:0px;fill:#000000;fill-opacity:1;stroke:none;stroke-width:0.26458332"
       x="-3.0238109"
       y="244.4613"
       id="text16"><tspan
         sodipodi:role="line"
         id="tspan14"
         x="-3.0238109"
         y="253.82507"
         style="stroke-width:0.26458332"></tspan></text>
    <text
       xml:space="preserve"
       style="font-style:normal;font-weight:normal;font-size:10.58333302px;line-height:1.25;font-family:sans-serif;letter-spacing:0px;word-spacing:0px;fill:#000000;fill-opacity:1;stroke:none;stroke-width:0.26458332"
       x="15.497024"
       y="172.26785"
       id="text38"><tspan
         sodipodi:role="line"
         x="15.497024"
         y="172.26785"
         style="stroke-width:0.26458332"
         id="tspan40">komma getal</tspan></text>
    <text
       xml:space="preserve"
       style="font-style:normal;font-weight:normal;font-size:10.58333302px;line-height:1.25;font-family:sans-serif;letter-spacing:0px;word-spacing:0px;fill:#000000;fill-opacity:1;stroke:none;stroke-width:0.26458332"
       x="106.21132"
       y="231.9881"
       id="text46"><tspan
         sodipodi:role="line"
         id="tspan44"
         x="106.21132"
         y="231.9881"
         style="stroke-width:0.26458332">naam</tspan></text>
    <text
       xml:space="preserve"
       style="font-style:normal;font-weight:normal;font-size:10.58333302px;line-height:1.25;font-family:sans-serif;letter-spacing:0px;word-spacing:0px;fill:#000000;fill-opacity:1;stroke:none;stroke-width:0.26458332"
       x="130.40179"
       y="158.28273"
       id="text50"><tspan
         sodipodi:role="line"
         id="tspan48"
         x="130.40179"
         y="158.28273"
         style="stroke-width:0.26458332">is vanaf nu</tspan></text>
    <text
       xml:space="preserve"
       style="font-style:normal;font-weight:normal;font-size:10.58333302px;line-height:1.25;font-family:sans-serif;letter-spacing:0px;word-spacing:0px;fill:#000000;fill-opacity:1;stroke:none;stroke-width:0.26458332"
       x="137.96129"
       y="256.55655"
       id="text54"><tspan
         sodipodi:role="line"
         id="tspan52"
         x="137.96129"
         y="256.55655"
         style="stroke-width:0.26458332">beginwaarde</tspan></text>
    <text
       xml:space="preserve"
       style="font-style:normal;font-weight:normal;font-size:10.58333302px;line-height:1.25;font-family:sans-serif;letter-spacing:0px;word-spacing:0px;fill:#000000;fill-opacity:1;stroke:none;stroke-width:0.26458332"
       x="178.40477"
       y="213.46725"
       id="text58"><tspan
         sodipodi:role="line"
         id="tspan56"
         x="178.40477"
         y="213.46725"
         style="stroke-width:0.26458332">eind van de zin</tspan></text>
    <path
       style="fill:none;stroke:#000000;stroke-width:0.26458332px;stroke-linecap:butt;stroke-linejoin:miter;stroke-opacity:1"
       d="m 87.12351,174.72471 c 0.558215,-0.0441 0.609317,0.5322 0.944941,0.75595 0.117205,0.0781 0.26077,0.11085 0.377975,0.18899 0.07413,0.0494 0.114861,0.13957 0.18899,0.18898 0.117205,0.0781 0.26077,0.11086 0.377975,0.18899 0.278091,0.1854 0.477862,0.57056 0.755952,0.75595 0.117208,0.0781 0.260771,0.11086 0.377978,0.18899 0.07413,0.0494 0.125992,0.126 0.188987,0.18899 0.125992,0.12599 0.251984,0.25198 0.377976,0.37798 0.377976,0.37797 0.755954,0.75595 1.13393,1.13393 0.09949,0.0995 0.516496,0.46603 0.566962,0.56696 0.130342,0.26068 -0.228872,0.16904 0.18899,0.37798 0.05634,0.0282 0.132643,-0.0282 0.188989,0 0.07968,0.0398 0.109302,0.14914 0.188986,0.18898 0.05635,0.0282 0.144444,-0.0445 0.18899,0 0.04454,0.0445 -0.04455,0.14445 0,0.18899 0.04454,0.0446 0.13264,-0.0282 0.188986,0 0.07968,0.0398 0.109305,0.14915 0.188989,0.18899 0.05635,0.0282 0.132644,-0.0282 0.188987,0 0.18597,0.093 0.569984,0.66297 0.755954,0.75595 0.05635,0.0282 0.132641,-0.0282 0.188987,0 0.159369,0.0797 0.218609,0.2983 0.377976,0.37798 0.05635,0.0282 0.144444,-0.0446 0.188989,0 0.04454,0.0445 -0.04454,0.14444 0,0.18899 0.08909,0.0891 0.288885,-0.0891 0.377976,0 0.04454,0.0445 -0.04455,0.14444 0,0.18899 0.04454,0.0445 0.144444,-0.0446 0.188989,0 0.391022,0.39102 -0.597535,-0.0153 0.188986,0.37797 0.05635,0.0282 0.144444,-0.0445 0.18899,0 0.391022,0.39102 -0.597535,-0.0153 0.188986,0.37798 0.05635,0.0282 0.144444,-0.0445 0.188989,0 0.04455,0.0445 -0.04454,0.14444 0,0.18899 0.04455,0.0445 0.144444,-0.0445 0.18899,0 0.04454,0.0445 -0.04455,0.14444 0,0.18898 0.04454,0.0445 0.144441,-0.0445 0.188986,0 0.04455,0.0445 -0.02817,0.13265 0,0.18899 0.113393,0.22679 0.453573,0.34018 0.566965,0.56697 0.02817,0.0563 -0.04454,0.14444 0,0.18898 0.391023,0.39103 -0.01529,-0.59753 0.377976,0.18899 0.02817,0.0564 -0.02817,0.13264 0,0.18899 0.03984,0.0797 0.149146,0.1093 0.188989,0.18899 0.02817,0.0563 -0.04454,0.14444 0,0.18899 0.04454,0.0445 0.144442,-0.0445 0.188987,0 0.04454,0.0445 -0.02817,0.13264 0,0.18898 0.03984,0.0797 0.149146,0.10931 0.188989,0.18899 0.02817,0.0564 -0.02817,0.13264 0,0.18899 0.07534,0.15068 0.302638,0.2273 0.377976,0.37798 0.02817,0.0563 -0.02817,0.13264 0,0.18899 0.07968,0.15936 0.298291,0.2186 0.377976,0.37797 0.02817,0.0564 -0.02817,0.13264 0,0.18899 0.208931,0.41786 0.117295,0.0587 0.377976,0.18899 0.07968,0.0398 0.109304,0.14914 0.188989,0.18899 0.05635,0.0282 0.144441,-0.0445 0.188986,0 0.04455,0.0445 0.04455,0.14444 0,0.18898 -0.04454,0.0445 -0.125992,0 -0.188986,0 -0.063,0 -0.125992,0 -0.188989,0 -0.131448,0 -0.876597,0.0342 -0.944941,0 -0.467067,-0.23353 0.06523,-0.18898 -0.377976,-0.18898 -0.063,0 -0.125992,0 -0.188987,0 -0.063,0 -0.144444,0.0445 -0.188989,0 -0.04454,-0.0445 0.04454,-0.14445 0,-0.18899 -0.08909,-0.0891 -0.265284,0.0563 -0.377976,0 -0.07968,-0.0398 -0.109304,-0.14915 -0.188989,-0.18899 -0.102523,-0.0513 -0.704241,0.0517 -0.755952,0 -0.04454,-0.0445 0.04455,-0.14444 0,-0.18899 -0.04454,-0.0445 -0.188989,0.063 -0.188989,0 0,-0.31339 0.265033,-0.13252 0.377979,-0.18899 0.07968,-0.0398 0.125992,-0.12599 0.188986,-0.18898 0.188989,-0.18899 0.377976,-0.37798 0.566965,-0.56697 0.125992,-0.12599 0.229722,-0.27914 0.377976,-0.37798 0.117205,-0.0781 0.260771,-0.11085 0.377976,-0.18898 0.07413,-0.0494 0.109305,-0.14915 0.188989,-0.18899 0.05635,-0.0282 0.144441,0.0445 0.188987,0 0.04454,-0.0446 -0.02817,-0.13264 0,-0.18899 0.03984,-0.0797 0.125992,-0.12599 0.188989,-0.18899 0.063,-0.063 0.109305,-0.14914 0.188987,-0.18899 0.05635,-0.0282 0.132643,0.0282 0.188989,0 0.07968,-0.0398 0.109304,-0.14914 0.188989,-0.18898 0.07493,-0.0375 0.528328,0.0386 0.566962,0 0.04455,-0.0445 -0.04454,-0.14445 0,-0.18899 0.04455,-0.0445 0.18899,-0.063 0.18899,0 0,0.0891 -0.14915,0.1093 -0.18899,0.18899 -0.02876,0.0575 0,0.48185 0,0.56696 0,0.50397 0,1.00794 0,1.51191 0,0.063 0,0.12599 0,0.18898 0,0.063 0.02817,0.13265 0,0.18899 -0.233531,0.46707 -0.188986,-0.0652 -0.188986,0.37798"
       id="path60"
       inkscape:connector-curvature="0" />
    <path
       style="fill:none;stroke:#000000;stroke-width:0.26458332px;stroke-linecap:butt;stroke-linejoin:miter;stroke-opacity:1"
       d="m 124.35417,221.97173 c -0.79657,-0.15151 -0.0453,-0.65764 -0.18899,-0.94494 -0.0399,-0.0797 -0.14915,-0.10931 -0.18899,-0.18899 -0.0282,-0.0563 0,-0.12599 0,-0.18899 0,-0.063 0,-0.12599 0,-0.18899 0,-0.31498 0,-0.62996 0,-0.94494 0,-0.56696 0,-1.13392 0,-1.70089 0,-0.16001 -0.0339,-0.65435 0,-0.75595 0.0282,-0.0845 0.14914,-0.10931 0.18899,-0.18899 0.0212,-0.0424 0,-0.71104 0,-0.75595 0,-0.56697 0,-1.13393 0,-1.70089 0,-0.0449 -0.0212,-0.7136 0,-0.75596 0.0398,-0.0797 0.14914,-0.1093 0.18899,-0.18898 0.0282,-0.0564 0,-0.126 0,-0.18899 0,-0.0855 -0.0252,-1.08357 0,-1.13393 0.0398,-0.0797 0.16081,-0.10447 0.18898,-0.18899 0.0583,-0.17477 -0.0622,-1.00942 0,-1.13393 0.0399,-0.0797 0.16082,-0.10447 0.18899,-0.18899 0.0493,-0.14775 -0.052,-1.02993 0,-1.13392 0.0398,-0.0797 0.14915,-0.10931 0.18899,-0.18899 0.0563,-0.11269 -0.0398,-0.25845 0,-0.37798 0.0446,-0.13363 0.14444,-0.24434 0.18899,-0.37798 0.0598,-0.17929 -0.0458,-0.38362 0,-0.56696 0.0342,-0.13666 0.15482,-0.24132 0.18899,-0.37798 0.0402,-0.16087 -0.0542,-0.83644 0,-0.94494 0.0398,-0.0797 0.16081,-0.10447 0.18898,-0.18898 0.0399,-0.11953 0,-0.25199 0,-0.37798 0,-0.063 -0.0282,-0.13264 0,-0.18899 0.0399,-0.0797 0.14915,-0.1093 0.18899,-0.18899 0.0563,-0.11269 -0.0398,-0.25845 0,-0.37797 0.0446,-0.13364 0.14445,-0.24434 0.18899,-0.37798 0.0559,-0.16771 -0.0619,-0.82119 0,-0.94494 0.0398,-0.0797 0.14915,-0.1093 0.18899,-0.18899 0.0756,-0.15119 -0.0756,-0.41577 0,-0.56696 0.0398,-0.0797 0.14914,-0.10931 0.18899,-0.18899 0.0563,-0.11269 -0.0891,-0.28889 0,-0.37798 0.0445,-0.0445 0.14444,0.0445 0.18898,0 0.0446,-0.0445 -0.0282,-0.13264 0,-0.18898 0.0399,-0.0797 0.14915,-0.10931 0.18899,-0.18899 0.0594,-0.11879 -0.0594,-0.63717 0,-0.75595 0.0398,-0.0797 0.14915,-0.10931 0.18899,-0.18899 0.0563,-0.11269 -0.0563,-0.26529 0,-0.37798 0.0398,-0.0797 0.14915,-0.1093 0.18899,-0.18899 0.0375,-0.0749 -0.0386,-0.52832 0,-0.56696 0.0445,-0.0446 0.14444,0.0445 0.18899,0 0.0189,-0.0189 0.0189,-0.54807 0,-0.56697 -0.0446,-0.0445 -0.12599,0 -0.18899,0 -0.063,0 -0.14445,-0.0445 -0.18899,0 -0.0445,0.0445 0.0445,0.14445 0,0.18899 -0.0445,0.0446 -0.13264,-0.0282 -0.18899,0 -0.78652,0.39326 0.20204,-0.013 -0.18899,0.37798 -0.39102,0.39102 0.0153,-0.59754 -0.37797,0.18899 -0.0282,0.0563 0.0282,0.13264 0,0.18898 -0.0398,0.0797 -0.14915,0.10931 -0.18899,0.18899 -0.0282,0.0564 0.0282,0.13264 0,0.18899 -0.0398,0.0797 -0.14914,0.1093 -0.18899,0.18899 -0.0282,0.0563 0,0.12599 0,0.18899 -0.063,0.063 -0.14914,0.1093 -0.18899,0.18899 -0.0563,0.11269 0.0891,0.28888 0,0.37797 -0.0445,0.0446 -0.14444,-0.0445 -0.18898,0 -0.0446,0.0446 0.0282,0.13264 0,0.18899 -0.0399,0.0797 -0.14915,0.1093 -0.18899,0.18899 -0.0282,0.0563 0.0445,0.14444 0,0.18899 -0.0446,0.0445 -0.14444,-0.0445 -0.18899,0 -0.0446,0.0445 0,0.12599 0,0.18898 0,0.063 -0.0446,0.14445 0,0.18899 0.008,0.008 0.68655,0 0.75595,0 0.62996,0 1.25992,0 1.88988,0 0.063,0 0.126,0 0.18899,0 0.063,0 0.14444,0.0446 0.18899,0 0.25198,-0.25198 -0.31498,-0.18899 0.18899,-0.18899 0.25198,0 0.50397,0 0.75595,0 0.063,0 0.18899,-0.063 0.18899,0 0,0.063 -0.14444,0.0445 -0.18899,0 -0.0446,-0.0445 0.0282,-0.13264 0,-0.18898 -0.0398,-0.0797 -0.14915,-0.10931 -0.18899,-0.18899 -0.0282,-0.0564 0.0446,-0.14444 0,-0.18899 -0.0445,-0.0445 -0.14444,0.0445 -0.18899,0 -0.0445,-0.0445 0.0446,-0.14444 0,-0.18899 -0.0445,-0.0445 -0.14444,0.0446 -0.18898,0 -0.0446,-0.0445 0.0445,-0.14444 0,-0.18899 -0.0446,-0.0445 -0.14445,0.0445 -0.18899,0 -0.0445,-0.0445 0.0282,-0.13264 0,-0.18898 -0.0399,-0.0797 -0.14915,-0.10931 -0.18899,-0.18899 -0.0282,-0.0564 0.0445,-0.14445 0,-0.18899 -0.0446,-0.0446 -0.14444,0.0445 -0.18899,0 -0.0446,-0.0446 0.0446,-0.14444 0,-0.18899 -0.0446,-0.0445 -0.14444,0.0446 -0.18899,0 -0.0445,-0.0445 0.0282,-0.13264 0,-0.18899 -0.0398,-0.0797 -0.14914,-0.1093 -0.18899,-0.18899 -0.0282,-0.0563 0.0282,-0.13264 0,-0.18898 -0.0398,-0.0797 -0.14914,-0.10931 -0.18898,-0.18899 -0.0288,-0.0575 0,-0.48185 0,-0.56697"
       id="path62"
       inkscape:connector-curvature="0" />
    <path
       style="fill:none;stroke:#000000;stroke-width:0.26458332px;stroke-linecap:butt;stroke-linejoin:miter;stroke-opacity:1"
       d="m 152.51339,161.30655 c -0.31498,0.18899 -0.62996,0.37798 -0.94494,0.56697 -0.063,0.063 -0.11486,0.13957 -0.18899,0.18899 -0.1172,0.0781 -0.26528,0.10446 -0.37797,0.18898 -0.23287,0.17466 -0.51536,0.59556 -0.75596,0.75595 -0.1172,0.0781 -0.26077,0.11086 -0.37797,0.18899 -0.14826,0.0988 -0.25199,0.25199 -0.37798,0.37798 -0.31498,0.31498 -0.62996,0.62996 -0.94494,0.94494 -0.25198,0.25198 -0.50397,0.50397 -0.75595,0.75595 -0.12599,0.12599 -0.27914,0.22972 -0.37798,0.37798 -0.0781,0.1172 -0.11085,0.26077 -0.18899,0.37797 -0.0988,0.14826 -0.29829,0.21861 -0.37797,0.37798 -0.0282,0.0563 0.0282,0.13264 0,0.18899 -0.0797,0.15937 -0.27914,0.22972 -0.37798,0.37797 -0.0781,0.11721 -0.11085,0.26077 -0.18899,0.37798 -0.0988,0.14826 -0.27913,0.22972 -0.37797,0.37798 -0.0781,0.1172 -0.0894,0.27837 -0.18899,0.37797 -0.0996,0.0996 -0.27837,0.0894 -0.37798,0.18899 -0.0996,0.0996 -0.11085,0.26077 -0.18898,0.37798 -0.0988,0.14825 -0.27915,0.22972 -0.37798,0.37797 -0.0781,0.11721 -0.11085,0.26077 -0.18899,0.37798 -0.0988,0.14825 -0.32163,0.20894 -0.37798,0.37798 -0.0398,0.11952 0.0399,0.25845 0,0.37797 -0.0282,0.0845 -0.14914,0.10931 -0.18898,0.18899 -0.0282,0.0563 0,0.12599 0,0.18899 -0.063,0.12599 -0.11085,0.26077 -0.18899,0.37797 -0.0494,0.0741 -0.16082,0.10447 -0.18899,0.18899 -0.0398,0.11953 0,0.25199 0,0.37798 0,0.063 0.0282,0.13264 0,0.18899 -0.0398,0.0797 -0.12599,0.12599 -0.18899,0.18898 0,0.126 0.0398,0.25845 0,0.37798 -0.0282,0.0845 -0.14914,0.1093 -0.18899,0.18899 -0.0282,0.0563 0.0199,0.12922 0,0.18899 -0.4563,1.36892 0.0545,-0.29796 -0.37797,0.56696 -0.0282,0.0564 0.0282,0.13264 0,0.18899 -0.0797,0.15937 -0.32163,0.20894 -0.37798,0.37798 -0.0398,0.11952 0.0398,0.25845 0,0.37797 -0.0563,0.16904 -0.29829,0.21861 -0.37797,0.37798 -0.0282,0.0563 0,0.12599 0,0.18899 -0.063,0.12599 -0.11086,0.26077 -0.18899,0.37797 -0.0494,0.0741 -0.16082,0.10447 -0.18899,0.18899 -0.0398,0.11953 0.0398,0.25845 0,0.37798 -0.0282,0.0845 -0.16082,0.10447 -0.18899,0.18898 -0.0398,0.11953 0.0399,0.25845 0,0.37798 -0.0282,0.0845 -0.16081,0.10447 -0.18899,0.18899 -0.0398,0.11952 0.0306,0.25575 0,0.37797 -0.0342,0.13666 -0.15482,0.24132 -0.18898,0.37798 -0.0306,0.12223 0.0398,0.25845 0,0.37798 -0.0282,0.0845 -0.16082,0.10447 -0.18899,0.18899 -0.0398,0.11952 0.0306,0.25574 0,0.37797 -0.0342,0.13666 -0.14444,0.24434 -0.18899,0.37798 -0.0199,0.0598 0.0282,0.13264 0,0.18899 -0.0398,0.0797 -0.13957,0.11486 -0.18899,0.18898 -0.063,0.12599 -0.12599,0.25199 -0.18899,0.37798 0,0.063 0.0282,0.13264 0,0.18899 -0.0398,0.0797 -0.14914,0.1093 -0.18899,0.18899 -0.0563,0.11269 0.0563,0.26528 0,0.37797 -0.0398,0.0797 -0.14914,0.10931 -0.18898,0.18899 -0.0756,0.15119 0.0756,0.41577 0,0.56696 -0.0399,0.0797 -0.14915,0.10931 -0.18899,0.18899 -0.0564,0.11269 0.0398,0.25845 0,0.37798 -0.0446,0.13363 -0.14444,0.24434 -0.18899,0.37798 -0.0199,0.0598 0.0282,0.13264 0,0.18898 -0.0398,0.0797 -0.14915,0.10931 -0.18899,0.18899 -0.0504,0.1008 0.0504,0.27718 0,0.37798 -0.0398,0.0797 -0.14914,0.1093 -0.18899,0.18899 -0.0756,0.15119 0.0756,0.41577 0,0.56696 -0.0398,0.0797 -0.14914,0.1093 -0.18898,0.18899 -0.0288,0.0575 0,0.48185 0,0.56696 0,0.0851 0.0288,0.50945 0,0.56697 -0.0399,0.0797 -0.14915,0.1093 -0.18899,0.18898 -0.0564,0.1127 0.0563,0.26529 0,0.37798 -0.0398,0.0797 -0.14915,0.10931 -0.18899,0.18899 -0.0282,0.0563 0,0.12599 0,0.18899 -0.063,0.063 -0.14915,0.1093 -0.18899,0.18899 -0.0563,0.11269 0.0891,0.28888 0,0.37797 -0.0445,0.0446 -0.14444,-0.0445 -0.18899,0 -0.0455,0.0455 0.0455,0.71048 0,0.75595 -0.0445,0.0445 -0.14444,-0.0445 -0.18898,0 -0.0891,0.0891 0.0563,0.26529 0,0.37798 -0.0399,0.0797 -0.14915,0.1093 -0.18899,0.18899 -0.0504,0.1008 0.0504,0.27718 0,0.37797 -0.0398,0.0797 -0.14915,0.10931 -0.18899,0.18899 -0.0653,0.13054 0.0663,0.8786 0,0.94494 -0.0445,0.0446 -0.14444,-0.0445 -0.18899,0 -0.0445,0.0446 0,0.126 0,0.18899 0,0.063 0,0.12599 0,0.18899 0,0.13396 0.0244,1.08506 0,1.13393 -0.0398,0.0797 -0.14914,0.1093 -0.18899,0.18899 -0.0282,0.0563 0,0.12599 0,0.18898 0,0.063 0,0.12599 0,0.18899 0,0.11295 0.0445,0.37798 -0.18898,0.37798 -0.063,0 0,-0.12599 0,-0.18899 0,-0.063 0,-0.12599 0,-0.18899 0,-0.37797 0,-0.75595 0,-1.13393 0,-0.063 0.0445,-0.14444 0,-0.18898 -0.0446,-0.0446 -0.16082,0.0563 -0.18899,0 -0.0564,-0.1127 0,-0.25199 0,-0.37798 0,-0.12599 0,-0.25198 0,-0.37798 0,-0.44321 0.0445,0.0891 -0.18899,-0.37797 -0.0756,-0.15119 0.0756,-0.41578 0,-0.56697 -0.0398,-0.0797 -0.14915,-0.1093 -0.18899,-0.18899 -0.0563,-0.11269 0.0891,-0.28888 0,-0.37797 -0.25198,-0.25199 -0.18899,0.31498 -0.18899,-0.18899 0,-0.063 0,-0.12599 0,-0.18899 0,-0.063 -0.0445,-0.14444 0,-0.18899 0.0446,-0.0445 0.126,0 0.18899,0 0.063,0 0.12599,0 0.18899,0 0.178,0 0.83743,-0.0358 0.94494,0 0.0845,0.0282 0.1093,0.14915 0.18899,0.18899 0.0575,0.0288 0.48185,0 0.56696,0 0.44098,0 0.88195,0 1.32292,0 0.063,0 0.14444,-0.0445 0.18899,0 0.25198,0.25199 -0.31498,0.18899 0.18898,0.18899 0.063,0 0.18899,-0.063 0.18899,0 0,0.39326 -0.26503,0.076 -0.37797,0.18899 -0.0445,0.0445 0.0445,0.14444 0,0.18899 -0.0445,0.0445 -0.14445,-0.0445 -0.18899,0 -0.0446,0.0445 0.0445,0.14444 0,0.18898 -0.39102,0.39103 0.0153,-0.59753 -0.37798,0.18899 -0.0282,0.0564 0.0446,0.14445 0,0.18899 -0.0445,0.0445 -0.13264,-0.0282 -0.18899,0 -0.0797,0.0398 -0.1093,0.14915 -0.18898,0.18899 -0.0563,0.0282 -0.14445,-0.0446 -0.18899,0 -0.0445,0.0445 0.0445,0.14444 0,0.18899 -0.0445,0.0445 -0.14445,-0.0445 -0.18899,0 -0.0445,0.0445 0.0282,0.13264 0,0.18898 -0.39326,0.78653 0.013,-0.20203 -0.37798,0.18899 -0.0445,0.0446 0.0282,0.13264 0,0.18899 -0.0797,0.15937 -0.29829,0.21861 -0.37797,0.37798 -0.0282,0.0563 0.0445,0.14444 0,0.18899 -0.39103,0.39102 0.0153,-0.59754 -0.37798,0.18898 -0.0282,0.0564 0.0446,0.14445 0,0.18899 -0.0445,0.0446 -0.14444,-0.0445 -0.18899,0 -0.0445,0.0446 0.0282,0.13264 0,0.18899 -0.0398,0.0797 -0.14914,0.1093 -0.18898,0.18899 -0.0282,0.0563 0.0445,0.14444 0,0.18899 -0.0446,0.0445 -0.13265,-0.0282 -0.18899,0 -0.23354,0.11676 -0.18899,0.36064 -0.18899,0"
       id="path64"
       inkscape:connector-curvature="0" />
    <path
       style="fill:none;stroke:#000000;stroke-width:0.26458332px;stroke-linecap:butt;stroke-linejoin:miter;stroke-opacity:1"
       d="m 161.58482,243.89435 c -0.063,-0.31498 -0.0874,-0.64021 -0.18899,-0.94494 -0.0282,-0.0845 -0.13957,-0.11486 -0.18899,-0.18899 -0.0781,-0.11721 -0.14444,-0.24434 -0.18898,-0.37798 -0.0199,-0.0598 0.0199,-0.12922 0,-0.18898 -0.1323,-0.39688 -0.43468,-0.73706 -0.56697,-1.13393 -0.0199,-0.0598 0.0199,-0.12923 0,-0.18899 -0.0891,-0.26727 -0.30965,-0.48264 -0.37798,-0.75595 0,-1.25359 0.0891,0.26727 -0.18898,-0.56697 -0.0399,-0.11953 0.0306,-0.25574 0,-0.37797 -0.0342,-0.13666 -0.126,-0.25199 -0.18899,-0.37798 -0.063,-0.18899 -0.14992,-0.37162 -0.18899,-0.56696 -0.0494,-0.2471 0.0611,-0.5115 0,-0.75596 -0.0683,-0.27331 -0.27334,-0.49437 -0.37798,-0.75595 -0.074,-0.18496 -0.115,-0.382 -0.18898,-0.56696 -0.0523,-0.13079 -0.15483,-0.24132 -0.18899,-0.37798 -0.0306,-0.12223 0.0306,-0.25574 0,-0.37798 -0.074,-0.29591 -0.51096,-0.8539 -0.56697,-1.13392 -0.0371,-0.18532 0.0458,-0.38362 0,-0.56697 -0.0216,-0.0864 -0.16081,-0.10447 -0.18898,-0.18899 -0.0399,-0.11952 0.0306,-0.25574 0,-0.37797 -0.0342,-0.13666 -0.15483,-0.24132 -0.18899,-0.37798 -0.082,-0.32813 0.082,-0.8058 0,-1.13393 -0.0342,-0.13665 -0.15483,-0.24132 -0.18899,-0.37797 -0.0611,-0.24447 0.0611,-0.5115 0,-0.75596 -0.0342,-0.13665 -0.15482,-0.24132 -0.18899,-0.37797 -0.33655,-1.3462 0.57197,0.95746 -0.18899,-0.94494 -0.0523,-0.13079 -0.16136,-0.23985 -0.18898,-0.37798 -0.0371,-0.18532 0.0371,-0.38165 0,-0.56696 -0.0276,-0.13813 -0.126,-0.25199 -0.18899,-0.37798 -0.063,-0.18899 -0.15624,-0.37046 -0.18899,-0.56696 -0.0311,-0.18642 0.0311,-0.38055 0,-0.56697 -0.0327,-0.1965 -0.16082,-0.36975 -0.18899,-0.56696 -0.0356,-0.24946 0.0356,-0.5065 0,-0.75595 -0.0282,-0.19721 -0.16081,-0.36976 -0.18899,-0.56697 -0.0356,-0.24945 0.0356,-0.5065 0,-0.75595 -0.0282,-0.19721 -0.15624,-0.37047 -0.18899,-0.56697 -0.0311,-0.18641 0,-0.37797 0,-0.56696 -0.063,-0.18899 -0.14991,-0.37162 -0.18898,-0.56696 -0.0247,-0.12355 0,-0.25199 0,-0.37798 0,-0.18899 0.0371,-0.38165 0,-0.56696 -0.0276,-0.13813 -0.16137,-0.23985 -0.18899,-0.37798 -0.0371,-0.18532 0,-0.37798 0,-0.56697 0,-0.37797 0.0534,-0.75975 0,-1.13392 -0.0282,-0.19721 -0.15624,-0.37047 -0.18899,-0.56697 -0.0621,-0.37283 0.0621,-0.76109 0,-1.13393 -0.0328,-0.1965 -0.14992,-0.37162 -0.18899,-0.56696 -0.0618,-0.30886 0.0618,-0.63608 0,-0.94494 -0.0276,-0.13813 -0.15482,-0.24132 -0.18899,-0.37798 -0.0306,-0.12223 0.0306,-0.25574 0,-0.37797 -0.0342,-0.13666 -0.15482,-0.24132 -0.18898,-0.37798 -0.0359,-0.14372 0,-0.78668 0,-0.94494 0,-0.12599 0.0306,-0.25575 0,-0.37798 -0.0342,-0.13666 -0.14445,-0.24434 -0.18899,-0.37797 -0.0428,-0.12838 0,-1.07915 0,-1.32292 0,-0.94494 0,-1.88988 0,-2.83482 0,-0.37798 0,-0.75595 0,-1.13393 0,-0.12599 -0.0306,-0.25574 0,-0.37798 0.0342,-0.13665 0.16136,-0.23984 0.18899,-0.37797 0.0618,-0.30887 0,-0.62996 0,-0.94494 0,-0.126 -0.0399,-0.25845 0,-0.37798 0.0282,-0.0845 0.16081,-0.10447 0.18898,-0.18899 0.0797,-0.23905 -0.0611,-0.51149 0,-0.75595 0.0342,-0.13666 0.14445,-0.24434 0.18899,-0.37798 0.0567,-0.17009 -0.0567,-0.39687 0,-0.56696 0.0282,-0.0845 0.16082,-0.10447 0.18899,-0.18899 0.0347,-0.10418 0,-0.97354 0,-1.13393 0,-0.44097 0,-0.88194 0,-1.32291 0,-0.126 0,-0.25199 0,-0.37798 0,-0.063 -0.0282,-0.13264 0,-0.18899 0.0398,-0.0797 0.14915,-0.1093 0.18899,-0.18899 0.0288,-0.0575 0,-0.48185 0,-0.56696 0,-0.18899 0,-0.37798 0,-0.56696 0,-0.063 -0.063,-0.18899 0,-0.18899 0.063,0 0.0445,0.14444 0,0.18899 -0.0446,0.0445 -0.14445,-0.0445 -0.18899,0 -0.0891,0.0891 0.0563,0.26528 0,0.37797 -0.0398,0.0797 -0.14915,0.1093 -0.18899,0.18899 -0.0282,0.0563 0.0282,0.13264 0,0.18899 -0.0398,0.0797 -0.14914,0.1093 -0.18899,0.18899 -0.0282,0.0563 0.0282,0.13264 0,0.18898 -0.0398,0.0797 -0.13957,0.11487 -0.18898,0.18899 -0.0781,0.11721 -0.11086,0.26077 -0.18899,0.37798 -0.1854,0.27809 -0.57056,0.47786 -0.75595,0.75595 -0.0781,0.11721 -0.11086,0.26077 -0.18899,0.37798 -0.0494,0.0741 -0.14915,0.1093 -0.18899,0.18899 -0.27808,0.55615 0.43781,-0.24882 -0.18899,0.37797 -0.62679,0.6268 0.0891,-0.17818 -0.18899,0.37798 -0.0246,0.0492 -0.33672,0.23024 -0.18898,0.37797 0.0445,0.0445 0.12599,0 0.18898,0 0.0988,0 0.70626,0.0248 0.75596,0 0.46706,-0.23353 -0.0652,-0.18898 0.37797,-0.18898 0.12599,0 0.25199,0 0.37798,0 0.12599,0 0.25845,0.0398 0.37797,0 0.0845,-0.0282 0.10447,-0.16082 0.18899,-0.18899 0.11953,-0.0398 0.25575,0.0306 0.37798,0 0.13666,-0.0342 0.24434,-0.14445 0.37797,-0.18899 0.17929,-0.0598 0.38768,0.0598 0.56697,0 0.0845,-0.0282 0.1093,-0.14915 0.18899,-0.18899 0.0749,-0.0375 0.52832,0.0386 0.56696,0 0.0446,-0.0445 0.0446,-0.14444 0,-0.18899 -0.0445,-0.0445 -0.14444,0.0445 -0.18899,0 -0.0445,-0.0445 0.0282,-0.13264 0,-0.18898 -0.0398,-0.0797 -0.14914,-0.10931 -0.18898,-0.18899 -0.0564,-0.11269 0.0891,-0.28889 0,-0.37798 -0.0446,-0.0445 -0.14445,0.0446 -0.18899,0 -0.0891,-0.0891 0.0891,-0.28888 0,-0.37797 -0.0445,-0.0446 -0.14445,0.0445 -0.18899,0 -0.0446,-0.0446 0.0282,-0.13265 0,-0.18899 -0.0398,-0.0797 -0.14915,-0.10931 -0.18899,-0.18899 -0.0282,-0.0564 0.0446,-0.14444 0,-0.18899 -0.0445,-0.0445 -0.14444,0.0446 -0.18899,0 -0.0891,-0.0891 0.0564,-0.26528 0,-0.37798 -0.0398,-0.0797 -0.14914,-0.1093 -0.18899,-0.18898 -0.11886,-0.23773 0.27143,-0.37798 -0.18898,-0.37798"
       id="path66"
       inkscape:connector-curvature="0" />
    <path
       style="fill:none;stroke:#000000;stroke-width:0.26458332px;stroke-linecap:butt;stroke-linejoin:miter;stroke-opacity:1"
       d="m 162.34077,187.19792 c 0,-0.62996 0,-1.25992 0,-1.88988 0,-0.0851 -0.0288,-0.50945 0,-0.56697 0.0398,-0.0797 0.14915,-0.1093 0.18899,-0.18898 0.0626,-0.12525 -0.0528,-0.59756 0,-0.75596 0.0445,-0.13363 0.14444,-0.24434 0.18899,-0.37797 0.0598,-0.17929 -0.0458,-0.38362 0,-0.56697 0.0342,-0.13665 0.14444,-0.24434 0.18899,-0.37797 0.18753,-0.56259 -0.4475,0.38777 0.18898,-0.56697 0.0494,-0.0741 0.13957,-0.11486 0.18899,-0.18898 0.12499,-0.18748 0.25299,-0.56848 0.37798,-0.75596 0.28945,-0.43417 0.10795,0.081 0.56696,-0.37797 0.0996,-0.0996 0.11085,-0.26078 0.18899,-0.37798 0.0615,-0.0923 0.66366,-0.69442 0.75595,-0.75595 0.11721,-0.0781 0.27837,-0.0894 0.37798,-0.18899 0.0996,-0.0996 0.0894,-0.27837 0.18899,-0.37798 0.0868,-0.0868 0.97354,-0.48677 1.13393,-0.56696 0.12599,-0.063 0.27837,-0.0894 0.37797,-0.18899 0.0996,-0.0996 0.0718,-0.29984 0.18899,-0.37797 0.10483,-0.0699 0.25575,0.0305 0.37798,0 0.13666,-0.0342 0.25198,-0.126 0.37797,-0.18899 0.25199,-0.126 0.50397,-0.25199 0.75596,-0.37798 0.50396,-0.25198 1.00793,-0.50397 1.5119,-0.75595 0.12599,-0.063 0.25199,-0.12599 0.37798,-0.18899 0.12599,-0.063 0.24132,-0.15482 0.37797,-0.18899 0.12223,-0.0306 0.25575,0.0306 0.37798,0 0.27331,-0.0683 0.48264,-0.30964 0.75595,-0.37797 0.24446,-0.0611 0.50886,0.0494 0.75595,0 2.05541,-0.68514 -0.49802,0.0996 0.94494,-0.18899 0.19535,-0.0391 0.37047,-0.15624 0.56697,-0.18899 0.18642,-0.0311 0.37797,0 0.56696,0 0.18899,-0.063 0.37162,-0.14992 0.56697,-0.18899 0.12354,-0.0247 0.25198,0 0.37797,0 0.50397,0 1.00794,0 1.51191,0 0.37797,0 0.75595,0 1.13393,0 0.12599,0 0.25574,-0.0306 0.37797,0 1.07075,0.53538 -0.28173,-0.0704 0.75595,0.18899 0.13666,0.0342 0.24132,0.15483 0.37798,0.18899 0.23717,0.0593 0.51878,-0.0593 0.75595,0 0.13666,0.0342 0.24434,0.14444 0.37798,0.18899 0.0598,0.0199 0.12923,-0.0199 0.18899,0 0.13363,0.0445 0.25198,0.12599 0.37797,0.18898 0.12599,0.063 0.26077,0.11086 0.37798,0.18899 0.0741,0.0494 0.11486,0.13957 0.18899,0.18899 0.1172,0.0781 0.26077,0.11085 0.37797,0.18899 0.0741,0.0494 0.11486,0.13957 0.18899,0.18899 0.11721,0.0781 0.27837,0.0894 0.37798,0.18898 0.0996,0.0996 0.0894,0.27838 0.18899,0.37798 0.0996,0.0996 0.26077,0.11085 0.37797,0.18899 0.14826,0.0988 0.22973,0.27914 0.37798,0.37798 0.1172,0.0781 0.26077,0.11085 0.37798,0.18898 0.14825,0.0988 0.25198,0.25199 0.37797,0.37798 0.12599,0.12599 0.25198,0.25198 0.37798,0.37798 0.063,0.063 0.13957,0.11486 0.18899,0.18898 0.0235,0.0352 0.36586,0.74385 0.37797,0.75596 0.0996,0.0996 0.27837,0.0894 0.37798,0.18898 0.13024,0.13025 0.42838,0.92607 0.56696,1.13393 0.0494,0.0741 0.13957,0.11486 0.18899,0.18899 0.68514,1.37027 -0.19921,-0.29881 0.37798,0.56697 0.0781,0.1172 0.11085,0.26077 0.18898,0.37797 0.0494,0.0741 0.16082,0.10447 0.18899,0.18899 0.0398,0.11953 -0.0398,0.25845 0,0.37798 0.0282,0.0845 0.16082,0.10447 0.18899,0.18898 0.0398,0.11953 -0.0306,0.25575 0,0.37798 0.0342,0.13666 0.15482,0.24132 0.18899,0.37798 0.0306,0.12223 -0.0306,0.25574 0,0.37797 0.0342,0.13666 0.15482,0.24132 0.18899,0.37798 0.0306,0.12223 0,0.25198 0,0.37797 0,0.126 0,0.25199 0,0.37798 0,0.063 -0.0199,0.12923 0,0.18899 0.0445,0.13363 0.14444,0.24434 0.18899,0.37798 0.0365,0.10947 0,0.59217 0,0.75595 0,0.50396 0,1.00794 0,1.5119 0,0.31498 0,0.62996 0,0.94494 0,0.126 0.0305,0.25575 0,0.37798 -0.0342,0.13666 -0.15483,0.24132 -0.18899,0.37798 -0.0611,0.24445 0.0797,0.51689 0,0.75595 -0.0282,0.0845 -0.16082,0.10447 -0.18899,0.18899 -0.11953,0.16959 0.0598,0.38767 0,0.56696 -0.0446,0.13363 -0.14444,0.24434 -0.18899,0.37798 -0.0598,0.17929 0.0458,0.38361 0,0.56696 -0.0342,0.13666 -0.14444,0.24434 -0.18899,0.37798 -0.0199,0.0598 0.0199,0.12922 0,0.18898 -0.0445,0.13364 -0.14444,0.24435 -0.18899,0.37798 -0.0398,0.11953 0.0399,0.25845 0,0.37798 -0.0445,0.13363 -0.14444,0.24434 -0.18898,0.37797 -0.0567,0.17009 0.0567,0.39688 0,0.56697 -0.0282,0.0845 -0.16082,0.10447 -0.18899,0.18899 -0.0567,0.17009 0.0567,0.39687 0,0.56696 -0.0446,0.13363 -0.14445,0.24434 -0.18899,0.37798 -0.0199,0.0598 0.0199,0.12922 0,0.18898 -0.0446,0.13364 -0.14444,0.24435 -0.18899,0.37798 -0.0398,0.11953 0.0398,0.25845 0,0.37798 -0.0445,0.13363 -0.14444,0.24434 -0.18899,0.37797 -0.0199,0.0598 0.0282,0.13264 0,0.18899 -0.0398,0.0797 -0.14914,0.1093 -0.18898,0.18899 -0.0504,0.1008 0.0504,0.27718 0,0.37798 -0.0399,0.0797 -0.14915,0.1093 -0.18899,0.18898 -0.0564,0.11269 0.0563,0.26529 0,0.37798 -0.0398,0.0797 -0.14915,0.1093 -0.18899,0.18899 -0.0563,0.11269 0.0563,0.26528 0,0.37797 -0.0398,0.0797 -0.14915,0.10931 -0.18899,0.18899 -0.0563,0.11269 0.0891,0.28889 0,0.37798 -0.0445,0.0445 -0.14444,-0.0445 -0.18899,0 -0.0945,0.0945 0.0945,0.47247 0,0.56696 -0.0445,0.0446 -0.14444,-0.0445 -0.18898,0 -0.0386,0.0386 0.0375,0.49204 0,0.56697 -0.0399,0.0797 -0.14915,0.1093 -0.18899,0.18898 -0.0503,0.10055 0.0503,0.27743 0,0.37798 -0.0398,0.0797 -0.14915,0.1093 -0.18899,0.18899 -0.0756,0.15119 0.0756,0.41577 0,0.56696 -0.0398,0.0797 -0.14915,0.10931 -0.18899,0.18899 -0.0504,0.1008 0.0504,0.27718 0,0.37798 -0.0398,0.0797 -0.14914,0.1093 -0.18899,0.18899 -0.0288,0.0575 0,0.48185 0,0.56696"
       id="path68"
       inkscape:connector-curvature="0" />
    <path
       style="fill:none;stroke:#000000;stroke-width:0.26458332px;stroke-linecap:butt;stroke-linejoin:miter;stroke-opacity:1"
       d="m 160.82887,183.04018 c -0.74992,2.37935 0,-0.14271 0,0.94494 0,0.063 0,0.12599 0,0.18899 0,0.063 -0.0445,0.14444 0,0.18899 0.0445,0.0445 0.14444,-0.0446 0.18899,0 0.0455,0.0455 -0.0455,0.71047 0,0.75595 0.0445,0.0446 0.14444,-0.0445 0.18898,0 0.0945,0.0945 -0.0945,0.47247 0,0.56697 0.25199,0.25198 0.18899,-0.31499 0.18899,0.18898 0,0.063 0,0.126 0,0.18899 0,0.063 -0.0445,0.14445 0,0.18899 0.0446,0.0445 0.14445,-0.0445 0.18899,0 0.0455,0.0455 -0.0455,0.71048 0,0.75595 0.0445,0.0446 0.14444,-0.0445 0.18899,0 0.0445,0.0446 -0.0445,0.14445 0,0.18899 0.0445,0.0445 0.14444,0.0445 0.18899,0 0.0891,-0.0891 -0.0891,-0.28889 0,-0.37798 0.0445,-0.0445 0.14444,0.0445 0.18898,0 0.0445,-0.0445 -0.0445,-0.14444 0,-0.18898 0.0445,-0.0445 0.14445,0.0445 0.18899,0 0.0446,-0.0445 -0.0282,-0.13265 0,-0.18899 0.0398,-0.0797 0.12599,-0.12599 0.18899,-0.18899 0.11115,-0.11115 0.71219,-0.66844 0.75595,-0.75595 0.0282,-0.0564 -0.0282,-0.13264 0,-0.18899 0.1134,-0.22679 0.45357,-0.34018 0.56697,-0.56697 0.0282,-0.0563 -0.0445,-0.14444 0,-0.18898 0.0445,-0.0445 0.13264,0.0282 0.18898,0 0.0797,-0.0399 0.10931,-0.14915 0.18899,-0.18899 0.0564,-0.0282 0.14445,0.0445 0.18899,0 0.0446,-0.0446 -0.0445,-0.14445 0,-0.18899 0.0446,-0.0445 0.14444,0.0445 0.18899,0 0.0445,-0.0445 -0.0446,-0.14444 0,-0.18899 0.0631,-0.0631 0.31489,0.0631 0.37798,0 0.0445,-0.0445 -0.0446,-0.14444 0,-0.18899 0.0445,-0.0445 0.13264,0.0282 0.18898,0 0.0797,-0.0398 0.10931,-0.14914 0.18899,-0.18898 0.0564,-0.0282 0.14445,0.0445 0.18899,0 0.0445,-0.0445 -0.0445,-0.14445 0,-0.18899 0.0891,-0.0891 0.26528,0.0563 0.37798,0 0.0797,-0.0398 0.1093,-0.14915 0.18898,-0.18899 0.0564,-0.0282 0.14445,0.0445 0.18899,0 0.0446,-0.0445 -0.0445,-0.14444 0,-0.18899 0.0629,-0.0629 0.31506,0.0629 0.37798,0 0.0445,-0.0445 0.0445,-0.14444 0,-0.18899 -0.0445,-0.0445 -0.14445,-0.0445 -0.18899,0 -0.0445,0.0445 0.0445,0.14445 0,0.18899 -0.0445,0.0446 -0.12599,0 -0.18899,0 -0.37797,0 -0.75595,0 -1.13393,0 -0.063,0 -0.12599,0 -0.18898,0 -0.063,0 -0.13265,0.0282 -0.18899,0 -0.0797,-0.0398 -0.10931,-0.14914 -0.18899,-0.18899 -0.10252,-0.0513 -0.70424,0.0517 -0.75595,0 -0.0445,-0.0445 0.0445,-0.14444 0,-0.18898 -0.0585,-0.0585 -0.88642,0.0585 -0.94494,0 -0.0445,-0.0445 0.0445,-0.14445 0,-0.18899 -0.0386,-0.0386 -0.49204,0.0375 -0.56697,0 -0.0797,-0.0398 -0.1093,-0.14915 -0.18899,-0.18899 -0.0563,-0.0282 -0.13264,0.0282 -0.18898,0 -0.46707,-0.23353 0.0652,-0.18899 -0.37798,-0.18899 -0.0694,0 -0.74835,0.008 -0.75595,0 -0.0445,-0.0445 0.0445,-0.14444 0,-0.18899 -0.006,-0.006 -0.52113,0 -0.56697,0 -0.1259,0 -0.25208,0 -0.37797,0 -0.063,0 -0.18899,0.063 -0.18899,0 0,-0.063 0.12599,0 0.18899,0 0.063,0 0.12599,0 0.18898,0"
       id="path70"
       inkscape:connector-curvature="0" />
    <path
       style="fill:none;stroke:#000000;stroke-width:0.26458332px;stroke-linecap:butt;stroke-linejoin:miter;stroke-opacity:1"
       d="m 252.67708,144.48661 c 0,-1.63485 0.0797,0.0204 -0.18899,-1.32292 -0.0247,-0.12354 0.0398,-0.25844 0,-0.37797 -0.0184,-0.0554 -0.34107,-0.22589 -0.18899,-0.37798 0.0445,-0.0445 0.13265,0.0282 0.18899,0 0.0797,-0.0398 0.10931,-0.14914 0.18899,-0.18898 0.0564,-0.0282 0.13264,0.0282 0.18899,0 0.0797,-0.0399 0.12599,-0.126 0.18899,-0.18899 0.063,-0.063 0.12599,-0.126 0.18899,-0.18899"
       id="path72"
       inkscape:connector-curvature="0" />
  </g>
</svg>
