<?xml version="1.0" encoding="UTF-8" standalone="no"?>
<!-- Generator: Adobe Illustrator 19.2.0, SVG Export Plug-In . SVG Version: 6.00 Build 0)  -->

<svg
   xmlns:dc="http://purl.org/dc/elements/1.1/"
   xmlns:cc="http://creativecommons.org/ns#"
   xmlns:rdf="http://www.w3.org/1999/02/22-rdf-syntax-ns#"
   xmlns:svg="http://www.w3.org/2000/svg"
   xmlns="http://www.w3.org/2000/svg"
   xmlns:sodipodi="http://sodipodi.sourceforge.net/DTD/sodipodi-0.dtd"
   xmlns:inkscape="http://www.inkscape.org/namespaces/inkscape"
   version="1.1"
   id="Layer_1"
   x="0px"
   y="0px"
   width="400px"
   height="400px"
   viewBox="0 0 400 400"
   style="enable-background:new 0 0 400 400;"
   xml:space="preserve"
   sodipodi:docname="AdditiveColor2.svg"
   inkscape:version="0.92.1 r15371"><metadata
     id="metadata37"><rdf:RDF><cc:Work
         rdf:about=""><dc:format>image/svg+xml</dc:format><dc:type
           rdf:resource="http://purl.org/dc/dcmitype/StillImage" /></cc:Work></rdf:RDF></metadata><defs
     id="defs35" /><sodipodi:namedview
     pagecolor="#ffffff"
     bordercolor="#666666"
     borderopacity="1"
     objecttolerance="10"
     gridtolerance="10"
     guidetolerance="10"
     inkscape:pageopacity="0"
     inkscape:pageshadow="2"
     inkscape:window-width="1920"
     inkscape:window-height="1029"
     id="namedview33"
     showgrid="false"
     inkscape:zoom="2.36"
     inkscape:cx="242.71462"
     inkscape:cy="194.92308"
     inkscape:window-x="0"
     inkscape:window-y="0"
     inkscape:window-maximized="1"
     inkscape:current-layer="Layer_1" /><style
     type="text/css"
     id="style2">
	.st0{fill:#0000FF;}
	.st1{fill:#00FF00;}
	.st2{fill:#FF0000;}
	.st3{fill:#FFFF00;}
	.st4{fill:#FF00FF;}
	.st5{fill:#00FFFF;}
	.st6{fill:#FFFFFF;}
</style><path
     class="st0"
     d="M330.248,144.093c33.588,19.571,58.1,53.892,63.646,95.401c9.537,71.352-40.576,136.922-111.928,146.459  c-29.826,3.986-58.65-2.455-82.789-16.51"
     id="path4" /><path
     class="st1"
     d="M199.176,369.44c-14.242,8.166-30.276,13.758-47.555,16.068C80.271,395.045,14.699,344.932,5.164,273.584  c-7.151-53.51,19.247-103.776,62.995-129.585c0.456-0.27,0.915-0.536,1.375-0.8"
     id="path6" /><path
     class="st2"
     d="M69.535,143.206c0.137-64.194,47.692-120.011,113.091-128.751c71.349-9.537,136.919,40.576,146.456,111.926  c0.797,5.951,1.178,11.864,1.166,17.706"
     id="path8" /><path
     class="st3"
     d="M134.347,256.315c-33.583-19.568-58.1-53.893-63.649-95.401c-0.794-5.952-1.172-11.865-1.162-17.707  l-0.001-0.007c14.242-8.169,30.276-13.765,47.555-16.074c29.836-3.987,58.659,2.454,82.802,16.516"
     id="path10" /><path
     class="st4"
     d="M198.508,144.443c14.58-8.604,31.094-14.489,48.932-16.874c29.838-3.989,58.666,2.457,82.809,16.523v-0.006  c-0.102,47.232-25.875,89.929-65.531,112.677"
     id="path12" /><path
     class="st5"
     d="M264.709,256.76c-0.096,47.236-25.867,89.932-65.533,112.68l0.002,0.004  c-33.593-19.568-58.117-53.896-63.667-95.414c-0.796-5.955-1.174-11.867-1.164-17.711"
     id="path14" /><path
     class="st6"
     d="M264.717,256.764c-14.248,8.168-30.279,13.766-47.559,16.076c-29.838,3.984-58.669-2.455-82.811-16.525v0.004  c0.101-46.682,25.278-88.936,64.161-111.875l1.383-0.803c33.59,19.57,58.111,53.895,63.66,95.408  c0.793,5.955,1.174,11.867,1.158,17.711L264.717,256.764z"
     id="path16" /><g
     id="g30"><g
       id="g20"><path
         d="M188.198,53.27c2.934-0.539,7.245-0.898,12.155-0.898c5.987,0,10.179,0.898,13.054,3.233    c2.455,1.916,3.771,4.73,3.771,8.443c0,5.089-3.652,8.623-7.125,9.88v0.18c2.814,1.138,4.371,3.772,5.389,7.485    c1.258,4.61,2.455,9.88,3.233,11.437h-9.341c-0.599-1.138-1.616-4.431-2.754-9.401c-1.138-5.09-2.874-6.407-6.647-6.467h-2.694    v15.868h-9.042L188.198,53.27L188.198,53.27z M197.24,70.575h3.593c4.55,0,7.246-2.275,7.246-5.808    c0-3.652-2.516-5.568-6.707-5.568c-2.215,0-3.473,0.12-4.131,0.299L197.24,70.575L197.24,70.575z"
         id="path18" /></g><g
       id="g24"><path
         d="M94.682,316.481c-2.814,0.958-8.144,2.275-13.473,2.275c-7.365,0-12.694-1.856-16.407-5.389    c-3.652-3.533-5.688-8.803-5.688-14.73c0.06-13.412,9.82-21.077,23.053-21.077c5.21,0,9.221,1.019,11.197,1.916l-1.916,7.365    c-2.216-1.018-4.91-1.736-9.341-1.736c-7.604,0-13.413,4.311-13.413,13.054c0,8.383,5.27,13.232,12.754,13.232    c2.036,0,3.712-0.239,4.431-0.538v-8.503h-6.228v-7.126h15.03L94.682,316.481L94.682,316.481z"
         id="path22" /></g><g
       id="g28"><path
         d="M313.065,269.825c2.395-0.479,7.185-0.898,11.796-0.898c5.568,0,8.981,0.539,11.916,2.275    c2.815,1.497,4.79,4.251,4.79,7.964c0,3.532-2.096,6.826-6.587,8.563v0.119c4.611,1.198,8.024,4.73,8.024,9.94    c0,3.712-1.677,6.587-4.192,8.563c-2.934,2.335-7.844,3.652-15.867,3.652c-4.491,0-7.844-0.299-9.88-0.599L313.065,269.825    L313.065,269.825z M322.105,285.214h2.994c4.851,0,7.365-1.977,7.365-4.971c0-3.054-2.335-4.67-6.467-4.67    c-2.036,0-3.174,0.119-3.893,0.299L322.105,285.214L322.105,285.214z M322.105,303.117c0.898,0.18,1.977,0.18,3.533,0.18    c4.132,0,7.784-1.617,7.784-5.868c0-4.071-3.652-5.689-8.203-5.689h-3.114L322.105,303.117L322.105,303.117z"
         id="path26" /></g></g><text
     xml:space="preserve"
     style="font-style:normal;font-variant:normal;font-weight:bold;font-stretch:normal;font-size:58.66666794px;line-height:1.25;font-family:sans-serif;-inkscape-font-specification:'sans-serif Bold';letter-spacing:0px;word-spacing:0px;fill:#000000;fill-opacity:1;stroke:none"
     x="98.305084"
     y="191.1017"
     id="text3744"><tspan
       sodipodi:role="line"
       id="tspan3742"
       x="98.305084"
       y="191.1017"
       style="font-size:48px">Y</tspan></text>
<text
     xml:space="preserve"
     style="font-style:normal;font-variant:normal;font-weight:bold;font-stretch:normal;font-size:40px;line-height:1.25;font-family:sans-serif;-inkscape-font-specification:'sans-serif Bold';letter-spacing:0px;word-spacing:0px;fill:#000000;fill-opacity:1;stroke:none"
     x="180.08475"
     y="330.08475"
     id="text3748"><tspan
       sodipodi:role="line"
       id="tspan3746"
       x="180.08475"
       y="330.08475"
       style="font-size:48px">C</tspan></text>
<text
     xml:space="preserve"
     style="font-style:normal;font-weight:normal;font-size:40px;line-height:1.25;font-family:sans-serif;letter-spacing:0px;word-spacing:0px;fill:#000000;fill-opacity:1;stroke:none"
     x="257.62711"
     y="191.52542"
     id="text3752"><tspan
       sodipodi:role="line"
       id="tspan3750"
       x="257.62711"
       y="191.52542"
       style="font-style:normal;font-variant:normal;font-weight:bold;font-stretch:normal;font-size:48px;font-family:sans-serif;-inkscape-font-specification:'sans-serif Bold'">M</tspan></text>
</svg>