<?xml version="1.0" encoding="UTF-8" standalone="no"?>
<!-- Generator: Adobe Illustrator 19.2.0, SVG Export Plug-In . SVG Version: 6.00 Build 0)  -->

<svg
   xmlns:dc="http://purl.org/dc/elements/1.1/"
   xmlns:cc="http://creativecommons.org/ns#"
   xmlns:rdf="http://www.w3.org/1999/02/22-rdf-syntax-ns#"
   xmlns:svg="http://www.w3.org/2000/svg"
   xmlns="http://www.w3.org/2000/svg"
   xmlns:sodipodi="http://sodipodi.sourceforge.net/DTD/sodipodi-0.dtd"
   xmlns:inkscape="http://www.inkscape.org/namespaces/inkscape"
   version="1.1"
   id="Layer_1"
   x="0px"
   y="0px"
   width="400px"
   height="400px"
   viewBox="0 0 400 400"
   style="enable-background:new 0 0 400 400;"
   xml:space="preserve"
   sodipodi:docname="AdditiveColor3.svg"
   inkscape:version="0.92.1 r15371"><metadata
     id="metadata37"><rdf:RDF><cc:Work
         rdf:about=""><dc:format>image/svg+xml</dc:format><dc:type
           rdf:resource="http://purl.org/dc/dcmitype/StillImage" /><dc:title></dc:title></cc:Work></rdf:RDF></metadata><defs
     id="defs35" /><sodipodi:namedview
     pagecolor="#ffffff"
     bordercolor="#666666"
     borderopacity="1"
     objecttolerance="10"
     gridtolerance="10"
     guidetolerance="10"
     inkscape:pageopacity="0"
     inkscape:pageshadow="2"
     inkscape:window-width="1920"
     inkscape:window-height="1029"
     id="namedview33"
     showgrid="false"
     inkscape:zoom="1.668772"
     inkscape:cx="140.84615"
     inkscape:cy="159.26866"
     inkscape:window-x="0"
     inkscape:window-y="0"
     inkscape:window-maximized="1"
     inkscape:current-layer="Layer_1" /><style
     type="text/css"
     id="style2">
	.st0{fill:#0000FF;}
	.st1{fill:#00FF00;}
	.st2{fill:#FF0000;}
	.st3{fill:#FFFF00;}
	.st4{fill:#FF00FF;}
	.st5{fill:#00FFFF;}
	.st6{fill:#FFFFFF;}
</style><path
     class="st0"
     d="m 288.4644,147.54897 c 24.16571,14.08084 41.80146,38.77392 45.79167,68.63859 6.86163,51.33594 -29.1934,98.51189 -80.52934,105.37351 -21.45905,2.86783 -42.19718,-1.76631 -59.56457,-11.87852"
     id="path4"
     inkscape:connector-curvature="0"
     style="fill:#0000ff;stroke-width:0.71947449" /><path
     class="st1"
     d="m 194.16144,309.68039 c -10.24676,5.87523 -21.78281,9.89853 -34.21461,11.56052 -51.3345,6.86163 -98.511885,-29.1934 -105.372074,-80.52647 -5.144963,-38.49907 13.847725,-74.66418 45.323295,-93.2331 0.328079,-0.19425 0.658319,-0.38563 0.989279,-0.57558"
     id="path6"
     inkscape:connector-curvature="0"
     style="fill:#00ff00;stroke-width:0.71947449" /><path
     class="st2"
     d="m 100.88805,146.9108 c 0.0986,-46.18594 34.31317,-86.344848 81.36608,-92.633055 51.33379,-6.861628 98.50973,29.193396 105.37136,80.527905 0.57342,4.28159 0.84754,8.53584 0.83891,12.73901"
     id="path8"
     inkscape:connector-curvature="0"
     style="fill:#ff0000;stroke-width:0.71947449" /><path
     class="st3"
     d="m 147.51863,228.28984 c -24.16211,-14.07868 -41.80147,-38.77464 -45.79383,-68.63859 -0.57127,-4.28231 -0.84323,-8.53656 -0.83603,-12.73973 l -7.2e-4,-0.005 c 10.24675,-5.87738 21.78281,-9.90356 34.21461,-11.56483 21.46624,-2.86854 42.20365,1.76559 59.57392,11.88284"
     id="path10"
     inkscape:connector-curvature="0"
     style="fill:#ffff00;stroke-width:0.71947449" /><path
     class="st4"
     d="m 193.68083,147.80079 c 10.48994,-6.19036 22.37134,-10.42446 35.20532,-12.14041 21.46768,-2.86998 42.20869,1.76775 59.57897,11.88788 v -0.004 c -0.0734,33.98222 -18.61641,64.70162 -47.14789,81.06822"
     id="path12"
     inkscape:connector-curvature="0"
     style="fill:#ff00ff;stroke-width:0.71947449" /><path
     class="st5"
     d="m 241.31076,228.61001 c -0.0691,33.98509 -18.61065,64.70378 -47.14932,81.07038 l 0.001,0.003 c -24.16931,-14.07868 -41.8137,-38.7768 -45.80678,-68.64794 -0.57271,-4.28447 -0.84467,-8.538 -0.83747,-12.74261"
     id="path14"
     inkscape:connector-curvature="0"
     style="fill:#00ffff;stroke-width:0.71947449" /><path
     class="st6"
     d="m 241.31651,228.61288 c -10.25107,5.87667 -21.78496,9.90429 -34.21748,11.56628 -21.46768,2.86638 -42.21085,-1.76631 -59.5804,-11.88932 v 0.003 c 0.0727,-33.58651 18.18687,-63.98718 46.1622,-80.49121 l 0.99503,-0.57774 c 24.16715,14.08012 41.80938,38.77608 45.80175,68.64362 0.57054,4.28447 0.84466,8.53801 0.83315,12.74262 z"
     id="path16"
     inkscape:connector-curvature="0"
     style="fill:#ffffff;stroke-width:0.71947449" /><g
     id="g30"
     transform="matrix(0.71947448,0,0,0.71947448,50.859389,43.877741)"><g
       id="g20"><path
         d="m 188.198,53.27 c 2.934,-0.539 7.245,-0.898 12.155,-0.898 5.987,0 10.179,0.898 13.054,3.233 2.455,1.916 3.771,4.73 3.771,8.443 0,5.089 -3.652,8.623 -7.125,9.88 v 0.18 c 2.814,1.138 4.371,3.772 5.389,7.485 1.258,4.61 2.455,9.88 3.233,11.437 h -9.341 c -0.599,-1.138 -1.616,-4.431 -2.754,-9.401 -1.138,-5.09 -2.874,-6.407 -6.647,-6.467 h -2.694 V 93.03 h -9.042 z m 9.042,17.305 h 3.593 c 4.55,0 7.246,-2.275 7.246,-5.808 0,-3.652 -2.516,-5.568 -6.707,-5.568 -2.215,0 -3.473,0.12 -4.131,0.299 z"
         id="path18"
         inkscape:connector-curvature="0" /></g><g
       id="g24"><path
         d="m 94.682,316.481 c -2.814,0.958 -8.144,2.275 -13.473,2.275 -7.365,0 -12.694,-1.856 -16.407,-5.389 -3.652,-3.533 -5.688,-8.803 -5.688,-14.73 0.06,-13.412 9.82,-21.077 23.053,-21.077 5.21,0 9.221,1.019 11.197,1.916 l -1.916,7.365 c -2.216,-1.018 -4.91,-1.736 -9.341,-1.736 -7.604,0 -13.413,4.311 -13.413,13.054 0,8.383 5.27,13.232 12.754,13.232 2.036,0 3.712,-0.239 4.431,-0.538 v -8.503 h -6.228 v -7.126 h 15.03 z"
         id="path22"
         inkscape:connector-curvature="0" /></g><g
       id="g28"><path
         d="m 313.065,269.825 c 2.395,-0.479 7.185,-0.898 11.796,-0.898 5.568,0 8.981,0.539 11.916,2.275 2.815,1.497 4.79,4.251 4.79,7.964 0,3.532 -2.096,6.826 -6.587,8.563 v 0.119 c 4.611,1.198 8.024,4.73 8.024,9.94 0,3.712 -1.677,6.587 -4.192,8.563 -2.934,2.335 -7.844,3.652 -15.867,3.652 -4.491,0 -7.844,-0.299 -9.88,-0.599 z m 9.04,15.389 h 2.994 c 4.851,0 7.365,-1.977 7.365,-4.971 0,-3.054 -2.335,-4.67 -6.467,-4.67 -2.036,0 -3.174,0.119 -3.893,0.299 z m 0,17.903 c 0.898,0.18 1.977,0.18 3.533,0.18 4.132,0 7.784,-1.617 7.784,-5.868 0,-4.071 -3.652,-5.689 -8.203,-5.689 h -3.114 z"
         id="path26"
         inkscape:connector-curvature="0" /></g></g><text
     xml:space="preserve"
     style="font-style:normal;font-variant:normal;font-weight:bold;font-stretch:normal;font-size:42.2091713px;line-height:1.25;font-family:sans-serif;-inkscape-font-specification:'sans-serif Bold';letter-spacing:0px;word-spacing:0px;fill:#000000;fill-opacity:1;stroke:none;stroke-width:0.71947449"
     x="121.58739"
     y="181.37053"
     id="text3744"><tspan
       sodipodi:role="line"
       id="tspan3742"
       x="121.58739"
       y="181.37053"
       style="font-size:34.53477478px;stroke-width:0.71947449">Y</tspan></text>
<text
     xml:space="preserve"
     style="font-style:normal;font-variant:normal;font-weight:bold;font-stretch:normal;font-size:28.77898026px;line-height:1.25;font-family:sans-serif;-inkscape-font-specification:'sans-serif Bold';letter-spacing:0px;word-spacing:0px;fill:#000000;fill-opacity:1;stroke:none;stroke-width:0.71947449"
     x="180.42577"
     y="281.3653"
     id="text3748"><tspan
       sodipodi:role="line"
       id="tspan3746"
       x="180.42577"
       y="281.3653"
       style="font-size:34.53477478px;stroke-width:0.71947449">C</tspan></text>
<text
     xml:space="preserve"
     style="font-style:normal;font-weight:normal;font-size:28.77898026px;line-height:1.25;font-family:sans-serif;letter-spacing:0px;word-spacing:0px;fill:#000000;fill-opacity:1;stroke:none;stroke-width:0.71947449"
     x="236.21552"
     y="181.67538"
     id="text3752"><tspan
       sodipodi:role="line"
       id="tspan3750"
       x="236.21552"
       y="181.67538"
       style="font-style:normal;font-variant:normal;font-weight:bold;font-stretch:normal;font-size:34.53477478px;font-family:sans-serif;-inkscape-font-specification:'sans-serif Bold';stroke-width:0.71947449">M</tspan></text>
<text
     xml:space="preserve"
     style="font-style:normal;font-weight:normal;font-size:26.66666667px;line-height:1.25;font-family:sans-serif;letter-spacing:0px;word-spacing:0px;fill:#000000;fill-opacity:1;stroke:none;"
     x="22.771235"
     y="13.488242"
     id="text3775"><tspan
       sodipodi:role="line"
       id="tspan3773"
       x="22.771235"
       y="48.878868" /></text>
<text
     xml:space="preserve"
     style="font-style:normal;font-weight:normal;font-size:26.66666603px;line-height:1.25;font-family:sans-serif;letter-spacing:0px;word-spacing:0px;fill:#000000;fill-opacity:1;stroke:none"
     x="19.775023"
     y="124.34821"
     id="text3779"><tspan
       sodipodi:role="line"
       id="tspan3777"
       x="19.775023"
       y="124.34821">geel</tspan></text>
<text
     xml:space="preserve"
     style="font-style:normal;font-weight:normal;font-size:26.66666603px;line-height:1.25;font-family:sans-serif;letter-spacing:0px;word-spacing:0px;fill:#000000;fill-opacity:1;stroke:none"
     x="256.47601"
     y="36.25948"
     id="text3783"><tspan
       sodipodi:role="line"
       id="tspan3781"
       x="256.47601"
       y="36.25948">magenta</tspan></text>
<text
     xml:space="preserve"
     style="font-style:normal;font-weight:normal;font-size:26.66666603px;line-height:1.25;font-family:sans-serif;letter-spacing:0px;word-spacing:0px;fill:#000000;fill-opacity:1;stroke:none"
     x="151.00925"
     y="366.44238"
     id="text3787"><tspan
       sodipodi:role="line"
       id="tspan3785"
       x="151.00925"
       y="366.44238">cyaan</tspan></text>
<path
     style="fill:none;stroke:#000000;stroke-width:1px;stroke-linecap:butt;stroke-linejoin:miter;stroke-opacity:1"
     d="m 80.89781,127.34442 c 0.79899,0.39949 1.597981,0.79899 2.396972,1.19848 0,0.19975 -0.141243,0.45801 0,0.59925 0.141243,0.14124 0.420583,-0.0893 0.599243,0 0.252663,0.12633 0.34658,0.47291 0.599243,0.59924 0.17866,0.0893 0.458,-0.14124 0.599243,0 0.141243,0.14124 -0.141243,0.458 0,0.59924 0.141243,0.14125 0.458,-0.14124 0.599243,0 0.141243,0.14125 -0.141243,0.458 0,0.59925 1.239855,1.23985 -0.04847,-1.89467 1.198486,0.59924 0.08933,0.17866 -0.141243,0.458 0,0.59924 0.141243,0.14125 0.420583,-0.0893 0.599243,0 0.589673,0.29484 1.8073,2.10214 2.396972,2.39698 0.82657,0.41328 0.536007,-0.72572 1.198486,0.59924 0.08933,0.17866 -0.141243,0.458 0,0.59924 0.141243,0.14124 0.420584,-0.0893 0.599243,0 2.493906,1.24695 -0.640612,-0.0414 0.599243,1.19849 0.141243,0.14124 0.458001,-0.14125 0.599243,0 0.141243,0.14124 -0.141242,0.458 0,0.59924 0.141243,0.14124 0.458001,-0.14124 0.599244,0 0.141242,0.14124 -0.08933,0.42058 0,0.59924 0.126331,0.25267 0.472911,0.34658 0.599243,0.59925 0.08933,0.17866 -0.141243,0.458 0,0.59924 0.141242,0.14124 0.458,-0.14124 0.599243,0 0.282485,0.28249 -0.282486,0.916 0,1.19849 0.141243,0.14124 0.599243,-0.19975 0.599243,0 0,0.19974 -0.399496,0 -0.599243,0 -0.401954,0 -0.796533,0 -1.198486,0 -0.199748,0 -0.399496,0 -0.599244,0 -0.199747,0 -0.420583,0.0893 -0.599243,0 -0.252663,-0.12634 -0.34658,-0.47292 -0.599243,-0.59925 -0.376637,-0.18832 -2.020334,0.18832 -2.396972,0 -0.252663,-0.12633 -0.34658,-0.47291 -0.599243,-0.59924 -0.17866,-0.0893 -0.599243,0.19975 -0.599243,0 0,-1.24695 0.84036,-0.24112 1.198486,-0.59924 0.282486,-0.28249 -0.282486,-0.916 0,-1.19849 0.141243,-0.14124 0.420584,0.0893 0.599243,0 0.252663,-0.12633 0.34658,-0.47291 0.599243,-0.59924 0.17866,-0.0893 0.458,0.14124 0.599243,0 0.141243,-0.14125 -0.141243,-0.458 0,-0.59925 0.141243,-0.14124 0.458,0.14125 0.599243,0 0.141243,-0.14124 -0.141243,-0.458 0,-0.59924 0.141243,-0.14124 0.458001,0.14124 0.599243,0 1.239856,-1.23985 -1.894662,0.0485 0.599243,-1.19848 0.17866,-0.0893 0.458001,0.14124 0.599244,0 0.141242,-0.14125 -0.141243,-0.458 0,-0.59925 0.141242,-0.14124 0.458,0.14125 0.599243,0 0.141242,-0.14124 -0.141243,-0.458 0,-0.59924 0.141242,-0.14124 0.420583,0.0893 0.599243,0 0.252663,-0.12633 0.316757,-0.59924 0.599243,-0.59924 0.199747,0 0,0.39949 0,0.59924 0,0.26987 0.09119,1.61536 0,1.79773 -0.126332,0.25266 -0.472912,0.34658 -0.599243,0.59924 -0.08933,0.17866 0,0.3995 0,0.59924 0,0.799 0,1.59799 0,2.39698 0,0.19974 0,0.39949 0,0.59924 0,0.19975 0.199747,0.59924 0,0.59924 -0.282486,0 -0.399496,-0.39949 -0.599243,-0.59924"
     id="path3789"
     inkscape:connector-curvature="0" /><path
     style="fill:none;stroke:#000000;stroke-width:1px;stroke-linecap:butt;stroke-linejoin:miter;stroke-opacity:1"
     d="m 321.19427,44.64888 c 1.14611,0.223438 0.32617,4.573971 0.59924,5.393187 0.0893,0.26799 0.50991,0.331254 0.59924,0.599243 0.11446,0.343362 0,2.433635 0,2.996216 0,0.588675 -0.13211,3.19912 0,3.595458 0.3417,1.025098 0.9894,1.226515 0.59925,2.396972 -0.0893,0.26799 -0.50992,0.331253 -0.59925,0.599243 -0.12633,0.378995 0,0.798991 0,1.198486 0,1.198486 0,2.396972 0,3.595458 0,0.64289 -0.13203,3.798602 0,4.194701 0.14125,0.423729 0.49092,0.765173 0.59925,1.198487 0.15518,0.62075 0,1.709842 0,2.396972 0,1.398233 0,2.796467 0,4.194701 0,0.416797 0.10835,2.779509 0,2.996215 -0.12634,0.252663 -0.47292,0.34658 -0.59925,0.599243 -0.23969,0.479395 0.2397,1.318335 0,1.797729 -0.12633,0.252663 -0.47291,0.34658 -0.59924,0.599243 -0.17866,0.35732 0.17866,0.841167 0,1.198486 -0.12633,0.252663 -0.47291,0.34658 -0.59924,0.599243 -0.1188,0.237595 0.1225,1.675222 0,1.797729 -0.14125,0.141243 -0.458,-0.141242 -0.59925,0 -0.1225,0.122508 0.1188,1.560135 0,1.79773 -0.12633,0.252663 -0.47291,0.34658 -0.59924,0.599243 -0.16011,0.320228 0.16011,0.878257 0,1.198486 -0.12633,0.252663 -0.47291,0.34658 -0.59924,0.599243 -0.0893,0.178659 0.0893,0.420583 0,0.599243 -0.12633,0.252663 -0.47291,0.34658 -0.59925,0.599243 -0.0893,0.17866 0,0.399495 0,0.599243 -0.19974,0.199748 -0.47291,0.34658 -0.59924,0.599243 -0.0893,0.17866 0.0893,0.420583 0,0.599243 -0.12633,0.252663 -0.47291,0.34658 -0.59924,0.599243 -0.0893,0.17866 0.0893,0.420583 0,0.599243 -0.12633,0.252663 -0.47291,0.34658 -0.59924,0.599243 -0.17866,0.35732 0.28248,0.916 0,1.198486 -0.14125,0.141243 -0.458,-0.141243 -0.59925,0 -0.14124,0.141243 0.0893,0.420583 0,0.599243 -0.12633,0.252663 -0.47291,0.34658 -0.59924,0.599243 -0.0893,0.17866 0.0893,0.420583 0,0.599243 -0.12633,0.252663 -0.47291,0.34658 -0.59924,0.599243 -0.0893,0.17866 0.14124,0.458 0,0.599243 -0.14125,0.141243 -0.458,-0.141243 -0.59925,0 -0.14124,0.141243 0.0893,0.420581 0,0.599241 -0.12633,0.25267 -0.47291,0.34658 -0.59924,0.59925 -0.0893,0.17866 0.0893,0.42058 0,0.59924 -0.12633,0.25266 -0.47291,0.34658 -0.59924,0.59924 -0.0893,0.17866 0.0893,0.42058 0,0.59924 -0.25267,0.50533 -0.94583,0.69316 -1.19849,1.19849 -0.0893,0.17866 0.0893,0.42058 0,0.59924 -0.12633,0.25267 -0.47291,0.34658 -0.59924,0.59925 -0.0893,0.17866 0.0893,0.42058 0,0.59924 -0.12633,0.25266 -0.47291,0.34658 -0.59924,0.59924 -0.0893,0.17866 0.14124,0.458 0,0.59925 -0.14125,0.14124 -0.458,-0.14125 -0.59925,0 -0.14124,0.14124 0.0893,0.42058 0,0.59924 -0.12633,0.25266 -0.47291,0.34658 -0.59924,0.59924 -0.0893,0.17866 0.0893,0.42059 0,0.59924 -0.25266,0.50533 -0.94582,0.69316 -1.19849,1.19849 -0.0893,0.17866 0.14125,0.458 0,0.59924 -0.14124,0.14125 -0.458,-0.14124 -0.59924,0 -0.1998,0.19981 0.1998,0.99869 0,1.19849 -0.14124,0.14124 -0.458,-0.14124 -0.59924,0 -0.14125,0.14124 0.0893,0.42058 0,0.59924 -0.12633,0.25267 -0.3995,0.3995 -0.59925,0.59925 -0.19974,0.19974 -0.47291,0.34658 -0.59924,0.59924 -0.0893,0.17866 0.14124,0.458 0,0.59924 -0.14124,0.14125 -0.458,-0.14124 -0.59924,0 -0.14124,0.14125 0.0893,0.42059 0,0.59925 -0.12633,0.25266 -0.47291,0.34658 -0.59924,0.59924 -0.0893,0.17866 0.0893,0.42058 0,0.59924 -0.12634,0.25266 -0.47292,0.34658 -0.59925,0.59924 -0.0893,0.17866 0.0893,0.42059 0,0.59925 -0.12633,0.25266 -0.47291,0.34658 -0.59924,0.59924 -0.0893,0.17866 0.0893,0.42058 0,0.59924 -0.25266,0.50533 -0.94582,0.69316 -1.19849,1.19849 -0.17866,0.35732 0.17866,0.84117 0,1.19849 -0.12633,0.25266 -0.47291,0.34658 -0.59924,0.59924 -0.0893,0.17866 0.14124,0.458 0,0.59924 -0.14124,0.14124 -0.458,-0.14124 -0.59924,0 -0.28249,0.28249 0.17866,0.84117 0,1.19849 -0.12633,0.25266 -0.47291,0.34658 -0.59925,0.59924 -0.0893,0.17866 0.0893,0.42058 0,0.59924 -0.12633,0.25267 -0.47291,0.34658 -0.59924,0.59925 -0.0893,0.17866 0.0893,0.42058 0,0.59924 -0.12633,0.25266 -0.47291,0.34658 -0.59924,0.59924 -0.0893,0.17866 0.0893,0.42059 0,0.59925 -0.12633,0.25266 -0.47291,0.34658 -0.59925,0.59924 -0.0893,0.17866 0.14125,0.458 0,0.59924 -0.14124,0.14124 -0.458,-0.14124 -0.59924,0 -0.14124,0.14124 0.0893,0.42059 0,0.59924 -0.12633,0.25267 -0.47291,0.34658 -0.59924,0.59925 -0.0893,0.17866 0.14124,0.458 0,0.59924 -0.14124,0.14124 -0.458,-0.14124 -0.59924,0 -0.14125,0.14124 0,0.3995 0,0.59924 -0.19975,0 -0.458,-0.14124 -0.59925,0 -0.14124,0.14125 0.0893,0.42059 0,0.59925 -0.35954,0.71909 -1.43818,1.07863 -1.79773,1.79773 -0.0893,0.17866 0.14125,0.458 0,0.59924 -0.14124,0.14124 -0.458,-0.14124 -0.59924,0 -0.14124,0.14124 0.14124,0.458 0,0.59924 -0.14124,0.14125 -0.42058,-0.0893 -0.59924,0 -0.25267,0.12633 -0.3995,0.3995 -0.59925,0.59925 -0.19974,0.19974 -0.39949,0.39949 -0.59924,0.59924 -0.19975,0.19975 -0.31676,0.59924 -0.59924,0.59924 -0.19975,0 0,-0.39949 0,-0.59924 0,-0.14533 -0.0193,-1.77846 0,-1.79773 0.14124,-0.14124 0.458,0.14124 0.59924,0 0.29962,-0.29962 -0.29962,-1.49811 0,-1.79773 0.14124,-0.14124 0.458,0.14124 0.59924,0 0.28249,-0.28249 -0.17866,-0.84117 0,-1.19849 1.98744,-1.98743 -0.28248,0.56498 0.59925,-1.19848 0.12633,-0.25267 0.47291,-0.34658 0.59924,-0.59925 0.1188,-0.23759 -0.12251,-1.67522 0,-1.79772 0.14124,-0.14125 0.458,-0.14125 0.59924,0 0.28249,0.28248 -0.28248,0.916 0,1.19848 0.14125,0.14124 0.42059,-0.0893 0.59925,0 1.32496,0.66248 0.18595,0.37192 0.59924,1.19849 0.12633,0.25266 0.44255,0.3642 0.59924,0.59924 0.24776,0.37164 0.35149,0.82685 0.59925,1.19849 0.15669,0.23504 0.47291,0.34658 0.59924,0.59924 0.17866,0.35732 -0.28249,0.916 0,1.19849 0.14124,0.14124 0.458,-0.14125 0.59924,0 0.14124,0.14124 -0.14124,0.458 0,0.59924 0.14124,0.14124 0.458,-0.14124 0.59924,0 0.14125,0.14124 -0.14124,0.458 0,0.59924 0.14125,0.14125 0.458,-0.14124 0.59925,0 0.14124,0.14125 -0.14125,0.458 0,0.59925 0.14124,0.14124 0.458,-0.14125 0.59924,0 0.14124,0.14124 -0.14124,0.458 0,0.59924 0.14124,0.14124 0.59924,-0.19975 0.59924,0 0,0.19975 -0.39949,0 -0.59924,0 -0.26987,0 -1.61536,0.0912 -1.79773,0 -0.25266,-0.12633 -0.34658,-0.47291 -0.59924,-0.59924 -0.18237,-0.0912 -1.52786,0 -1.79773,0 -1.39823,0 -2.79647,0 -4.1947,0 -0.19975,0 -0.3995,0 -0.59924,0 -0.19975,0 -0.458,-0.14125 -0.59925,0 -0.14124,0.14124 -0.14124,0.458 0,0.59924 0.14125,0.14124 0.3995,0 0.59925,0"
     id="path3791"
     inkscape:connector-curvature="0" /><path
     style="fill:none;stroke:#000000;stroke-width:1px;stroke-linecap:butt;stroke-linejoin:miter;stroke-opacity:1"
     d="m 191.75777,341.87343 c 0.19975,-0.799 0.3995,-1.59799 0.59924,-2.39698 0.19975,0 0.458,0.14125 0.59925,0 0.21034,-0.21034 -0.20696,-2.58229 0,-2.99621 0.12633,-0.25266 0.47291,-0.34658 0.59924,-0.59924 0.10835,-0.21671 0,-2.57942 0,-2.99622 0,-2.19722 0,-4.39445 0,-6.59167 0,-0.19975 0,-0.3995 0,-0.59925 0,-0.19974 -0.14124,-0.458 0,-0.59924 0.14124,-0.14124 0.458,0.14124 0.59924,0 0.14125,-0.14124 0,-0.39949 0,-0.59924 0,-0.19975 0.0893,-0.42059 0,-0.59925 -0.12633,-0.25266 -0.47291,-0.34658 -0.59924,-0.59924 -0.0893,-0.17866 0,-0.39949 0,-0.59924 0,-0.19975 0,-0.3995 0,-0.59924 0,-1.19849 0,-2.39698 0,-3.59546 0,-0.19975 0,-0.3995 0,-0.59925 0,-0.19974 -0.14124,-0.458 0,-0.59924 0.14124,-0.14124 0.458,0.14124 0.59924,0 0.0241,-0.0241 0,-2.17691 0,-2.39697 0,-0.19975 -0.14124,-0.458 0,-0.59924 0.14125,-0.14125 0.458,0.14124 0.59925,0 0.14124,-0.14125 0.14124,-0.458 0,-0.59925 -0.14125,-0.14124 -0.458,-0.14124 -0.59925,0 -0.14124,0.14125 0.14125,0.458 0,0.59925 -0.14124,0.14124 -0.458,-0.14125 -0.59924,0 -0.14124,0.14124 0.0893,0.42058 0,0.59924 -0.25266,0.50533 -0.94582,0.69316 -1.19849,1.19849 -0.0893,0.17865 0.0893,0.42058 0,0.59924 -0.12633,0.25266 -0.47291,0.34658 -0.59924,0.59924 -0.0893,0.17866 0.14124,0.458 0,0.59924 -0.14124,0.14125 -0.458,-0.14124 -0.59924,0 -0.28249,0.28249 0.28248,0.916 0,1.19849 -0.14124,0.14124 -0.458,-0.14124 -0.59924,0 -0.28249,0.28249 0.17866,0.84117 0,1.19849 -0.25267,0.50532 -0.94583,0.69316 -1.19849,1.19848 -0.0893,0.17866 0.14124,0.458 0,0.59925 -0.14124,0.14124 -0.59924,-0.19975 -0.59924,0 0,0.28248 0.34658,0.47291 0.59924,0.59924 0.15493,0.0775 3.17071,0 3.59546,0 0.19975,0 0.458,0.14124 0.59924,0 0.14124,-0.14124 -0.14124,-0.458 0,-0.59924 0.14124,-0.14125 0.3995,0 0.59924,0 0.19975,0 0.3995,0 0.59925,0 1.39823,0 2.79646,0 4.1947,0 0.19975,0 0.39949,0 0.59924,0 0.19975,0 0.59924,0.19974 0.59924,0 0,-0.28249 -0.39949,-0.3995 -0.59924,-0.59925 -0.19975,-0.19975 -0.39949,-0.39949 -0.59924,-0.59924 -0.19975,-0.19975 -0.34658,-0.47291 -0.59925,-0.59924 -0.17866,-0.0893 -0.458,0.14124 -0.59924,0 -0.14124,-0.14125 0.14124,-0.458 0,-0.59925 -0.14124,-0.14124 -0.42058,0.0893 -0.59924,0 -0.15911,-0.0796 -1.71818,-1.63862 -1.79773,-1.79773 -0.0893,-0.17866 0.14124,-0.458 0,-0.59924 -0.14124,-0.14124 -0.458,0.14124 -0.59924,0 -0.20118,-0.20117 0.20117,-0.99731 0,-1.19848 -0.14125,-0.14125 -0.458,0.14124 -0.59925,0 -0.14124,-0.14125 0.0893,-0.42059 0,-0.59925 -0.12633,-0.25266 -0.47291,-0.34658 -0.59924,-0.59924 -0.0893,-0.17866 0.14124,-0.458 0,-0.59924 -0.14124,-0.14125 -0.458,0.14124 -0.59924,0 -0.14125,-0.14125 -0.0504,-0.40596 0,-0.59925 0.35351,-1.35547 0.80412,-2.68374 1.20618,-4.02561"
     id="path3793"
     inkscape:connector-curvature="0" /></svg>