<?xml version="1.0" encoding="UTF-8" standalone="no"?>
<!-- Created with Inkscape (http://www.inkscape.org/) -->

<svg
   xmlns:dc="http://purl.org/dc/elements/1.1/"
   xmlns:cc="http://creativecommons.org/ns#"
   xmlns:rdf="http://www.w3.org/1999/02/22-rdf-syntax-ns#"
   xmlns:svg="http://www.w3.org/2000/svg"
   xmlns="http://www.w3.org/2000/svg"
   xmlns:sodipodi="http://sodipodi.sourceforge.net/DTD/sodipodi-0.dtd"
   xmlns:inkscape="http://www.inkscape.org/namespaces/inkscape"
   width="297mm"
   height="210mm"
   viewBox="0 0 297 210"
   version="1.1"
   id="svg8"
   sodipodi:docname="WidthHeight.svg"
   inkscape:version="0.92.1 r15371">
  <defs
     id="defs2" />
  <sodipodi:namedview
     id="base"
     pagecolor="#ffffff"
     bordercolor="#666666"
     borderopacity="1.0"
     inkscape:pageopacity="0.0"
     inkscape:pageshadow="2"
     inkscape:zoom="0.98994949"
     inkscape:cx="728.08534"
     inkscape:cy="491.70783"
     inkscape:document-units="mm"
     inkscape:current-layer="layer1"
     showgrid="false"
     inkscape:window-width="1920"
     inkscape:window-height="1029"
     inkscape:window-x="0"
     inkscape:window-y="0"
     inkscape:window-maximized="1" />
  <metadata
     id="metadata5">
    <rdf:RDF>
      <cc:Work
         rdf:about="">
        <dc:format>image/svg+xml</dc:format>
        <dc:type
           rdf:resource="http://purl.org/dc/dcmitype/StillImage" />
        <dc:title></dc:title>
      </cc:Work>
    </rdf:RDF>
  </metadata>
  <g
     inkscape:label="Layer 1"
     inkscape:groupmode="layer"
     id="layer1"
     transform="translate(0,-87)">
    <text
       xml:space="preserve"
       style="font-style:normal;font-variant:normal;font-weight:normal;font-stretch:normal;font-size:10.58333302px;line-height:1.25;font-family:courier;-inkscape-font-specification:courier;letter-spacing:0px;word-spacing:0px;fill:#000000;fill-opacity:1;stroke:none;stroke-width:0.26458332"
       x="10.205359"
       y="115.19346"
       id="text12"><tspan
         sodipodi:role="line"
         id="tspan10"
         x="10.205359"
         y="115.19346"
         style="font-style:normal;font-variant:normal;font-weight:normal;font-stretch:normal;font-family:courier;-inkscape-font-specification:courier;stroke-width:0.26458332">void setup() </tspan><tspan
         sodipodi:role="line"
         x="10.205359"
         y="128.42262"
         style="font-style:normal;font-variant:normal;font-weight:normal;font-stretch:normal;font-family:courier;-inkscape-font-specification:courier;stroke-width:0.26458332"
         id="tspan14">{</tspan><tspan
         sodipodi:role="line"
         x="10.205359"
         y="141.65178"
         style="font-style:normal;font-variant:normal;font-weight:normal;font-stretch:normal;font-family:courier;-inkscape-font-specification:courier;stroke-width:0.26458332"
         id="tspan16">  size(128, 128);</tspan><tspan
         sodipodi:role="line"
         x="10.205359"
         y="154.88095"
         style="font-style:normal;font-variant:normal;font-weight:normal;font-stretch:normal;font-family:courier;-inkscape-font-specification:courier;stroke-width:0.26458332"
         id="tspan18">}</tspan><tspan
         sodipodi:role="line"
         x="10.205359"
         y="168.11012"
         style="font-style:normal;font-variant:normal;font-weight:normal;font-stretch:normal;font-family:courier;-inkscape-font-specification:courier;stroke-width:0.26458332"
         id="tspan20"></tspan><tspan
         sodipodi:role="line"
         x="10.205359"
         y="181.33928"
         style="font-style:normal;font-variant:normal;font-weight:normal;font-stretch:normal;font-family:courier;-inkscape-font-specification:courier;stroke-width:0.26458332"
         id="tspan22">void draw()</tspan><tspan
         sodipodi:role="line"
         x="10.205359"
         y="194.56845"
         style="font-style:normal;font-variant:normal;font-weight:normal;font-stretch:normal;font-family:courier;-inkscape-font-specification:courier;stroke-width:0.26458332"
         id="tspan24">{</tspan><tspan
         sodipodi:role="line"
         x="10.205359"
         y="207.79761"
         style="font-style:normal;font-variant:normal;font-weight:normal;font-stretch:normal;font-family:courier;-inkscape-font-specification:courier;stroke-width:0.26458332"
         id="tspan26">  ellipse(64, 64, 128, 128);  </tspan><tspan
         sodipodi:role="line"
         x="10.205359"
         y="221.02678"
         style="font-style:normal;font-variant:normal;font-weight:normal;font-stretch:normal;font-family:courier;-inkscape-font-specification:courier;stroke-width:0.26458332"
         id="tspan28">}</tspan><tspan
         sodipodi:role="line"
         x="10.205359"
         y="234.25594"
         style="font-style:normal;font-variant:normal;font-weight:normal;font-stretch:normal;font-family:courier;-inkscape-font-specification:courier;stroke-width:0.26458332"
         id="tspan30" /></text>
    <text
       xml:space="preserve"
       style="font-style:normal;font-weight:normal;font-size:10.58333302px;line-height:1.25;font-family:sans-serif;letter-spacing:0px;word-spacing:0px;fill:#000000;fill-opacity:1;stroke:none;stroke-width:0.26458332"
       x="105.07738"
       y="100.83036"
       id="text34"><tspan
         sodipodi:role="line"
         id="tspan32"
         x="105.07738"
         y="100.83036"
         style="stroke-width:0.26458332">breedte</tspan></text>
    <text
       xml:space="preserve"
       style="font-style:normal;font-weight:normal;font-size:10.58333302px;line-height:1.25;font-family:sans-serif;letter-spacing:0px;word-spacing:0px;fill:#000000;fill-opacity:1;stroke:none;stroke-width:0.26458332"
       x="156.48215"
       y="121.61903"
       id="text38"><tspan
         sodipodi:role="line"
         id="tspan36"
         x="156.48215"
         y="121.61903"
         style="stroke-width:0.26458332">hoogte</tspan></text>
    <text
       xml:space="preserve"
       style="font-style:normal;font-weight:normal;font-size:10.58333302px;line-height:1.25;font-family:sans-serif;letter-spacing:0px;word-spacing:0px;fill:#000000;fill-opacity:1;stroke:none;stroke-width:0.26458332"
       x="218.47023"
       y="152.99109"
       id="text42"><tspan
         sodipodi:role="line"
         id="tspan40"
         x="218.47023"
         y="152.99109"
         style="stroke-width:0.26458332">helft </tspan><tspan
         sodipodi:role="line"
         x="218.47023"
         y="166.22026"
         style="stroke-width:0.26458332"
         id="tspan52">van de </tspan><tspan
         sodipodi:role="line"
         x="218.47023"
         y="179.44942"
         style="stroke-width:0.26458332"
         id="tspan54">breedte</tspan></text>
    <text
       xml:space="preserve"
       style="font-style:normal;font-weight:normal;font-size:10.58333302px;line-height:1.25;font-family:sans-serif;letter-spacing:0px;word-spacing:0px;fill:#000000;fill-opacity:1;stroke:none;stroke-width:0.26458332"
       x="218.09225"
       y="214.60118"
       id="text46"><tspan
         sodipodi:role="line"
         id="tspan44"
         x="218.09225"
         y="214.60118"
         style="stroke-width:0.26458332">helft </tspan><tspan
         sodipodi:role="line"
         x="218.09225"
         y="227.83035"
         style="stroke-width:0.26458332"
         id="tspan48">van de </tspan><tspan
         sodipodi:role="line"
         x="218.09225"
         y="241.05951"
         style="stroke-width:0.26458332"
         id="tspan50">hoogte</tspan></text>
    <path
       style="fill:none;stroke:#000000;stroke-width:0.26458332px;stroke-linecap:butt;stroke-linejoin:miter;stroke-opacity:1"
       d="m 118.30655,103.4762 c 0.12599,0.50396 0.37797,0.99242 0.37797,1.5119 0,0.12599 -0.28889,-0.0891 -0.37797,0 -0.17818,0.17818 0.17818,0.57777 0,0.75595 -0.0891,0.0891 -0.28889,-0.0891 -0.37798,0 -0.17818,0.17818 0.17818,0.57777 0,0.75595 -0.0891,0.0891 -0.28889,-0.0891 -0.37798,0 -0.0891,0.0891 0.0563,0.26529 0,0.37798 -1.25359,1.25359 0.17818,-0.35636 -0.37797,0.75595 -0.0797,0.15937 -0.29829,0.21861 -0.37798,0.37798 -0.0563,0.11269 0.0891,0.28889 0,0.37798 -0.0891,0.0891 -0.28888,-0.0891 -0.37797,0 -0.0891,0.0891 0.0563,0.26528 0,0.37797 -0.0797,0.15937 -0.2983,0.21861 -0.37798,0.37798 -0.0564,0.11269 0.0891,0.28888 0,0.37797 -0.0891,0.0891 -0.28889,-0.0891 -0.37798,0 -0.0891,0.0891 0,0.25199 0,0.37798 -0.12599,0 -0.26528,-0.0564 -0.37797,0 -0.83573,0.41786 -0.1173,0.23459 -0.37798,0.75595 -0.0797,0.15937 -0.25198,0.25199 -0.37798,0.37798 -0.12599,0.12599 -0.2186,0.29829 -0.37797,0.37797 -0.11269,0.0563 -0.28889,-0.0891 -0.37798,0 -0.0891,0.0891 0.0563,0.26529 0,0.37798 -0.0797,0.15937 -0.25198,0.25199 -0.37797,0.37798 -0.126,0.12599 -0.21861,0.29829 -0.37798,0.37797 -0.11269,0.0564 -0.28889,-0.0891 -0.37798,0 -0.0891,0.0891 0.0891,0.28889 0,0.37798 -0.0891,0.0891 -0.26528,-0.0564 -0.37797,0 -0.15937,0.0797 -0.21861,0.29829 -0.37798,0.37798 -0.11269,0.0563 -0.28889,-0.0891 -0.37798,0 -0.0891,0.0891 0.0563,0.26528 0,0.37797 -0.41786,0.83573 -0.23458,0.1173 -0.75595,0.37798 -0.31874,0.15937 -0.43721,0.59658 -0.75595,0.75595 -0.11269,0.0564 -0.26529,-0.0563 -0.37798,0 -0.15936,0.0797 -0.2186,0.29829 -0.37797,0.37798 -0.22538,0.11269 -0.57777,-0.17818 -0.75595,0 -0.0891,0.0891 0.0891,0.28888 0,0.37797 -0.17818,0.17818 -0.53058,-0.11269 -0.75596,0 -0.31873,0.15937 -0.41788,0.64326 -0.75595,0.75595 -0.23905,0.0797 -0.50397,0 -0.75595,0 -0.12599,0 -0.26529,-0.0563 -0.37798,0 -0.31874,0.15937 -0.43721,0.59659 -0.75595,0.75596 -0.30238,0.15119 -0.83155,-0.15119 -1.13393,0 -0.15937,0.0797 -0.21861,0.29829 -0.37798,0.37797 -0.22538,0.11269 -0.53057,-0.11269 -0.75595,0 -0.15937,0.0797 -0.2186,0.2983 -0.37797,0.37798 -0.2014,0.1007 -0.55456,-0.1007 -0.75596,0 -0.15936,0.0797 -0.2186,0.29829 -0.37797,0.37798 -0.22538,0.11269 -0.57777,-0.17818 -0.75595,0 -0.0891,0.0891 0.0891,0.28888 0,0.37797 -0.0773,0.0773 -0.984069,-0.0749 -1.133932,0 -0.159369,0.0797 -0.218609,0.29829 -0.377978,0.37798 -0.149863,0.0749 -1.056656,-0.0773 -1.133928,0 -0.08909,0.0891 0.08909,0.28889 0,0.37797 -0.178178,0.17818 -0.530571,-0.11268 -0.755952,0 -0.159369,0.0797 -0.218609,0.2983 -0.377975,0.37798 -0.225383,0.11269 -0.577774,-0.17818 -0.755955,0 -0.08909,0.0891 0.08909,0.28889 0,0.37798 -0.178178,0.17818 -0.530569,-0.11269 -0.755951,0 -0.159369,0.0797 -0.218607,0.29829 -0.377976,0.37797 -0.225383,0.1127 -0.577773,-0.17818 -0.755952,0 -0.08909,0.0891 0.08909,0.28889 0,0.37798 -0.178181,0.17818 -0.577773,-0.17818 -0.755954,0 -0.08909,0.0891 0.08909,0.28888 0,0.37798 -0.178178,0.17818 -0.530569,-0.1127 -0.755951,0 -0.15937,0.0797 -0.218607,0.29829 -0.377976,0.37797 -0.201597,0.1008 -0.554355,-0.1008 -0.755952,0 -0.159369,0.0797 -0.218609,0.29829 -0.377978,0.37798 -0.302379,0.15119 -0.831546,-0.15119 -1.133928,0 -0.159369,0.0797 -0.218606,0.29829 -0.377976,0.37798 -0.302381,0.15118 -0.831548,-0.1512 -1.13393,0 -0.159366,0.0797 -0.218606,0.29829 -0.377975,0.37797 -0.09772,0.0489 -1.999946,0 -2.267858,0 -0.125992,0 -0.288885,-0.0891 -0.377976,0 -0.08909,0.0891 0.08909,0.28889 0,0.37798 -0.08909,0.0891 -0.251984,0 -0.377976,0 -0.125992,0 -0.251983,0 -0.377975,0 -0.62996,0 -1.25992,0 -1.889882,0 -0.125992,0 -0.251984,0 -0.377976,0 -0.125992,0 -0.265284,-0.0563 -0.377976,0 -0.159369,0.0797 -0.218606,0.29829 -0.377976,0.37797 -0.136689,0.0683 -1.626983,0 -1.889881,0 -1.385911,0 -2.771825,0 -4.157737,0 -0.886423,0 0.178179,-0.0891 -0.755954,0.37798 -0.09939,0.0497 -1.314252,0 -1.511903,0 -0.125992,0 -0.251984,0 -0.377976,0 -0.125992,0 -0.288888,-0.0891 -0.377978,0 -0.08909,0.0891 0.08909,0.28888 0,0.37797 -0.178179,0.17819 -0.530569,-0.11269 -0.755952,0 -0.159369,0.0797 -0.218607,0.2983 -0.377976,0.37798 -0.225383,0.11269 -0.577773,-0.17818 -0.755952,0 -0.08909,0.0891 0.08909,0.28889 0,0.37798 -0.178181,0.17818 -0.577773,-0.17818 -0.755954,0 -0.08909,0.0891 0.08909,0.28888 0,0.37797 -0.178178,0.17818 -0.57777,-0.17818 -0.755951,0 -0.08909,0.0891 0.08909,0.28889 0,0.37798 -0.178179,0.17818 -0.577774,-0.17818 -0.755952,0 -0.08909,0.0891 0.08909,0.28889 0,0.37798 -0.08909,0.0891 -0.265287,-0.0563 -0.377976,0 -0.159369,0.0797 -0.218609,0.29829 -0.377976,0.37797 -0.112691,0.0563 -0.288888,-0.0891 -0.377978,0 -0.08909,0.0891 0.08909,0.28889 0,0.37798 -0.08909,0.0891 -0.288885,-0.0891 -0.377976,0 -0.08909,0.0891 0.08909,0.28889 0,0.37797 -0.08909,0.0891 -0.265284,-0.0563 -0.377976,0 -0.100356,0.0502 -1.083749,1.03358 -1.133927,1.13393 -0.05635,0.1127 0.08909,0.28889 0,0.37798 -0.08909,0.0891 -0.288888,-0.0891 -0.377976,0 -0.08909,0.0891 0.05634,0.26528 0,0.37798 -0.786524,1.57304 0.02609,-0.40407 -0.755954,0.37797 -0.08909,0.0891 0.08909,0.28889 0,0.37798 -0.08909,0.0891 -0.288885,-0.0891 -0.377976,0 -0.178178,0.17818 0.178181,0.57777 0,0.75595 -0.08909,0.0891 -0.288885,-0.0891 -0.377976,0 -0.08909,0.0891 0.08909,0.28889 0,0.37798 -0.503968,0.50396 -0.377976,-0.62996 -0.377976,0.37797 0,0.12599 -0.08909,0.28889 0,0.37798 0.08909,0.0891 0.288886,-0.0891 0.377976,0 0.08909,0.0891 0.08909,0.28888 0,0.37797 -0.554365,0.55437 -0.340177,-0.71815 -0.377976,-0.75595 -0.08909,-0.0891 -0.288888,0.0891 -0.377975,0 -0.08909,-0.0891 0.08909,-0.28888 0,-0.37797 -0.08909,-0.0891 -0.288888,0.0891 -0.377976,0 -0.08909,-0.0891 0.08909,-0.28889 0,-0.37798 -0.08909,-0.0891 -0.288888,0.0891 -0.377979,0 -0.08909,-0.0891 0.08909,-0.28889 0,-0.37797 -0.08909,-0.0891 -0.251984,0 -0.377975,0 0,-0.126 0.05635,-0.26529 0,-0.37798 -0.107982,-0.21597 -1.123998,-0.76588 -0.755952,-1.13393 0.01214,-0.0121 1.04226,0 1.133927,0 1.385914,0 2.771826,0 4.15774,0 0.125991,0 0.251983,0 0.377975,0 0.125992,0 0.288888,-0.0891 0.377976,0 0.503968,0.50397 -0.62996,0.37798 0.377976,0.37798 0.125992,0 0.251986,0 0.377978,0 0.125992,0 0.288886,-0.0891 0.377976,0 0.08909,0.0891 -0.08909,0.28888 0,0.37797 0.08909,0.0891 0.377976,-0.12599 0.377976,0 0,0.0663 -1.374272,-0.0688 -1.511906,0 -0.159369,0.0797 -0.218607,0.29829 -0.377976,0.37798 -0.205046,0.10252 -1.408483,-0.10342 -1.511903,0 -0.08909,0.0891 0.08909,0.28888 0,0.37798 -0.08909,0.0891 -0.251986,0 -0.377978,0 -0.125992,0 -0.251984,0 -0.377976,0 -0.88642,0 0.178181,-0.0891 -0.755952,0.37797 -0.112691,0.0563 -0.377976,0.12599 -0.377976,0 0,-0.12599 0.288886,-0.0891 0.377976,0 0.08909,0.0891 0,0.25199 0,0.37798"
       id="path87"
       inkscape:connector-curvature="0" />
    <path
       style="fill:none;stroke:#000000;stroke-width:0.26458332px;stroke-linecap:butt;stroke-linejoin:miter;stroke-opacity:1"
       d="m 171.22321,126.91072 c 0.58059,1.294 -0.80538,1.23278 -1.13393,1.88988 -0.0563,0.11269 0.0564,0.26528 0,0.37798 -0.0797,0.15936 -0.29829,0.2186 -0.37797,0.37797 -0.0564,0.11269 0.0891,0.28889 0,0.37798 -0.0891,0.0891 -0.28889,-0.0891 -0.37798,0 -0.17818,0.17818 0.11269,0.53057 0,0.75595 -0.0797,0.15937 -0.25198,0.25199 -0.37797,0.37798 -0.126,0.12599 -0.21861,0.29829 -0.37798,0.37797 -0.11269,0.0564 -0.28889,-0.0891 -0.37798,0 -0.0891,0.0891 0.0891,0.28889 0,0.37798 -0.0891,0.0891 -0.28888,-0.0891 -0.37797,0 -0.0891,0.0891 0.0891,0.28888 0,0.37797 -0.17818,0.17819 -0.57778,-0.17817 -0.75596,0 -0.0891,0.0891 0.0891,0.28889 0,0.37798 -0.17817,0.17818 -0.53057,-0.11269 -0.75595,0 -0.15937,0.0797 -0.2186,0.29829 -0.37797,0.37798 -0.1127,0.0563 -0.26529,-0.0563 -0.37798,0 -0.15937,0.0797 -0.21861,0.29829 -0.37798,0.37797 -0.30238,0.1512 -0.83154,-0.15119 -1.13393,0 -0.15936,0.0797 -0.2186,0.2983 -0.37797,0.37798 -0.23757,0.11878 -1.27434,-0.11878 -1.51191,0 -0.15937,0.0797 -0.2186,0.29829 -0.37797,0.37798 -0.24052,0.12025 -1.5631,-0.10893 -1.88988,0 -0.26727,0.0891 -0.48869,0.28888 -0.75596,0.37797 -0.21895,0.073 -1.18435,0 -1.5119,0 -0.75595,0 -1.51191,0 -2.26786,0 -0.25198,0 -0.51149,0.0611 -0.75595,0 -0.27332,-0.0683 -0.48264,-0.30965 -0.75595,-0.37797 -0.36669,-0.0917 -0.77535,0.11952 -1.13393,0 -2.1415,-1.07075 0.56345,0.14086 -1.51191,-0.37798 -0.54663,-0.13666 -0.96527,-0.61929 -1.5119,-0.75595 -0.24446,-0.0611 -0.51149,0.0611 -0.75595,0 -0.54663,-0.13666 -0.96528,-0.6193 -1.51191,-0.75596 -0.24446,-0.0611 -0.51149,0.0611 -0.75595,0 -0.68411,0.22782 -0.70297,-0.61229 -1.13393,-0.75595 -0.23905,-0.0797 -0.5169,0.0797 -0.75595,0 -0.16904,-0.0563 -0.22972,-0.27914 -0.37798,-0.37797 -2.74054,-1.37028 0.59764,0.39842 -1.13393,-0.75595 -0.23441,-0.15628 -0.52154,-0.22171 -0.75595,-0.37798 -0.14825,-0.0988 -0.20894,-0.32163 -0.37797,-0.37798 -0.23906,-0.0797 -0.5169,0.0797 -0.75596,0 -0.16903,-0.0563 -0.22972,-0.27914 -0.37797,-0.37797 -0.23441,-0.15628 -0.52154,-0.22171 -0.75596,-0.37798 -0.14825,-0.0988 -0.22972,-0.27914 -0.37797,-0.37798 -0.23441,-0.15627 -0.52154,-0.2217 -0.75595,-0.37797 -0.14826,-0.0988 -0.22972,-0.27914 -0.37798,-0.37798 -0.46882,-0.31255 -1.04308,-0.4434 -1.5119,-0.75595 -0.14826,-0.0988 -0.20895,-0.32163 -0.37798,-0.37798 -0.23905,-0.0797 -0.5169,0.0797 -0.75595,0 -0.16904,-0.0563 -0.21861,-0.29829 -0.37798,-0.37797 -0.11269,-0.0563 -0.26528,0.0563 -0.37798,0 -0.15937,-0.0797 -0.2186,-0.29829 -0.37797,-0.37798 -0.11269,-0.0564 -0.25199,0 -0.37798,0 -0.12599,-0.12599 -0.2186,-0.29829 -0.37797,-0.37798 -0.0994,-0.0497 -1.31426,0 -1.51191,0 -0.62996,0 -1.25992,0 -1.88988,0 -0.24837,0 -0.92067,-0.0711 -1.13393,0 -0.26727,0.0891 -0.48868,0.28889 -0.75595,0.37798 -0.40164,0.13388 -1.11026,-0.13388 -1.51191,0 -0.26726,0.0891 -0.48868,0.28889 -0.75595,0.37798 -0.11953,0.0398 -0.25198,0 -0.37797,0 -0.21097,0 -1.71686,-0.0577 -1.88988,0 -0.16904,0.0563 -0.20894,0.32163 -0.37798,0.37797 -0.35858,0.11953 -0.75595,0 -1.13393,0 -0.75595,0 -1.5119,0 -2.26786,0 -2.01587,0 -4.03174,0 -6.04762,0 -0.0917,0 -1.12177,-0.0121 -1.13392,0 -0.0891,0.0891 0.0891,0.28889 0,0.37798 -0.0152,0.0152 -1.3731,0 -1.51191,0 -0.85394,0 0.16904,-0.0563 -1.13393,0.37797 -0.25998,0.0867 -0.91091,-0.1115 -1.13393,0 -0.15936,0.0797 -0.2186,0.2983 -0.37797,0.37798 -0.11269,0.0564 -0.26529,-0.0563 -0.37798,0 -0.15937,0.0797 -0.21861,0.29829 -0.37797,0.37798 -0.1127,0.0563 -0.26529,-0.0563 -0.37798,0 -0.15937,0.0797 -0.21861,0.29829 -0.37798,0.37797 -0.11269,0.0564 -0.26528,-0.0563 -0.37797,0 -0.15937,0.0797 -0.21861,0.29829 -0.37798,0.37798 -0.11269,0.0564 -0.26529,-0.0564 -0.37798,0 -0.45357,0.22678 -0.68035,0.90714 -1.13392,1.13393 -0.22539,0.11269 -0.53058,-0.11269 -0.75596,0 -0.15936,0.0797 -0.2186,0.29829 -0.37797,0.37798 -0.11269,0.0563 -0.26529,-0.0564 -0.37798,0 -0.15937,0.0797 -0.21861,0.29829 -0.37798,0.37797 -0.11269,0.0563 -0.28888,-0.0891 -0.37797,0 -0.0891,0.0891 0.0891,0.28889 0,0.37798 -0.0891,0.0891 -0.28889,-0.0891 -0.37798,0 -0.0891,0.0891 0.0891,0.28888 0,0.37797 -0.0891,0.0891 -0.28889,-0.0891 -0.37797,0 -0.0891,0.0891 0.0891,0.28889 0,0.37798 -0.0891,0.0891 -0.28889,-0.0891 -0.37798,0 -0.0891,0.0891 0.12599,0.37797 0,0.37797 -0.12599,0 0.0563,-0.26528 0,-0.37797 -0.0797,-0.15937 -0.29829,-0.21861 -0.37798,-0.37798 -0.11269,-0.22538 0.17818,-0.57777 0,-0.75595 -0.0891,-0.0891 -0.28888,0.0891 -0.37797,0 -0.17818,-0.17818 0.17818,-0.57777 0,-0.75595 -0.0891,-0.0891 -0.28889,0.0891 -0.37798,0 -0.17818,-0.17818 0.17818,-0.57777 0,-0.75595 -0.0891,-0.0891 -0.28888,0.0891 -0.37797,0 -0.0891,-0.0891 0.0563,-0.26529 0,-0.37798 -0.0797,-0.15937 -0.37798,-0.1998 -0.37798,-0.37798 0,-0.12599 0.25198,0 0.37798,0 0.12599,0 0.25198,0 0.37797,0 0.12599,0 0.28889,-0.0891 0.37798,0 0.0891,0.0891 -0.0891,0.28889 0,0.37798 0.0773,0.0773 0.98406,-0.0749 1.13393,0 0.15937,0.0797 0.2186,0.29829 0.37797,0.37798 0.22538,0.11269 0.57778,-0.17818 0.75595,0 0.0891,0.0891 -0.0891,0.28888 0,0.37797 0.17819,0.17818 0.57778,-0.17818 0.75596,0 0.0891,0.0891 -0.0891,0.28889 0,0.37798 0.0891,0.0891 0.28888,-0.0891 0.37797,0 0.0891,0.0891 -0.0891,0.28888 0,0.37798 0.0891,0.0891 0.26529,-0.0564 0.37798,0 0.15937,0.0797 0.21861,0.29829 0.37798,0.37797 0.11269,0.0563 0.28888,-0.0891 0.37797,0 0.0891,0.0891 -0.0891,0.28889 0,0.37798 0.0891,0.0891 0.28889,-0.0891 0.37798,0 0.0891,0.0891 0.0891,0.28888 0,0.37797 -0.0891,0.0891 -0.25199,0 -0.37798,0 -0.75595,0 -1.5119,0 -2.26786,0 -0.12599,0 -0.28888,-0.0891 -0.37797,0 -0.0891,0.0891 0.0891,0.28889 0,0.37798 -0.2366,0.2366 -1.108,-0.37798 0,-0.37798"
       id="path89"
       inkscape:connector-curvature="0" />
    <path
       style="fill:none;stroke:#000000;stroke-width:0.26458332px;stroke-linecap:butt;stroke-linejoin:miter;stroke-opacity:1"
       d="m 129.64583,104.23215 c -0.12599,0.62996 -0.37797,1.24744 -0.37797,1.88988 0,0.17818 0.29829,0.21861 0.37797,0.37797 0.0659,0.13178 0,1.9904 0,2.26786 0,1.51191 0,3.02381 0,4.53572 0,0.37797 0,0.75595 0,1.13393 0,0.25198 -0.0494,0.50886 0,0.75595 0.0781,0.39068 0.31248,0.74092 0.37798,1.13392 0.14499,0.86995 -0.12473,1.77276 0,2.64584 0.0563,0.39441 0.26852,0.75084 0.37797,1.13393 0.14272,0.49949 0.30451,0.99764 0.37798,1.5119 0.0535,0.37418 0,0.75596 0,1.13393 0.12599,0.50397 0.29258,0.99949 0.37798,1.5119 0.20998,1.25993 -0.31498,0.31499 0,1.88989 0.0553,0.27625 0.30964,0.48263 0.37797,0.75595 0.0611,0.24446 0,0.50397 0,0.75595 0,0.25199 0,0.50397 0,0.75595 0,0.126 -0.0398,0.25845 0,0.37798 0.0891,0.26727 0.28889,0.48868 0.37798,0.75595 0.0793,0.2379 0,1.54919 0,1.88988 0,1.25992 0,2.51984 0,3.77976 0,4.15774 0,8.31548 0,12.47322 0,3.65377 0,7.30754 0,10.96131 0,1.00794 0,2.01587 0,3.02381 0,0.21097 -0.0577,1.71685 0,1.88988 0.0563,0.16904 0.32163,0.20894 0.37797,0.37797 0.0797,0.23906 0,0.50397 0,0.75596 0,0.25198 0,0.50397 0,0.75595 0,1.00794 0,2.01587 0,3.02381 0,0.37797 -0.0917,0.76724 0,1.13393 0.0683,0.27331 0.28889,0.48868 0.37798,0.75595 0.0398,0.11953 0,0.25198 0,0.37798 0,0.25198 0,0.50396 0,0.75595 0,0.88194 0,1.76389 0,2.64583 0,0.25199 -0.0797,0.5169 0,0.75595 0.0564,0.16904 0.29829,0.21861 0.37798,0.37798 0.0497,0.0994 0,1.31425 0,1.5119 0,0.17023 -0.0575,1.0189 0,1.13393 0.0797,0.15937 0.29829,0.21861 0.37797,0.37798 0.0564,0.11269 0,0.25198 0,0.37798 0,0.12599 0,0.25198 0,0.37797 0,0.62996 0,1.25992 0,1.88988 0,0.126 0,0.25199 0,0.37798 0,0.12599 -0.0563,0.26528 0,0.37798 0.0797,0.15936 0.2983,0.2186 0.37798,0.37797 0.0563,0.11269 0,0.25199 0,0.37798 0,0.26791 -0.0489,2.17013 0,2.26785 0.0797,0.15937 0.29829,0.21861 0.37798,0.37798 0.0563,0.11269 0,0.25198 0,0.37798 0,0.12599 0,0.25198 0,0.37797 0,0.75596 0,1.51191 0,2.26786 0,0.12599 0,0.25198 0,0.37798 0,0.12599 -0.0891,0.28888 0,0.37797 0.0891,0.0891 0.28888,-0.0891 0.37797,0 0.0891,0.0891 0,0.25199 0,0.37798 0,0.62996 0,1.25992 0,1.88988 0,0.88642 -0.0891,-0.17818 0.37798,0.75595 0.0489,0.0977 0,1.99995 0,2.26786 0,0.12599 0,0.25198 0,0.37798 0,0.12599 -0.0891,0.28888 0,0.37797 0.50397,0.50397 0.37797,-0.62996 0.37797,0.37798 0,0.25198 0,0.50397 0,0.75595 0,0.12599 0.126,0.37798 0,0.37798 -0.62679,0 -0.26503,-0.53007 -0.37797,-0.75596 -0.0797,-0.15937 -0.25199,-0.25198 -0.37798,-0.37797 -0.12599,-0.12599 -0.25198,-0.25199 -0.37797,-0.37798 -0.126,-0.12599 -0.29829,-0.2186 -0.37798,-0.37797 -0.0563,-0.1127 0.0891,-0.28889 0,-0.37798 -0.0891,-0.0891 -0.28889,0.0891 -0.37798,0 -0.0891,-0.0891 0.0891,-0.28889 0,-0.37798 -0.0891,-0.0891 -0.28888,0.0891 -0.37797,0 -0.78205,-0.78204 1.19507,0.0306 -0.37798,-0.75595 -0.11269,-0.0563 -0.28888,0.0891 -0.37798,0 -0.0891,-0.0891 0.0563,-0.26528 0,-0.37798 -0.0797,-0.15936 -0.25198,-0.25198 -0.37797,-0.37797 -0.0917,-0.0917 -1.13393,-1.10962 -1.13393,-1.13393 0,-0.12599 0.26529,-0.0563 0.37798,0 0.15936,0.0797 0.2186,0.29829 0.37797,0.37798 0.11503,0.0575 0.96371,0 1.13393,0 0.17822,0 1.87275,-0.0171 1.88988,0 0.0891,0.0891 -0.0891,0.28888 0,0.37797 0.13268,0.13268 1.6288,-0.13054 1.88988,0 0.15937,0.0797 0.21861,0.29829 0.37798,0.37798 0.20505,0.10252 1.40848,-0.10342 1.5119,0 0.0891,0.0891 0.0891,0.28888 0,0.37797 -0.0891,0.0891 -0.28888,-0.0891 -0.37797,0 -0.0891,0.0891 0.0563,0.26529 0,0.37798 -0.0797,0.15937 -0.29829,0.21861 -0.37798,0.37798 -0.0563,0.11269 0.0564,0.26528 0,0.37797 -0.41786,0.83573 -0.23459,0.1173 -0.75595,0.37798 -0.15937,0.0797 -0.25198,0.25198 -0.37798,0.37798 -0.12599,0.12599 -0.29829,0.2186 -0.37797,0.37797 -0.0563,0.11269 0.0563,0.26529 0,0.37798 -0.0797,0.15937 -0.2983,0.2186 -0.37798,0.37797 -0.0564,0.1127 0.0891,0.28889 0,0.37798 -0.0891,0.0891 -0.28889,-0.0891 -0.37798,0 -0.0891,0.0891 0.0891,0.28889 0,0.37798 -0.0891,0.0891 -0.28888,-0.0891 -0.37797,0 -0.0891,0.0891 0.12599,0.37797 0,0.37797 -0.12599,0 0,-0.25198 0,-0.37797"
       id="path91"
       inkscape:connector-curvature="0" />
    <path
       style="fill:none;stroke:#000000;stroke-width:0.26458332px;stroke-linecap:butt;stroke-linejoin:miter;stroke-opacity:1"
       d="m 171.22321,126.91072 c 1.88988,0.88194 3.82946,1.6644 5.66965,2.64583 0.0431,0.023 0,1.10572 0,1.51191 0,1.25992 0,2.51984 0,3.77976 0,0.31651 0.0718,1.60244 0,1.88988 -0.0683,0.27331 -0.30965,0.48264 -0.37798,0.75595 -0.0917,0.36669 0.11953,0.77535 0,1.13393 -0.0891,0.26727 -0.30965,0.48264 -0.37798,0.75595 -0.0611,0.24446 0.0797,0.5169 0,0.75595 -0.0563,0.16904 -0.29829,0.21861 -0.37797,0.37798 -0.0563,0.11269 0.0563,0.26529 0,0.37798 -0.0797,0.15937 -0.2983,0.21861 -0.37798,0.37797 -0.11269,0.22538 0.11269,0.53057 0,0.75596 -0.0797,0.15937 -0.29829,0.2186 -0.37798,0.37797 -0.0563,0.11269 0,0.25199 0,0.37798 0,0.25198 0.0797,0.5169 0,0.75595 -0.11269,0.33807 -0.64326,0.41788 -0.75595,0.75595 -0.0797,0.23906 0.0797,0.5169 0,0.75596 -0.0563,0.16903 -0.27914,0.22972 -0.37797,0.37797 -0.35365,0.53046 -0.40232,0.98144 -0.75596,1.51191 -0.0988,0.14825 -0.27914,0.22972 -0.37797,0.37797 -0.15628,0.23441 -0.22171,0.52154 -0.37798,0.75595 -0.0988,0.14826 -0.27914,0.22973 -0.37798,0.37798 -0.12599,0.25198 -0.25198,0.50397 -0.37797,0.75595 0,0.126 0.0563,0.26529 0,0.37798 -0.15937,0.31874 -0.55828,0.45944 -0.75595,0.75595 -0.12599,0.25199 -0.25199,0.50397 -0.37798,0.75595 0,0.126 0.0563,0.26529 0,0.37798 -0.25102,0.50205 -0.50493,0.25391 -0.75595,0.75595 -0.0564,0.11269 0.0398,0.25845 0,0.37798 -0.0891,0.26727 -0.28889,0.48868 -0.37798,0.75595 -0.0398,0.11953 0.0564,0.26529 0,0.37798 -0.15937,0.31873 -0.59658,0.43721 -0.75595,0.75595 -0.0564,0.11269 0.0564,0.26529 0,0.37798 -0.14437,0.28873 -1.04861,0.87798 -1.13393,1.13392 -0.0797,0.23906 0.0797,0.5169 0,0.75596 -0.11269,0.33807 -0.59658,0.43721 -0.75595,0.75595 -0.0564,0.11269 0,0.25198 0,0.37798 -0.12599,0.25198 -0.2217,0.52154 -0.37798,0.75595 -0.0988,0.14825 -0.32163,0.20894 -0.37797,0.37797 -0.0797,0.23906 0.0797,0.5169 0,0.75596 -0.0563,0.16903 -0.29829,0.2186 -0.37798,0.37797 -0.0564,0.11269 0.0563,0.26529 0,0.37798 -0.0797,0.15937 -0.29829,0.21861 -0.37798,0.37797 -0.10187,0.20375 0.10187,0.55221 0,0.75596 -0.0797,0.15937 -0.29829,0.21861 -0.37797,0.37798 -0.15119,0.30237 0.15119,0.83154 0,1.13392 -0.0797,0.15937 -0.2983,0.21861 -0.37798,0.37798 -0.11269,0.22538 0.11269,0.53057 0,0.75595 -0.0797,0.15937 -0.32163,0.20894 -0.37798,0.37798 -0.0797,0.23905 0,0.50397 0,0.75595 0,0.12599 0.0563,0.26528 0,0.37798 -0.0797,0.15936 -0.29829,0.2186 -0.37797,0.37797 -0.11151,0.22302 0.0867,0.87395 0,1.13393 -0.0891,0.26727 -0.28889,0.48868 -0.37798,0.75595 -0.0815,0.24444 0,1.47717 0,1.88988 0,1.25992 0,2.51984 0,3.77977 0,0.88194 0,1.76389 0,2.64583 0,0.12599 -0.0891,0.28888 0,0.37797 0.0891,0.0891 0.28889,-0.0891 0.37798,0 0.0891,0.0891 0,0.25199 0,0.37798 0,0.12599 0,0.25198 0,0.37798 0,0.62996 0,1.25992 0,1.88988 0,0.25198 -0.0797,0.5169 0,0.75595 0.0891,0.26727 0.28888,0.48868 0.37797,0.75595 0.0399,0.11953 0,0.25199 0,0.37798 0,0.25198 0,0.50397 0,0.75595 0,0.88194 0,1.76389 0,2.64583 0,0.25199 -0.0797,0.51691 0,0.75596 0.0563,0.16903 0.2983,0.21861 0.37798,0.37797 0.0424,0.0847 0,1.42209 0,1.51191 0,0.75595 0,1.5119 0,2.26786 0,0.12599 0,0.25198 0,0.37797 0,0.12599 -0.0891,0.28889 0,0.37798 0.0891,0.0891 0.28889,-0.0891 0.37798,0 0.0122,0.0122 0,1.04226 0,1.13393 0,0.62996 0,1.25992 0,1.88988 0,0.12599 0,0.25198 0,0.37797 0,0.126 0.0563,0.26529 0,0.37798 -0.0797,0.15937 -0.2983,0.21861 -0.37798,0.37798 -0.0575,0.11503 0,0.9637 0,1.13392 0,0.25199 0,0.50397 0,0.75596 0,0.12599 0.12599,0.37797 0,0.37797 -0.25198,0 0.17818,-0.57777 0,-0.75595 -0.0891,-0.0891 -0.28888,0.0891 -0.37798,0 -0.0773,-0.0773 0.0749,-0.98406 0,-1.13393 -1.25358,-1.25359 0.17819,0.35636 -0.37797,-0.75595 -0.25102,-0.50205 -0.50493,-0.25391 -0.75595,-0.75595 -0.0563,-0.11269 0.0563,-0.26529 0,-0.37798 -0.0797,-0.15937 -0.2983,-0.21861 -0.37798,-0.37798 -0.0563,-0.11269 0.0563,-0.26528 0,-0.37797 -0.15937,-0.31874 -0.59658,-0.43722 -0.75595,-0.75595 -0.0564,-0.11269 0.0891,-0.28889 0,-0.37798 -0.0891,-0.0891 -0.28889,0.0891 -0.37798,0 -0.0891,-0.0891 0.0891,-0.28889 0,-0.37798 -0.0891,-0.0891 -0.28888,0.0891 -0.37797,0 -0.0891,-0.0891 -0.0891,-0.28888 0,-0.37797 0.29547,-0.29548 0.65754,0.32877 0.75595,0.37797 0.23845,0.11923 1.65143,-0.11922 1.88988,0 0.15937,0.0797 0.21861,0.2983 0.37797,0.37798 0.1127,0.0563 0.26529,-0.0563 0.37798,0 0.15937,0.0797 0.21861,0.29829 0.37798,0.37798 0.11269,0.0563 0.26528,-0.0563 0.37797,0 0.15937,0.0797 0.21861,0.29829 0.37798,0.37797 0.26108,0.13054 1.7572,-0.13268 1.88988,0 0.0891,0.0891 0.0891,0.28889 0,0.37798 -0.0891,0.0891 -0.28889,-0.0891 -0.37798,0 -0.0891,0.0891 0.0891,0.28888 0,0.37797 -0.0891,0.0891 -0.28888,-0.0891 -0.37797,0 -0.0891,0.0891 0.0891,0.28889 0,0.37798 -0.0891,0.0891 -0.28889,-0.0891 -0.37798,0 -0.17818,0.17818 0.11269,0.53057 0,0.75595 -0.0797,0.15937 -0.29829,0.21861 -0.37797,0.37798 -0.0563,0.11269 0.0891,0.28889 0,0.37798 -0.0891,0.0891 -0.28889,-0.0891 -0.37798,0 -0.0891,0.0891 0.0563,0.26528 0,0.37797 -0.0797,0.15937 -0.29829,0.21861 -0.37798,0.37798 -0.11269,0.22538 0.11269,0.53057 0,0.75595 -0.0797,0.15937 -0.37797,0.1998 -0.37797,0.37798 0,0.12599 0.25198,0 0.37797,0"
       id="path93"
       inkscape:connector-curvature="0" />
    <path
       style="fill:none;stroke:#000000;stroke-width:0.26458332px;stroke-linecap:butt;stroke-linejoin:miter;stroke-opacity:1"
       d="m 214.69047,161.68453 c 0.0268,0.58001 -3.25349,0.30383 -3.40178,0.37798 -0.15937,0.0797 -0.20894,0.32163 -0.37798,0.37797 -0.23905,0.0797 -0.50397,0 -0.75595,0 -0.43908,0 -1.54723,-0.0857 -1.88988,0 -0.27332,0.0683 -0.48264,0.30965 -0.75596,0.37798 -0.24445,0.0611 -0.50396,0 -0.75595,0 -0.62996,0 -1.27215,-0.12355 -1.88988,0 -0.27625,0.0553 -0.48264,0.30964 -0.75595,0.37797 -0.24446,0.0611 -0.50397,0 -0.75595,0 -0.25199,0 -0.50397,0 -0.75595,0 -0.39307,0 -1.97054,0.0743 -2.26786,0 -0.27332,-0.0683 -0.48264,-0.30964 -0.75596,-0.37797 -0.24445,-0.0611 -0.50396,0 -0.75595,0 -0.75595,0 -1.5119,0 -2.26785,0 -0.25199,0 -0.51149,0.0611 -0.75596,0 -0.27331,-0.0683 -0.47969,-0.32273 -0.75595,-0.37798 -0.37063,-0.0741 -0.76109,0.0621 -1.13393,0 -0.393,-0.0655 -0.74092,-0.31247 -1.13392,-0.37797 -1.02589,-0.17099 -2.37591,0.17097 -3.40179,0 -0.393,-0.0655 -0.74093,-0.31248 -1.13393,-0.37798 -0.37283,-0.0621 -0.75595,0 -1.13393,0 -0.37797,0 -0.75595,0 -1.13393,0 -0.25198,0 -0.50886,0.0494 -0.75595,0 -0.39068,-0.0781 -0.74324,-0.29984 -1.13393,-0.37798 -0.49418,-0.0988 -1.02298,0.12223 -1.5119,0 -0.27332,-0.0683 -0.4797,-0.32272 -0.75595,-0.37798 -0.61773,-0.12354 -1.25993,0 -1.88989,0 -1.25991,0 -2.51984,0 -3.77976,0 -0.88194,0 -1.76389,0 -2.64583,0 -0.25198,0 -0.51149,-0.0611 -0.75595,0 -0.27332,0.0683 -0.48264,0.30965 -0.75596,0.37798 -0.48892,0.12223 -1.02298,-0.12223 -1.5119,0 -0.27332,0.0683 -0.48868,0.28889 -0.75595,0.37798 -0.11953,0.0398 -0.25199,0 -0.37798,0 -0.75595,0 -1.5119,0 -2.26786,0 -0.25198,0 -0.51149,-0.0611 -0.75595,0 -0.27331,0.0683 -0.50397,0.25198 -0.75595,0.37798 -0.37798,0 -0.76329,-0.0741 -1.13393,0 -0.27625,0.0553 -0.47969,0.32272 -0.75595,0.37797 -0.61161,0.18532 -1.27215,-0.12355 -1.88988,0 -0.78137,0.15627 -1.48649,0.59968 -2.26786,0.75595 -0.24709,0.0494 -0.51149,-0.0611 -0.75595,0 -0.27332,0.0683 -0.4797,0.32273 -0.75595,0.37798 -0.37064,0.0741 -0.7633,-0.0741 -1.13393,0 -0.27626,0.0553 -0.48264,0.30965 -0.75596,0.37797 -0.24445,0.0611 -0.51149,-0.0611 -0.75595,0 -0.27331,0.0683 -0.47969,0.32273 -0.75595,0.37798 -0.37063,0.0741 -0.76329,-0.0741 -1.13393,0 -0.27626,0.0553 -0.48264,0.30965 -0.75595,0.37798 -0.24446,0.0611 -0.5169,-0.0797 -0.75595,0 -0.16904,0.0563 -0.20894,0.32163 -0.37798,0.37797 -0.23905,0.0797 -0.51149,-0.0611 -0.75595,0 -1.09622,0.27406 -0.44233,0.29489 -1.13393,0.75596 -0.23441,0.15627 -0.52154,0.2217 -0.75595,0.37797 -0.14826,0.0988 -0.22973,0.27914 -0.37798,0.37798 -0.86908,0.57938 -1.0208,0.17656 -1.88988,0.75595 -0.56696,0.37798 -0.37798,0.75595 -1.13393,1.13393 -0.22538,0.11269 -0.5169,-0.0797 -0.75595,0 -0.16904,0.0563 -0.22972,0.27914 -0.37798,0.37797 -2.74054,1.37028 0.59764,-0.39842 -1.13393,0.75596 -1.90946,1.27297 -0.009,0.003 -1.13392,0.37797 -0.26727,0.0891 -0.52154,0.22171 -0.75596,0.37798 -0.14825,0.0988 -0.20894,0.32163 -0.37797,0.37798 -0.23905,0.0797 -0.5169,-0.0797 -0.75596,0 -0.33807,0.11269 -0.41788,0.64326 -0.75595,0.75595 -0.23905,0.0797 -0.5169,-0.0797 -0.75595,0 -0.33807,0.11269 -0.43721,0.59658 -0.75595,0.75595 -0.11269,0.0563 -0.25845,-0.0398 -0.37798,0 -0.26727,0.0891 -0.48868,0.28889 -0.75595,0.37798 -0.11953,0.0398 -0.26529,-0.0563 -0.37798,0 -0.15936,0.0797 -0.21861,0.29829 -0.37797,0.37797 -0.11269,0.0564 -0.26529,-0.0563 -0.37798,0 -0.86033,0.86033 0.0783,0.0999 -0.75595,0.37798 -1.37028,0.45676 -0.26901,0.17933 -1.13393,0.75595 -0.23441,0.15627 -0.50397,0.25199 -0.75595,0.37798 -2.1415,1.07074 0.56345,-0.14086 -1.51191,0.37797 -0.27331,0.0683 -0.50396,0.25199 -0.75595,0.37798 -0.74451,0.37225 -1.49531,0.82491 -2.26786,1.13393 -0.36992,0.14797 -0.764,0.23 -1.13393,0.37797 -0.26157,0.10464 -0.49437,0.27335 -0.75595,0.37798 -0.36992,0.14797 -0.764,0.23001 -1.13393,0.37798 -0.26157,0.10463 -0.50397,0.25198 -0.75595,0.37797 -0.25198,0.126 -0.53057,0.20894 -0.75595,0.37798 -0.28509,0.21382 -0.45944,0.55828 -0.75595,0.75595 -0.10484,0.0699 -0.26529,-0.0563 -0.37798,0 -0.15937,0.0797 -0.21861,0.29829 -0.37798,0.37798 -0.11269,0.0563 -0.25198,0 -0.37797,0 -0.12599,0.12599 -0.21861,0.29829 -0.37798,0.37797 -0.11269,0.0564 -0.28888,-0.0891 -0.37797,0 -0.0891,0.0891 0.0891,0.28889 0,0.37798 -0.0891,0.0891 -0.26529,-0.0563 -0.37798,0 -0.15937,0.0797 -0.21861,0.29829 -0.37798,0.37798 -0.11269,0.0563 -0.26528,-0.0563 -0.37797,0 -1.72985,0.86492 1.60391,-0.15666 -1.13393,0.75595 -0.11953,0.0398 -0.26529,-0.0564 -0.37798,0 -1.72985,0.86492 1.60391,-0.15666 -1.13393,0.75595 -0.11952,0.0398 -0.25845,-0.0398 -0.37797,0 -0.26727,0.0891 -0.48869,0.28889 -0.75595,0.37798 -0.11953,0.0398 -0.26529,-0.0564 -0.37798,0 -0.15937,0.0797 -0.20894,0.32163 -0.37798,0.37797 -0.23905,0.0797 -0.50396,0 -0.75595,0 -0.12599,0 -0.26529,-0.0563 -0.37798,0 -0.15937,0.0797 -0.2186,0.2983 -0.37797,0.37798 -0.13669,0.0683 -1.62699,0 -1.88988,0 -0.126,0 -0.28889,-0.0891 -0.37798,0 -0.0891,0.0891 0.0891,0.28889 0,0.37798 -0.13268,0.13267 -1.6288,-0.13054 -1.88988,0 -0.15937,0.0797 -0.21861,0.29829 -0.37798,0.37797 -0.0994,0.0497 -1.31425,0 -1.5119,0 -1.38591,0 -2.77183,0 -4.15774,0 -0.25198,0 -0.50397,0 -0.75595,0 -0.25199,0 -0.5169,-0.0797 -0.75595,0 -0.16904,0.0564 -0.20894,0.32163 -0.37798,0.37798 -0.56696,0.18899 -1.32292,-0.18899 -1.88988,0 -0.169037,0.0563 -0.218607,0.29829 -0.377976,0.37797 -0.237567,0.11879 -1.274339,-0.11878 -1.511906,0 -0.159369,0.0797 -0.218607,0.2983 -0.377976,0.37798 -0.225383,0.11269 -0.530571,-0.11269 -0.755952,0 -0.159369,0.0797 -0.218609,0.29829 -0.377975,0.37798 -0.225383,0.11269 -0.530572,-0.11269 -0.755955,0 -0.159369,0.0797 -0.218606,0.29829 -0.377975,0.37797 -0.201399,0.1007 -0.554554,-0.1007 -0.755952,0 -0.159369,0.0797 -0.218607,0.2983 -0.377976,0.37798 -0.112691,0.0563 -0.265287,-0.0564 -0.377976,0 -0.159369,0.0797 -0.218609,0.29829 -0.377978,0.37798 -0.22538,0.11269 -0.577771,-0.17818 -0.755952,0 -0.08909,0.0891 0.08909,0.28888 0,0.37797 -0.08909,0.0891 -0.265284,-0.0563 -0.377975,0 -0.15937,0.0797 -0.218607,0.29829 -0.377976,0.37798 -0.112692,0.0563 -0.251984,0 -0.377976,0 -0.125992,0.12599 -0.218609,0.29829 -0.377976,0.37797 -0.112691,0.0564 -0.288888,-0.0891 -0.377978,0 -0.08909,0.0891 0.08909,0.28889 0,0.37798 -0.178179,0.17818 -0.577771,-0.17818 -0.755952,0 -0.08909,0.0891 0.08909,0.28889 0,0.37798 -0.08909,0.0891 -0.265284,-0.0563 -0.377976,0 -0.507095,0.25355 -0.248856,0.5024 -0.755951,0.75595 -0.112692,0.0563 -0.288888,-0.0891 -0.377976,0 -0.08909,0.0891 0.08909,0.28888 0,0.37798 -0.08909,0.0891 -0.288888,-0.0891 -0.377979,0 -0.08909,0.0891 0.08909,0.28888 0,0.37797 -0.08909,0.0891 -0.288885,-0.0891 -0.377975,0 -0.08909,0.0891 0.05635,0.26529 0,0.37798 -0.07968,0.15937 -0.298292,0.21861 -0.377976,0.37797 -0.05635,0.11269 0.05634,0.26529 0,0.37798 -0.159369,0.31874 -0.596583,0.43721 -0.755952,0.75595 -0.05635,0.11269 0.08909,0.28889 0,0.37798 -0.08909,0.0891 -0.288888,-0.0891 -0.377976,0 -0.08909,0.0891 0.05635,0.26528 0,0.37797 -0.159369,0.31874 -0.596585,0.43722 -0.755954,0.75596 -0.05634,0.11269 0.05635,0.26528 0,0.37797 -0.226785,0.45357 -0.907142,0.68036 -1.133927,1.13393 -0.05635,0.11269 0.08909,0.28889 0,0.37798 -0.08909,0.0891 -0.288886,-0.0891 -0.377976,0 -0.08909,0.0891 0.05634,0.26528 0,0.37797 -0.07968,0.15937 -0.298291,0.21861 -0.377976,0.37798 -0.05635,0.11269 0.08909,0.28889 0,0.37798 -0.08909,0.0891 -0.288888,-0.0891 -0.377976,0 -0.08909,0.0891 0.05634,0.26528 0,0.37797 -0.07968,0.15937 -0.298294,0.21861 -0.377978,0.37798 -0.112943,0.22589 0.248819,0.75595 -0.377976,0.75595 -0.755221,0 -0.15277,-0.90872 -0.377976,-1.13393 -0.08909,-0.0891 -0.288885,0.0891 -0.377976,0 -0.188989,-0.18899 0.18899,-0.94494 0,-1.13393 -0.08909,-0.0891 -0.288885,0.0891 -0.377976,0 -0.08909,-0.0891 0,-0.25198 0,-0.37797 0,-0.12599 -0.08909,-0.28889 0,-0.37798 0.08909,-0.0891 0.251984,0 0.377976,0 0.170225,0 1.018897,-0.0575 1.133928,0 0.159369,0.0797 0.218609,0.29829 0.377978,0.37798 0.22538,0.11269 0.530569,-0.11269 0.755952,0 0.159369,0.0797 0.218606,0.29829 0.377976,0.37797 0.26108,0.13054 1.757203,-0.13267 1.889881,0 0.08909,0.0891 -0.08909,0.28889 0,0.37798 0.178179,0.17818 0.530569,-0.11269 0.755952,0 0.159369,0.0797 0.218607,0.29829 0.377976,0.37798 0.112691,0.0563 0.288888,-0.0891 0.377976,0 0.08909,0.0891 0.08909,0.28888 0,0.37797 -0.07727,0.0773 -0.984063,-0.0749 -1.133928,0 -0.159369,0.0797 -0.218607,0.29829 -0.377976,0.37798 -0.225382,0.11269 -0.530571,-0.11269 -0.755954,0 -0.159366,0.0797 -0.218607,0.29829 -0.377976,0.37798 -0.112688,0.0563 -0.265284,-0.0564 -0.377976,0 -0.159369,0.0797 -0.218606,0.29829 -0.377975,0.37797 -0.302382,0.15119 -0.831549,-0.15119 -1.133928,0 -0.159369,0.0797 -0.218609,0.29829 -0.377978,0.37798 -0.06935,0.0347 -1.133928,-0.0277 -1.133928,0 0,0.53674 0.86519,0.37797 1.133928,0.37797"
       id="path95"
       inkscape:connector-curvature="0" />
    <path
       style="fill:none;stroke:#000000;stroke-width:0.26458332px;stroke-linecap:butt;stroke-linejoin:miter;stroke-opacity:1"
       d="m 214.69047,221.78274 c -2.28154,0.19316 0.0763,-1.43561 -0.37797,-1.88988 -0.0891,-0.0891 -0.28889,0.0891 -0.37798,0 -0.0891,-0.0891 0.0564,-0.26529 0,-0.37798 -1.25359,-1.25358 0.17818,0.35636 -0.37797,-0.75595 -0.22679,-0.45357 -0.90715,-0.68036 -1.13393,-1.13393 -0.0564,-0.11269 0.0563,-0.26528 0,-0.37797 -0.0797,-0.15937 -0.2983,-0.21861 -0.37798,-0.37798 -0.0563,-0.11269 0.0891,-0.28889 0,-0.37798 -0.0891,-0.0891 -0.28889,0.0891 -0.37798,0 -0.0891,-0.0891 0.0563,-0.26528 0,-0.37797 -0.0797,-0.15937 -0.29829,-0.21861 -0.37797,-0.37798 -0.0564,-0.11269 0.0891,-0.28889 0,-0.37797 -0.0891,-0.0891 -0.28889,0.0891 -0.37798,0 -0.17818,-0.17818 0.17818,-0.57778 0,-0.75596 -0.0891,-0.0891 -0.28889,0.0891 -0.37797,0 -0.0891,-0.0891 0.0563,-0.26528 0,-0.37797 -0.0797,-0.15937 -0.2983,-0.21861 -0.37798,-0.37798 -0.0563,-0.11269 0.0563,-0.26528 0,-0.37797 -0.22679,-0.45358 -0.90714,-0.68036 -1.13393,-1.13393 -0.0563,-0.11269 0.0564,-0.26529 0,-0.37798 -0.22678,-0.45357 -0.90714,-0.68036 -1.13393,-1.13393 -0.0563,-0.11269 0.0891,-0.28888 0,-0.37797 -0.78204,-0.78205 0.0306,1.19507 -0.75595,-0.37798 -0.0564,-0.11269 0.0563,-0.26529 0,-0.37798 -0.18597,-0.37194 -1.32593,-1.13996 -1.5119,-1.5119 -0.0563,-0.11269 0.0563,-0.26529 0,-0.37798 -0.34793,-0.69586 -0.786,-0.0601 -1.13393,-0.75595 -0.0564,-0.11269 0.0891,-0.28889 0,-0.37798 -0.0891,-0.0891 -0.26529,0.0564 -0.37798,0 -0.15937,-0.0797 -0.25198,-0.25198 -0.37798,-0.37797 -0.50396,-0.50397 -1.00793,-1.00794 -1.5119,-1.51191 -0.12599,-0.12599 -0.25199,-0.25198 -0.37798,-0.37797 -0.12599,-0.12599 -0.2186,-0.2983 -0.37797,-0.37798 -0.11269,-0.0563 -0.25199,0 -0.37798,0 -0.25198,-0.12599 -0.52154,-0.2217 -0.75595,-0.37798 -0.14825,-0.0988 -0.25198,-0.25198 -0.37798,-0.37797 -0.37798,-0.37798 -0.75595,-0.75595 -1.13393,-1.13393 -0.12599,-0.12599 -0.2186,-0.29829 -0.37797,-0.37798 -0.11269,-0.0563 -0.25199,0 -0.37798,0 -0.25198,-0.12599 -0.52154,-0.2217 -0.75595,-0.37797 -0.43613,-0.29075 -0.6978,-0.84318 -1.13393,-1.13393 -0.23441,-0.15627 -0.52154,-0.2217 -0.75595,-0.37798 -0.32616,-0.21743 -0.8387,-0.83869 -1.13393,-1.13393 -0.12599,-0.12599 -0.21861,-0.29829 -0.37798,-0.37797 -0.11269,-0.0564 -0.26528,0.0563 -0.37797,0 -0.45357,-0.22679 -0.68036,-0.90715 -1.13393,-1.13393 -0.93094,-0.46547 0.34121,1.09716 -1.13393,-0.37798 -0.78205,-0.78204 1.19507,0.0306 -0.37798,-0.75595 -0.11269,-0.0563 -0.26528,0.0563 -0.37797,0 -0.31874,-0.15937 -0.43722,-0.59658 -0.75595,-0.75595 -0.1127,-0.0564 -0.28889,0.0891 -0.37798,0 -0.0891,-0.0891 0.0891,-0.28889 0,-0.37798 -0.0891,-0.0891 -0.26529,0.0564 -0.37798,0 -0.31873,-0.15937 -0.43721,-0.59658 -0.75595,-0.75595 -0.11269,-0.0564 -0.28889,0.0891 -0.37798,0 -0.0891,-0.0891 0.0891,-0.28889 0,-0.37798 -0.0891,-0.0891 -0.26528,0.0564 -0.37797,0 -0.31874,-0.15936 -0.43722,-0.59658 -0.75595,-0.75595 -0.11269,-0.0563 -0.26529,0.0564 -0.37798,0 -0.15937,-0.0797 -0.21861,-0.29829 -0.37798,-0.37798 -0.11269,-0.0563 -0.28888,0.0891 -0.37797,0 -0.0891,-0.0891 0.0891,-0.28888 0,-0.37797 -0.0891,-0.0891 -0.26529,0.0563 -0.37798,0 -0.50205,-0.25102 -0.2539,-0.50493 -0.75595,-0.75595 -0.11269,-0.0563 -0.26529,0.0563 -0.37798,0 -0.15937,-0.0797 -0.21861,-0.2983 -0.37797,-0.37798 -0.11269,-0.0563 -0.26529,0.0563 -0.37798,0 -0.31874,-0.15937 -0.43721,-0.59658 -0.75595,-0.75595 -0.11269,-0.0564 -0.25845,0.0398 -0.37798,0 -0.26727,-0.0891 -0.48868,-0.28889 -0.75595,-0.37798 -0.11953,-0.0398 -0.26529,0.0564 -0.37798,0 -0.15936,-0.0797 -0.2186,-0.29829 -0.37797,-0.37797 -0.11269,-0.0564 -0.26529,0.0563 -0.37798,0 -0.15937,-0.0797 -0.20894,-0.32163 -0.37798,-0.37798 -0.23905,-0.0797 -0.51689,0.0797 -0.75595,0 -0.16903,-0.0564 -0.21861,-0.29829 -0.37797,-0.37798 -0.11269,-0.0563 -0.26529,0.0564 -0.37798,0 -0.15937,-0.0797 -0.20894,-0.32163 -0.37798,-0.37797 -0.23905,-0.0797 -0.5169,0.0797 -0.75595,0 -0.33807,-0.11269 -0.43721,-0.59659 -0.75595,-0.75596 -0.11269,-0.0563 -0.26529,0.0564 -0.37798,0 -0.15937,-0.0797 -0.21861,-0.29829 -0.37797,-0.37797 -0.11269,-0.0564 -0.28889,0.0891 -0.37798,0 -0.0891,-0.0891 0.0891,-0.28889 0,-0.37798 -0.0891,-0.0891 -0.26529,0.0564 -0.37798,0 -0.15937,-0.0797 -0.2186,-0.29829 -0.37797,-0.37797 -0.11269,-0.0563 -0.26529,0.0563 -0.37798,0 -0.15937,-0.0797 -0.2186,-0.29829 -0.37797,-0.37798 -0.1127,-0.0564 -0.26529,0.0563 -0.37798,0 -0.15937,-0.0797 -0.21861,-0.29829 -0.37798,-0.37798 -0.22538,-0.11269 -0.57777,0.17818 -0.75595,0 -0.78204,-0.78204 1.19507,0.0306 -0.37798,-0.75595 -0.11269,-0.0563 -0.26528,0.0564 -0.37797,0 -0.15937,-0.0797 -0.21861,-0.29829 -0.37798,-0.37798 -0.11269,-0.0563 -0.26528,0.0563 -0.37797,0 -0.15937,-0.0797 -0.21861,-0.29829 -0.37798,-0.37797 -0.11269,-0.0564 -0.26529,0.0563 -0.37798,0 -0.15937,-0.0797 -0.2186,-0.29829 -0.37797,-0.37798 -0.11269,-0.0563 -0.26529,0.0564 -0.37798,0 -0.15937,-0.0797 -0.21861,-0.29829 -0.37797,-0.37797 -0.1127,-0.0563 -0.26529,0.0563 -0.37798,0 -0.15937,-0.0797 -0.21861,-0.2983 -0.37798,-0.37798 -0.11269,-0.0563 -0.26528,0.0563 -0.37797,0 -0.31874,-0.15937 -0.43722,-0.59658 -0.75596,-0.75595 -0.11269,-0.0564 -0.26528,0.0563 -0.37797,0 -0.15937,-0.0797 -0.20894,-0.32163 -0.37798,-0.37798 -0.23905,-0.0797 -0.5169,0.0797 -0.75595,0 -0.16904,-0.0563 -0.21861,-0.29829 -0.37798,-0.37797 -0.11269,-0.0564 -0.26528,0.0563 -0.37797,0 -0.31874,-0.15937 -0.43722,-0.59659 -0.75596,-0.75596 -0.11269,-0.0563 -0.25198,0 -0.37797,0 -0.12599,-0.12599 -0.21861,-0.29829 -0.37798,-0.37797 -0.11269,-0.0563 -0.25198,0 -0.37797,0 -0.25199,0 -0.5169,0.0797 -0.75596,0 -0.16903,-0.0563 -0.2186,-0.2983 -0.37797,-0.37798 -0.11269,-0.0563 -0.26529,0.0563 -0.37798,0 -0.15937,-0.0797 -0.21861,-0.29829 -0.37797,-0.37798 -0.16819,-0.0841 -1.33903,0.0576 -1.51191,0 -0.16903,-0.0563 -0.21861,-0.29829 -0.37798,-0.37797 -0.11269,-0.0564 -0.25845,0.0398 -0.37797,0 -0.26727,-0.0891 -0.48868,-0.28889 -0.75595,-0.37798 -0.40165,-0.13388 -1.11027,0.13388 -1.51191,0 -0.16903,-0.0563 -0.20894,-0.32163 -0.37798,-0.37797 -0.35857,-0.11953 -0.75595,0 -1.13392,0 -0.62997,0 -1.25992,0 -1.88988,0 -1.13393,0 -2.26786,0 -3.40179,0 -0.37779,0 -1.56651,-0.0808 -1.88988,0 -0.38653,0.0966 -0.7474,0.28134 -1.13393,0.37797 -0.36669,0.0917 -0.76724,-0.0917 -1.13393,0 -0.27331,0.0683 -0.48264,0.30965 -0.75595,0.37798 -0.48892,0.12223 -1.0338,-0.15937 -1.51191,0 -0.16903,0.0563 -0.2186,0.29829 -0.37797,0.37797 -0.24554,0.12278 -1.65013,-0.11987 -1.88988,0 -0.15937,0.0797 -0.21861,0.2983 -0.37798,0.37798 -0.30238,0.15119 -0.83155,-0.15119 -1.13393,0 -0.15937,0.0797 -0.21861,0.29829 -0.37797,0.37798 -0.11269,0.0563 -0.26529,-0.0563 -0.37798,0 -0.15937,0.0797 -0.21861,0.29829 -0.37798,0.37797 -0.11269,0.0564 -0.26528,-0.0563 -0.37797,0 -0.15937,0.0797 -0.21861,0.2983 -0.37798,0.37798 -0.11269,0.0563 -0.28888,-0.0891 -0.37797,0 -0.0891,0.0891 0.0891,0.28889 0,0.37798 -0.126,0.12599 -0.62996,-0.126 -0.75596,0 -0.0891,0.0891 0.0891,0.28888 0,0.37797 -0.0891,0.0891 -0.26528,-0.0563 -0.37797,0 -0.31874,0.15937 -0.43722,0.59659 -0.75596,0.75595 -0.20393,0.10197 -0.55201,-0.10196 -0.75595,0 -0.31874,0.15937 -0.43721,0.59659 -0.75595,0.75596 -0.11269,0.0563 -0.26529,-0.0563 -0.37798,0 -0.15936,0.0797 -0.2186,0.29829 -0.37797,0.37797 -0.11269,0.0564 -0.26529,-0.0563 -0.37798,0 -0.15937,0.0797 -0.21861,0.29829 -0.37798,0.37798 -0.11269,0.0563 -0.25198,0 -0.37797,0 -0.12599,0.12599 -0.21861,0.29829 -0.37798,0.37797 -0.11269,0.0563 -0.26528,-0.0563 -0.37797,0 -0.15937,0.0797 -0.21861,0.2983 -0.37798,0.37798 -0.22538,0.11269 -0.53057,-0.11269 -0.75595,0 -0.15937,0.0797 -0.21861,0.29829 -0.37798,0.37798 -0.22538,0.11269 -0.53057,-0.11269 -0.75595,0 -0.15937,0.0797 -0.21861,0.29829 -0.37798,0.37797 -0.22538,0.11269 -0.53057,-0.11269 -0.75595,0 -0.15937,0.0797 -0.21861,0.2983 -0.37798,0.37798 -0.22538,0.11269 -0.53057,-0.11269 -0.75595,0 -0.15937,0.0797 -0.2186,0.29829 -0.37797,0.37798 -0.22539,0.11269 -0.53057,-0.11269 -0.75596,0 -0.15936,0.0797 -0.2186,0.29829 -0.37797,0.37797 -0.30238,0.15119 -0.83155,-0.15119 -1.13393,0 -0.15937,0.0797 -0.21861,0.29829 -0.37798,0.37798 -0.11269,0.0563 -0.26528,-0.0564 -0.37797,0 -0.15937,0.0797 -0.20894,0.32163 -0.37798,0.37797 -0.23905,0.0797 -0.5169,-0.0797 -0.75595,0 -0.16904,0.0564 -0.21861,0.2983 -0.37798,0.37798 -0.11269,0.0563 -0.26528,-0.0563 -0.37797,0 -0.15937,0.0797 -0.21861,0.29829 -0.37798,0.37798 -0.11269,0.0563 -0.25198,0 -0.37798,0 -0.12599,0.12599 -0.2186,0.29829 -0.37797,0.37797 -0.22538,0.11269 -0.57777,-0.17818 -0.75596,0 -0.0891,0.0891 0.0891,0.28889 0,0.37798 -0.18898,0.18899 -0.94494,-0.18899 -1.13392,0 -0.0891,0.0891 0.0891,0.28888 0,0.37798 -0.0891,0.0891 -0.26529,-0.0564 -0.37798,0 -0.31874,0.15936 -0.43721,0.59658 -0.75595,0.75595 -0.11269,0.0563 -0.28889,-0.0891 -0.37798,0 -0.0891,0.0891 0.0891,0.28889 0,0.37797 -0.0891,0.0891 -0.28888,-0.0891 -0.37797,0 -0.0891,0.0891 0.0891,0.28889 0,0.37798 -0.0891,0.0891 -0.28889,-0.0891 -0.37798,0 -0.0891,0.0891 0.0891,0.28889 0,0.37798 -0.0891,0.0891 -0.26529,-0.0563 -0.37798,0 -0.31873,0.15937 -0.43721,0.59658 -0.75595,0.75595 -0.11269,0.0563 -0.28889,-0.0891 -0.37798,0 -0.0891,0.0891 0.0891,0.28888 0,0.37797 -0.0891,0.0891 -0.28888,-0.0891 -0.37797,0 -0.0891,0.0891 0.0891,0.28889 0,0.37798 -0.0891,0.0891 -0.26529,-0.0563 -0.37798,0 -0.15937,0.0797 -0.2186,0.29829 -0.37797,0.37798 -0.1127,0.0563 -0.28889,-0.0891 -0.37798,0 -0.0891,0.0891 0.0891,0.28888 0,0.37797 -0.17818,0.17818 -0.57777,-0.17818 -0.75595,0 -0.0891,0.0891 0.0891,0.28889 0,0.37798 -0.0891,0.0891 -0.28889,-0.0891 -0.37798,0 -0.0891,0.0891 0.0891,0.28889 0,0.37798 -0.0891,0.0891 -0.28889,-0.0891 -0.37798,0 -0.0891,0.0891 0.0891,0.28888 0,0.37797 -0.0891,0.0891 -0.28888,-0.0891 -0.37797,0 -0.0891,0.0891 0.0891,0.28889 0,0.37798 -0.0891,0.0891 -0.28889,-0.0891 -0.37798,0 -0.0891,0.0891 0.0891,0.28889 0,0.37797 -0.0891,0.0891 -0.26528,-0.0563 -0.37797,0 -0.15937,0.0797 -0.21861,0.29829 -0.37798,0.37798 -0.11269,0.0563 -0.26529,-0.0563 -0.37798,0 -0.31873,0.15937 -0.43721,0.59658 -0.75595,0.75595 -0.11269,0.0564 -0.28888,-0.0891 -0.37797,0 -0.0891,0.0891 0.0891,0.28889 0,0.37798 -0.55437,0.55437 -0.34018,-0.71816 -0.37798,-0.75595 -0.0891,-0.0891 -0.28889,0.0891 -0.37798,0 -0.17818,-0.17818 0.17818,-0.57778 0,-0.75596 -0.0891,-0.0891 -0.28888,0.0891 -0.37797,0 -0.12651,-0.1265 0.1265,-0.62945 0,-0.75595 -0.0891,-0.0891 -0.28889,0.0891 -0.37798,0 -0.17818,-0.17818 0.11269,-0.53057 0,-0.75595 -0.0797,-0.15937 -0.29829,-0.21861 -0.37798,-0.37798 -0.0575,-0.11503 0,-0.9637 0,-1.13393 0,-0.12599 -0.0891,-0.28888 0,-0.37797 0.0891,-0.0891 0.25199,0 0.37798,0 0.12599,0 0.26529,-0.0564 0.37798,0 0.15936,0.0797 0.2186,0.29829 0.37797,0.37797 0.1127,0.0563 0.26529,-0.0563 0.37798,0 0.15937,0.0797 0.21861,0.2983 0.37798,0.37798 0.22538,0.11269 0.5169,-0.0797 0.75595,0 0.26727,0.0891 0.48868,0.28889 0.75595,0.37798 0.11953,0.0398 0.28889,-0.0891 0.37798,0 0.0891,0.0891 -0.0891,0.28888 0,0.37797 0.0891,0.0891 0.26528,-0.0563 0.37797,0 0.15937,0.0797 0.21861,0.2983 0.37798,0.37798 0.11269,0.0563 0.25198,0 0.37797,0 0.126,0.12599 0.21861,0.29829 0.37798,0.37798 0.11269,0.0563 0.28889,-0.0891 0.37798,0 0.0891,0.0891 -0.0891,0.28888 0,0.37797 0.17818,0.17818 0.57777,-0.17818 0.75595,0 0.0891,0.0891 -0.0891,0.28889 0,0.37798 0.0891,0.0891 0.26528,-0.0564 0.37798,0 0.15937,0.0797 0.2186,0.29829 0.37797,0.37797 0.22538,0.1127 0.57778,-0.17817 0.75595,0 0.0891,0.0891 0.0891,0.28889 0,0.37798 -0.0171,0.0171 -1.71166,0 -1.88988,0 -0.12599,0 -0.25198,0 -0.37797,0 -0.126,0 -0.26529,-0.0563 -0.37798,0 -0.15937,0.0797 -0.21861,0.29829 -0.37798,0.37798 -0.13668,0.0683 -1.62698,0 -1.88988,0 -0.12599,0 -0.28888,-0.0891 -0.37797,0 -0.0891,0.0891 0.0891,0.28888 0,0.37797 -0.18899,0.18899 -0.94494,-0.18899 -1.13393,0 -0.0891,0.0891 0,0.25199 0,0.37798"
       id="path97"
       inkscape:connector-curvature="0" />
  </g>
</svg>
